<?xml version="1.0" encoding="iso-8859-1"?>
<!-- Generator: Adobe Illustrator 19.0.0, SVG Export Plug-In . SVG Version: 6.00 Build 0)  -->
<svg version="1.1" id="Layer_1" xmlns="http://www.w3.org/2000/svg" xmlns:xlink="http://www.w3.org/1999/xlink" x="0px" y="0px"
	 fill="white" viewBox="0 0 492.308 492.308" style="enable-background:new 0 0 492.308 492.308;" xml:space="preserve">
<g>
	<g>
		<path d="M464,207.697h-10.913v-55.644h-57.317v-50.212h-77v105.856H173.503l0.035-105.856h-77.01v50.212H39.221v55.644H28.298
			C12.692,207.697,0,220.399,0,236.005v20.298c0,15.606,12.692,28.308,28.298,28.308h10.923v55.538l57.308,0.101v50.216h76.913
			l0.035-105.856h145.292v105.856h77v-50.202h57.317v-55.654H464c15.606,0,28.308-12.702,28.308-28.308v-20.298
			C492.308,220.399,479.606,207.697,464,207.697z M39.221,264.918H28.298c-4.75,0-8.606-3.865-8.606-8.615v-20.298
			c0-4.75,3.856-8.615,8.606-8.615h10.923V264.918z M96.529,320.553l-37.615-0.058v-35.885v-76.913v-35.952h37.615V320.553z
			 M153.798,246.154l-0.067,38.457h0.052l-0.033,86.163h-37.529v-30.49V152.053v-30.519h37.625L153.798,246.154z M318.769,264.918
			H173.484l0.006-18.764l0.029-18.764h145.25V264.918z M376.077,152.053v188.212v30.51h-37.615v-86.163v-76.913v-86.163h37.615
			V152.053z M433.394,207.697v76.913v35.962h-37.625V171.745h37.625V207.697z M472.615,256.303c0,4.75-3.865,8.615-8.615,8.615
			h-10.913v-37.529H464c4.75,0,8.615,3.865,8.615,8.615V256.303z"/>
	</g>
</g>
<g>
</g>
<g>
</g>
<g>
</g>
<g>
</g>
<g>
</g>
<g>
</g>
<g>
</g>
<g>
</g>
<g>
</g>
<g>
</g>
<g>
</g>
<g>
</g>
<g>
</g>
<g>
</g>
<g>
</g>
</svg>
