<svg id="Слой_1" data-name="Слой 1" xmlns="http://www.w3.org/2000/svg" viewBox="0 0 1024 1143"><defs><style>.cls-1{fill:#0d9488;}.cls-2,.cls-3,.cls-7,.cls-8{fill:none;}.cls-2,.cls-3,.cls-6,.cls-7,.cls-8{stroke:#231f20;}.cls-2,.cls-3{stroke-linecap:round;stroke-width:8px;}.cls-2{stroke-linejoin:bevel;}.cls-3,.cls-6,.cls-7,.cls-8{stroke-miterlimit:10;}.cls-4{fill:#f59e0b;}.cls-5{fill:#ffd64b;}.cls-6,.cls-9{fill:#231f20;}.cls-6,.cls-7{stroke-width:3px;}.cls-8{stroke-width:2px;}.cls-10{fill:#fff;}.cls-11{fill:#212121;}</style></defs><title>Queen 2</title><path class="cls-1" d="M419.37,744.82c-1.73-9.12-4.39-22.91-7.86-39.68-5.14-24.86-13.13-26.91-18.68-52.44-8.72-40.09-7.56-68-8.85-78.63-4.83-39.83,1.29-42.06-5.53-66.28-7.73-27.46-16.26-26.88-22.12-53.92-3.05-14.07-8.4-38.8,4.43-60.66,1.68-2.87,8.25-13.49,25.43-23.59,28.35-16.68,57.23-15.3,78.53-14.61,113.75,3.69,134.16-8.19,150.41,12.36,8.7,11,9.11,27.18,10,59.54,1.32,51.15-9.08,68.58-12.16,113.46-3,43.42,3.38,76.24,10,110.09,7.89,40.65,14.22,73.28,35.39,110.08,18.39,32,40.19,53.57,55.3,68.53,27.45,27.19,49.16,40.71,76.31,77.51,14.59,19.78,19.22,30.65,18.8,42.69-.65,18.42-12.95,33.67-33.18,50.55-52.5,43.8-110.29,58.4-115,59.54-106.56,25.74-200.58,48.45-242.2-4.5-43.27-55-.36-154.21,5.53-167.38"/><path class="cls-2" d="M583.3,414.61c35.11-17.63,70.43-35.81,105.55-53.44h0c7.55-4.11,10.25-14.42,6.74-25.8C684.09,298,674.31,266.31,662.81,229"/><path class="cls-3" d="M393.61,425.06c-10.56,37.82-16.52,76.74-27.07,114.56h0c-2.05,8.35,3.47,17.26,13.83,22.31l96.81,47.2"/><path class="cls-4" d="M558.11,619.18c-16.22-88.8,11.88-128,29.62-222.68-17.05,1.73-30.33,5.35-48,5.35-18.4,0-35.14,1.64-53.54,1.65s-35.13-1.65-53.53-1.65c-17.69,0-31-3.62-48-5.35,19.43,102.34,46,134.51,29.62,222.68-20.41,110-80.4,269.87-87.8,379.6,26.92,3.27,64,12.29,91,13.93,21.71,1.34,47.51,6.34,68.76,6.34s47.06-5,68.77-6.34c26.93-1.64,64-10.66,91-13.93C638.51,889.05,578.21,729.19,558.11,619.18Z"/><path class="cls-5" d="M584.65,372.16c-16.74.95-33.28,1.43-49.9,1.43-16,0-31.89.59-47.87.59h-.36c-16,0-31.89-.59-47.86-.59-16.63,0-33.16-.48-49.9-1.43-4.54,1.07-7.84,16.93-7.84,20.83,0,4.77,4.93,8.63,11,8.63l2.08.13c5.73.35,11.5.65,17.27.88,12.29.52,24.64.78,36.93.78l4.08,0h.15c11.36.1,22.71.56,34.07.56h.36c11.37,0,22.72-.46,34.08-.56h.15l4.08,0c12.29,0,24.64-.26,36.93-.78,5.76-.23,11.53-.53,17.26-.88l2.09-.13c6.09,0,11-3.86,11-8.63C592.49,389.09,589.18,373.23,584.65,372.16Z"/><path class="cls-5" d="M557.24,169c-8-19.49-35.61-33.73-68.32-33.51S428.83,150.38,421.08,170a30.69,30.69,0,0,0-2.19,11.53c.08,11.21,6.42,21.43,16.88,29.28,13,9.76,32.27,15.87,53.78,15.72s40.73-6.53,53.57-16.46c10.34-8,16.54-18.3,16.46-29.52A30.59,30.59,0,0,0,557.24,169Z"/><path class="cls-4" d="M583.71,162.55a152.75,152.75,0,0,1-14.83,12.51c-8.36,6.44-11.42,6.48-12.46,6.44-13.85-.56-17.71-28.34-28.63-28.37-8.73,0-9.31,17.67-27.12,26.64a48.37,48.37,0,0,1-11.43,3.91,48.34,48.34,0,0,1-11.48-3.75c-17.93-8.72-18.76-26.41-27.49-26.26-10.91.18-14.39,28-28.23,28.76-1,.06-4.1.06-12.55-6.26a152.87,152.87,0,0,1-15-12.32,1.32,1.32,0,0,0-2.18,1.32h0c2,5.47,2.8,9.46,5.94,17.41,11.58,29.35,13.33,37.34,17.79,49.07,2.15,5.65,4.24,12.23,7,20.58,2.52,7.55,4.87,14.64,6.77,21.42,4.21,15,6.12,28.55,2.3,42l58-.4,58-.4c-4-13.39-2.28-26.91,1.72-42,1.81-6.81,4.06-13.93,6.48-21.51,2.66-8.39,4.66-15,6.73-20.68,4.3-11.79,5.94-19.8,17.11-49.31,3-8,3.81-12,5.7-17.49h0A1.31,1.31,0,0,0,583.71,162.55Z"/><path class="cls-1" d="M597.18,331.42a.08.08,0,0,1,0,0c-.05-.44-.46-3.39-.47-3.44-.88-8.55-6.73-16.91-15.13-19.54a10.26,10.26,0,0,0-6.89.3c-7.32,3-42.51,5.2-84.82,5.2H483c-42.33,0-77.54-2.25-84.83-5.21a10.26,10.26,0,0,0-6.87-.29c-8.41,2.62-14.27,11-15.14,19.54,0,.05-.43,3-.47,3.44a.08.08,0,0,1,0,0l-3.77,26.46c0,7.92,3.87,11.34,11.68,13a7.34,7.34,0,0,1,2.07.75c3.17,1.05,40.67,5.81,91.5,5.81,3.13,0,6.21,0,9.26,0s6.13,0,9.26,0c48.71,0,81.78-2.42,86.31-4.49a17.1,17.1,0,0,1,2.41-.82l3.75-1c5.91-.53,12.78-4.95,12.78-13.23Z"/><path class="cls-5" d="M651.29,997.36H635.82c-27.58,3.27-53.85,4.9-81.43,6.53-22.34,1.32-46.45,1.63-68.3,1.63s-45.95-.31-68.29-1.63c-27.58-1.63-53.85-3.26-81.43-6.53H320.9c-9.59,0-17.37,9.67-17.37,21.59v4.16c0,11.92,7.78,21.58,17.37,21.58,27.29,3.27,54.25,4.94,81.14,6.53,28.18,1.67,55.16,3.27,84,3.27s55.88-1.6,84.06-3.27c26.88-1.59,53.85-3.26,81.14-6.53,9.59,0,17.37-9.66,17.37-21.58V1019C668.66,1007,660.88,997.36,651.29,997.36Z"/><path class="cls-4" d="M681.92,1037.18H663.58c-32.69,5.7-63.83,8.55-96.53,11.4-26.48,2.31-55,2.86-81,2.86s-54.47-.55-81-2.86c-32.69-2.85-63.83-5.7-96.53-11.4H290.27c-11.37,0-20.59,16.88-20.59,37.72v7.27c0,20.83,9.22,37.72,20.59,37.72,32.35,5.7,64.31,8.62,96.18,11.41,33.41,2.92,65.39,5.7,99.64,5.7s66.24-2.78,99.65-5.7c31.87-2.79,63.83-5.71,96.18-11.41,11.37,0,20.59-16.89,20.59-37.72v-7.27C702.51,1054.06,693.29,1037.18,681.92,1037.18Z"/><circle class="cls-1" cx="490.97" cy="124.94" r="10.58"/><circle class="cls-6" cx="390.06" cy="158.78" r="6.06"/><circle class="cls-6" cx="448.53" cy="146.05" r="6.06"/><circle class="cls-6" cx="527.37" cy="146.21" r="6.06"/><circle class="cls-6" cx="588.41" cy="155.85" r="6.06"/><path class="cls-7" d="M437,191.76c4-4.53,11.58-7.17,19.19-6.72,8.61.51,13.34,4.76,14,5.39"/><path class="cls-7" d="M505,191.76c4-4.53,11.58-7.17,19.19-6.72,8.61.51,13.34,4.76,14,5.39"/><path class="cls-8" d="M383.93,371a229.73,229.73,0,0,1,6-33.19,226.71,226.71,0,0,1,9.44-28.6"/><path class="cls-8" d="M376.59,368.2a227.4,227.4,0,0,1,14.79-59.74"/><path class="cls-8" d="M395.18,373.12c1.43-9.26,3.17-18.94,5.31-29,2.5-11.76,5.3-22.86,8.25-33.27"/><path class="cls-8" d="M452.54,377.08a625.23,625.23,0,0,1,6.31-63.35"/><path class="cls-8" d="M427.67,376q1.84-14.83,4.55-30.76,2.89-16.77,6.36-32.11"/><path class="cls-8" d="M407.62,374.42c1.25-10,3-20.91,5.56-32.4,2.37-10.79,5.09-20.8,7.95-30"/><path class="cls-8" d="M573.08,309.18A227.81,227.81,0,0,1,588.49,371"/><path class="cls-8" d="M581,308.46a227.4,227.4,0,0,1,14.79,59.74"/><path class="cls-8" d="M563.68,310.86c3,10.41,5.75,21.51,8.26,33.27,2.13,10.05,3.88,19.73,5.31,29"/><path class="cls-8" d="M487.07,377.45q-1.27-31.72-2.58-63.47"/><path class="cls-8" d="M513.57,313.73a625.23,625.23,0,0,1,6.31,63.35"/><path class="cls-8" d="M533.84,313.08q3.45,15.33,6.36,32.11,2.73,15.92,4.55,30.76"/><path class="cls-8" d="M551.3,312.06c2.85,9.16,5.57,19.17,7.94,30,2.53,11.49,4.32,22.36,5.57,32.4"/><path class="cls-3" d="M419,580.76l58.19,28.37"/><path class="cls-2" d="M681.69,290.27c-6.16-20-12.23-39.71-18.88-61.29"/><rect class="cls-9" x="644.14" y="205.73" width="24.97" height="33.85" rx="7.35" transform="translate(743.84 910.49) rotate(-115.96)"/><path class="cls-7" d="M451.5,681.5c6-32,11.28-61.75,33-119.58a270.55,270.55,0,0,1,30.21-58.06"/><ellipse class="cls-1" cx="519.34" cy="481.54" rx="24" ry="15.38" transform="translate(-140.92 737.75) rotate(-64.05)"/><ellipse class="cls-1" cx="525.7" cy="485.38" rx="23.61" ry="15.63" transform="translate(-185.33 565.25) rotate(-49.13)"/><ellipse class="cls-1" cx="526.44" cy="491.67" rx="22.65" ry="16.3" transform="translate(-184.42 375.28) rotate(-33.75)"/><path class="cls-7" d="M435.5,660.5c18-18,11-13,44.2-63.31,13.79-20.89,33.95-32.55,49.36-43"/><ellipse class="cls-1" cx="522.55" cy="560.13" rx="24" ry="15.38" transform="matrix(0.74, -0.68, 0.68, 0.74, -241.22, 501.32)"/><ellipse class="cls-1" cx="527.07" cy="566.04" rx="23.61" ry="15.63" transform="translate(-202.55 309.42) rotate(-27.66)"/><ellipse class="cls-1" cx="525.46" cy="572.16" rx="22.65" ry="16.3" transform="translate(-109.7 124.9) rotate(-12.28)"/><path class="cls-7" d="M448.5,668.5c6-19,15.44-34.43,30.08-73.45A182.44,182.44,0,0,1,499,555.87"/><ellipse class="cls-1" cx="502.1" cy="540.81" rx="16.19" ry="10.38" transform="translate(-203.91 755.59) rotate(-64.05)"/><ellipse class="cls-1" cx="506.4" cy="543.4" rx="15.94" ry="10.55" transform="translate(-235.88 570.7) rotate(-49.13)"/><ellipse class="cls-1" cx="506.9" cy="547.64" rx="15.28" ry="11" transform="translate(-218.81 373.85) rotate(-33.75)"/><path class="cls-7" d="M457.5,676.5c-2.17-24.92,20.93-57.66,10.9-99.44a188.39,188.39,0,0,0-15.89-42.66"/><ellipse class="cls-1" cx="451.21" cy="518.59" rx="10.7" ry="16.69" transform="matrix(0.95, -0.32, 0.32, 0.95, -143.62, 174.05)"/><ellipse class="cls-1" cx="446.49" cy="520.7" rx="10.87" ry="16.43" transform="translate(-214.25 336.56) rotate(-33.81)"/><ellipse class="cls-1" cx="445.44" cy="524.98" rx="11.34" ry="15.75" transform="translate(-243.03 519.08) rotate(-49.19)"/><path class="cls-7" d="M465.5,662.5c1-30,15.74-57.07,2.29-108.54a220.38,220.38,0,0,0-21.31-52.56"/><ellipse class="cls-1" cx="444.74" cy="481.93" rx="14.19" ry="20.79" transform="translate(-153.11 212.45) rotate(-23.04)"/><ellipse class="cls-1" cx="438.41" cy="484.52" rx="14.14" ry="20.86" transform="matrix(0.77, -0.64, 0.64, 0.77, -208.78, 394.48)"/><ellipse class="cls-1" cx="437" cy="489.79" rx="14.41" ry="20.48" transform="translate(-212.89 582.01) rotate(-56.34)"/><path class="cls-7" d="M431.5,681.5c15-28,35.84-47.76,45.24-100.12a220.82,220.82,0,0,0,2.73-56.65"/><ellipse class="cls-1" cx="486.06" cy="506.33" rx="20.79" ry="14.19" transform="translate(-35.18 976.36) rotate(-88.21)"/><ellipse class="cls-1" cx="479.23" cy="506.02" rx="14.14" ry="20.86" transform="translate(-115.38 142.49) rotate(-15.12)"/><ellipse class="cls-1" cx="475.74" cy="510.22" rx="14.41" ry="20.48" transform="translate(-196.53 323.92) rotate(-31.51)"/><path class="cls-7" d="M433.5,670.5c27.72-34.17,48.57-73.92,57.38-130.58,3.74-24.09,4.55-45.74,3.08-64.06"/><ellipse class="cls-1" cx="501.42" cy="455.05" rx="23.51" ry="16.05" transform="translate(30.95 942.03) rotate(-88.21)"/><ellipse class="cls-1" cx="493.69" cy="454.7" rx="15.99" ry="23.59" transform="translate(-101.5 144.48) rotate(-15.12)"/><ellipse class="cls-1" cx="489.74" cy="459.45" rx="16.29" ry="23.16" transform="translate(-167.93 323.75) rotate(-31.51)"/><rect class="cls-9" x="460.9" y="591.92" width="24.97" height="33.85" rx="7.35" transform="matrix(0.96, 0.29, -0.29, 0.96, 193.22, -109.69)"/><ellipse class="cls-10" cx="458.47" cy="234.98" rx="16.59" ry="20.7" transform="matrix(1, -0.03, 0.03, 1, -7.93, 16.17)"/><ellipse class="cls-11" cx="458.6" cy="242.95" rx="13.98" ry="13.12" transform="translate(-8.21 16.18) rotate(-2)"/><ellipse class="cls-10" cx="517.49" cy="233.98" rx="16.59" ry="20.7" transform="translate(-7.86 18.23) rotate(-2)"/><ellipse class="cls-11" cx="517.61" cy="241.95" rx="13.98" ry="13.12" transform="translate(-8.14 18.24) rotate(-2)"/><path class="cls-10" d="M517,279.59c0,10.72-12.58,19.41-28.09,19.41s-28.09-8.69-28.09-19.41v-.09H517Z"/><path class="cls-5" d="M715.05,180.54s8.94,12.24,8,26.21c-.71,10.36-9.95,20.85-10.57,21.27L727,235.79s10.82-19.2,7.17-35.24c-1.12-4.91-6.29-12.78-10.09-16.28A14,14,0,0,0,715.05,180.54Z"/><path class="cls-4" d="M685.24,181.84,676,161.42s43.1,1.46,57.38,36.58C733.38,198,703.22,176.49,685.24,181.84Z"/><path class="cls-4" d="M448.63,51.13S458,36.89,473.06,32.38c11.19-3.34,25.88,2.24,26.56,2.73L502,16.69s-24.47-3.79-39.92,6.38c-4.73,3.11-11,11.66-13.15,17A15.75,15.75,0,0,0,448.63,51.13Z"/><path class="cls-5" d="M461.77,82,443.93,99.78S428.45,53.85,459.76,25C459.76,25,449,65.18,461.77,82Z"/><path class="cls-5" d="M318.46,156.32s-8.13,10.85-20.34,13.69c-9.06,2.11-20.46-3-21-3.47l-2.84,14.52s19.27,4.22,32.05-3.1c3.91-2.25,9.29-8.73,11.29-12.9A12.51,12.51,0,0,0,318.46,156.32Z"/><path class="cls-4" d="M309.54,131.14l15-13.26s10.05,37.27-16.27,58.7C308.32,176.58,318.83,145.13,309.54,131.14Z"/><path class="cls-5" d="M715.46,491.32s-8.13,10.85-20.34,13.69c-9.06,2.11-20.46-3.05-21-3.47l-2.84,14.52s19.27,4.22,32.05-3.1c3.91-2.25,9.29-8.73,11.29-12.9A12.51,12.51,0,0,0,715.46,491.32Z"/><path class="cls-4" d="M706.54,466.14l15.05-13.26s10,37.27-16.27,58.7C705.32,511.58,715.83,480.13,706.54,466.14Z"/><path class="cls-5" d="M314.46,352.32s-8.13,10.85-20.34,13.69c-9.06,2.11-20.46-3.05-21-3.47l-2.84,14.52s19.27,4.22,32.05-3.1c3.91-2.25,9.29-8.73,11.29-12.9A12.51,12.51,0,0,0,314.46,352.32Z"/><path class="cls-4" d="M305.54,327.14l15-13.26s10.05,37.27-16.27,58.7C304.32,372.58,314.83,341.13,305.54,327.14Z"/><path class="cls-5" d="M774.15,298.67s-9.09,12.13-22.73,15.3c-10.11,2.35-22.85-3.41-23.43-3.88l-3.16,16.22s21.52,4.72,35.79-3.46c4.38-2.51,10.38-9.76,12.62-14.42A14,14,0,0,0,774.15,298.67Z"/><path class="cls-4" d="M764.18,270.54,781,255.73s11.22,41.64-18.18,65.58C762.82,321.31,774.56,286.17,764.18,270.54Z"/><path class="cls-5" d="M661.15,57.67S652.06,69.8,638.42,73c-10.11,2.35-22.85-3.41-23.43-3.88l-3.16,16.22s21.52,4.72,35.79-3.46C652,79.34,658,72.09,660.24,67.43A14,14,0,0,0,661.15,57.67Z"/><path class="cls-4" d="M651.18,29.54,668,14.73s11.22,41.64-18.18,65.58C649.82,80.31,661.56,45.17,651.18,29.54Z"/><path class="cls-8" d="M435.16,206.82a17,17,0,0,0,8.91,7A25.64,25.64,0,0,0,456.3,215"/><path class="cls-8" d="M540,206a17,17,0,0,1-9,6.95,26,26,0,0,1-12.31,1.27"/></svg>