<?xml version="1.0" standalone="no"?>
<!DOCTYPE svg PUBLIC "-//W3C//DTD SVG 20010904//EN"
 "http://www.w3.org/TR/2001/REC-SVG-20010904/DTD/svg10.dtd">
<svg version="1.0" xmlns="http://www.w3.org/2000/svg"
 width="1276.000000pt" height="718.000000pt" viewBox="0 0 1276.000000 718.000000"
 preserveAspectRatio="xMidYMid meet">
<metadata>
Created by potrace 1.16, written by Peter Selinger 2001-2019
</metadata>
<g transform="translate(0.000000,718.000000) scale(0.100000,-0.100000)"
fill="#000000" stroke="none">
<path d="M801 4450 c-374 -100 -620 -438 -638 -876 -7 -150 6 -259 44 -379 46
-147 106 -247 212 -359 104 -108 205 -170 361 -222 80 -27 94 -28 260 -28 203
0 277 15 419 85 222 109 367 373 274 497 -47 63 -161 84 -238 44 -22 -11 -82
-52 -134 -90 -118 -88 -169 -106 -289 -100 -111 6 -185 33 -254 98 -108 98
-158 231 -158 414 0 154 36 271 115 376 99 133 296 187 439 120 25 -12 89 -62
142 -111 119 -111 141 -123 210 -116 71 7 110 30 136 80 19 36 22 56 21 148
-2 170 -55 329 -130 386 -51 39 -132 43 -193 11 l-45 -24 -90 30 c-81 26 -105
30 -240 33 -125 2 -162 0 -224 -17z"/>
<path d="M2170 4454 c-119 -33 -247 -109 -275 -165 -8 -15 -15 -51 -15 -78 0
-42 5 -56 30 -85 17 -19 47 -40 65 -46 l35 -12 0 -579 0 -579 -23 0 c-27 0
-71 -42 -86 -83 -17 -45 -13 -118 8 -153 12 -20 41 -43 77 -60 54 -26 68 -28
207 -32 165 -5 264 7 315 39 65 39 89 119 58 192 -7 18 -37 53 -65 79 l-53 47
4 218 c3 211 4 219 28 262 48 85 149 111 229 58 121 -80 142 -282 66 -618 -22
-99 -35 -177 -31 -192 15 -63 104 -126 176 -127 103 0 175 56 243 188 86 168
112 283 111 492 0 129 -4 169 -23 240 -62 231 -212 388 -418 436 -83 20 -255
14 -322 -10 -24 -9 -47 -16 -52 -16 -4 0 -9 107 -11 238 -3 214 -5 241 -23
276 -30 59 -64 80 -138 83 -34 1 -87 -4 -117 -13z"/>
<path d="M8240 4450 c-227 -47 -358 -153 -336 -273 9 -49 36 -79 95 -107 l51
-23 0 -90 c0 -73 -3 -88 -14 -84 -168 65 -399 33 -565 -77 -185 -124 -281
-314 -281 -561 0 -135 22 -233 77 -338 47 -91 163 -210 250 -255 173 -91 397
-96 594 -13 l72 30 35 -30 c44 -39 72 -49 132 -49 60 0 96 13 133 48 62 58 71
113 37 234 -19 69 -20 103 -20 782 0 683 -1 710 -19 740 -43 69 -121 90 -241
66z m-244 -975 c46 -30 54 -69 54 -252 0 -181 -4 -195 -58 -223 -41 -20 -124
-29 -177 -18 -39 8 -60 20 -95 57 -53 54 -71 105 -71 196 0 103 24 163 86 217
54 47 205 60 261 23z"/>
<path d="M11600 4431 c-82 -26 -137 -58 -191 -107 -79 -75 -100 -154 -59 -222
21 -35 74 -72 103 -72 16 0 17 -33 17 -554 l0 -553 -52 -39 c-64 -47 -84 -92
-73 -160 9 -64 52 -107 128 -129 47 -13 93 -16 255 -13 176 3 201 5 230 23 64
38 96 137 67 210 -18 48 -65 95 -96 95 -18 0 -19 9 -19 140 l0 140 28 -6 c128
-31 249 -157 286 -300 24 -91 76 -199 120 -250 92 -107 213 -98 275 21 25 48
26 57 25 195 -2 215 -43 350 -151 490 l-50 66 34 39 c18 22 50 74 71 114 33
67 37 83 37 152 0 71 -2 80 -31 116 -47 58 -88 78 -162 78 l-63 0 -61 -65
c-173 -186 -185 -197 -240 -223 -31 -15 -70 -27 -87 -27 l-29 0 -4 368 c-3
343 -4 370 -23 407 -31 62 -74 85 -159 84 -39 0 -96 -8 -126 -18z"/>
<path d="M5162 3935 c-92 -20 -165 -57 -225 -114 -179 -169 -179 -440 1 -601
69 -63 209 -132 312 -155 41 -10 89 -20 105 -24 39 -9 48 -53 14 -71 -33 -18
-91 -7 -231 44 -161 58 -210 61 -288 14 -63 -39 -90 -84 -90 -148 1 -165 206
-291 500 -307 200 -10 352 35 467 140 90 83 143 204 143 327 -1 165 -171 305
-494 406 -95 29 -114 47 -95 88 19 40 43 41 135 1 217 -93 379 -49 392 108 3
41 -1 63 -17 96 -48 93 -160 169 -290 197 -83 17 -256 17 -339 -1z"/>
<path d="M6371 3935 c-284 -64 -434 -348 -314 -594 62 -128 212 -228 420 -279
131 -32 143 -40 119 -76 -25 -39 -72 -34 -236 24 -158 56 -217 62 -278 31
-175 -90 -140 -286 68 -390 116 -58 207 -76 375 -76 161 1 220 14 319 69 88
49 148 113 193 202 32 66 37 87 41 164 6 112 -13 154 -104 239 -73 69 -212
142 -354 186 -129 40 -130 41 -130 73 0 29 26 62 49 62 7 0 48 -16 92 -35 121
-53 238 -63 305 -27 35 18 73 70 84 112 29 109 -83 244 -250 301 -85 29 -301
36 -399 14z"/>
<path d="M9150 3920 c-240 -64 -402 -214 -472 -440 -20 -64 -23 -96 -23 -220
1 -107 6 -162 19 -210 63 -231 234 -402 456 -455 344 -81 686 56 825 330 59
117 78 214 73 374 -4 102 -10 152 -26 201 -63 191 -208 338 -404 408 -64 23
-91 26 -223 29 -125 2 -163 0 -225 -17z m301 -385 c82 -43 123 -147 117 -294
-3 -85 -8 -107 -33 -157 -40 -76 -94 -116 -169 -122 -84 -7 -122 4 -166 48
-100 100 -107 378 -12 483 55 61 185 82 263 42z"/>
<path d="M10433 3925 c-113 -31 -217 -99 -265 -174 -52 -82 -31 -155 56 -198
l56 -27 0 -303 0 -303 -39 -20 c-52 -26 -79 -62 -87 -117 -13 -85 28 -154 106
-183 50 -18 340 -25 427 -11 123 21 173 71 173 173 0 49 -4 62 -29 91 -16 18
-46 42 -66 53 l-37 19 5 195 c2 110 10 212 16 233 15 48 73 112 124 138 32 17
61 21 172 22 118 2 137 4 162 23 93 69 106 210 28 301 -96 113 -336 136 -506
49 l-63 -32 -29 33 c-45 52 -109 63 -204 38z"/>
<path d="M3953 3921 c-157 -25 -279 -88 -383 -197 -119 -126 -179 -282 -180
-466 -1 -365 242 -642 592 -677 300 -29 593 101 623 277 8 49 -25 140 -66 182
-42 41 -82 39 -194 -10 -119 -52 -207 -74 -266 -67 -53 7 -115 35 -142 65 -18
20 -17 20 195 25 144 3 229 9 263 19 175 52 255 157 257 338 1 105 -18 176
-70 255 -73 114 -203 203 -347 240 -74 19 -212 27 -282 16z m214 -417 c35 -26
51 -68 37 -92 -10 -15 -34 -17 -173 -20 -179 -3 -179 -2 -138 59 35 54 98 81
179 77 49 -3 75 -9 95 -24z"/>
</g>
</svg>
