<svg width="5005.31" height="2999" xmlns="http://www.w3.org/2000/svg" data-name="Слой 1">
 <title>Illustration  chess pieces  together_Монтажная область 1</title>

 <g>
  <title>Layer 1</title>
  <polygon id="svg_1" points="1.69 1556.97 16.07 1556.97 1.69 1573.97 1.69 1556.97"/>
  <path id="svg_43" fill="#f59e0b" d="m3470.25,667.83a11.64,11.64 0 0 1 -4.54,5.77c-6.17,3.67 -13,11.42 -13.41,18.89a11.79,11.79 0 0 1 -0.57,3c-3.3,10.65 -20.38,21.94 -37.24,22c-27.34,0.13 -44.71,-29.37 -59.78,-21.27c-1.61,0.86 -1.51,1.26 -4.27,3.65c-20.7,18 -51.26,17.26 -57.92,17.09c-26,-0.63 -34.76,0 -38.3,4.71c-5,6.61 18.66,48.2 31,72.21c13.92,27 25,38.52 53.61,59.18c27,19.54 56.54,23.73 94.24,56.39c31.52,27.29 60.39,100.4 57.35,119.28c-2.36,14.69 -96.78,40.54 -139.42,51.21c-24.59,6.16 -91.72,20.86 -169.29,32.89c-4.76,0.74 -8.67,-0.39 -13.42,-1.82c-20.18,-6.08 -49.69,-60 -68.4,-187.89c-17.61,-120.42 -26.83,-180.56 -7.46,-215.6c8.38,-15.15 42.25,-103 57.23,-158.92c0.47,-1.75 1.31,-4.55 2.43,-8.77c4.41,-16.57 14.45,-58.4 48.13,-87.12c4,-3.44 18.75,-15.78 25.61,-11.59c8.28,5.06 3.85,33.37 -0.57,49.33c-2.2,7.9 -3.25,8.65 -2.44,11c5,14.51 50,-3.71 89.67,16.38c25.87,13.09 16,25.45 47.6,45c24.93,15.42 37.69,11.85 73.22,33.45c19.07,11.59 25.53,18.79 29.9,26.17c9.04,15.22 11.35,35.07 7.04,45.38z" class="cls-3"/>
  <path id="svg_44" fill="#ffd64b" d="m3141.01,661.29c-2.84,-6.89 -10.66,-25.9 -23.63,-28c-9.91,-1.57 -20,7.2 -25,14.07c-2.41,3.35 -5.72,8 -5.85,14.49c-0.23,11.43 9.48,19.18 7.77,21.5c-1.87,2.54 -12,-8.52 -23.17,-7.22c-13.64,1.58 -25.95,21.19 -22.26,34.23c2.87,10.15 14.91,14.48 13.86,17.38s-7.72,1.07 -17.8,6.08c-11.68,5.81 -5.62,28.55 0.77,40.84c5.81,11.18 30,14.16 29.51,16.82c-0.51,2.85 8.5,5.9 -1.72,14.11s-17.24,7.82 -9.16,18.08c7.24,9.2 -8.41,31.27 -8.41,33.67c0,2.63 -22.51,-5.17 -31.48,4.72s-14.62,17.34 -11.48,26.65c4.33,12.84 25.84,6.69 26,9.12c0.2,2.64 -19.87,0.33 -27.79,12.17c-7.55,11.27 -3.09,33.85 8.23,42.23c10.83,8 26.73,2.13 27,3.66c0.33,1.75 -21.88,1.56 -29.41,15.18c-6.77,12.22 -1.1,34.43 10.46,41.68s27.82,-1.69 28.64,0.64s-19.2,6.45 -25.33,22c-4.92,12.44 -0.35,30.93 9.23,36.77c11,6.71 26.82,-4.38 28,-1.8s-16,8.75 -20.25,23.31s2.88,25.53 6.26,27.75c23.41,15.4 58.12,9.62 83.6,0.65c31,-10.92 -6.19,-45.48 -22.17,-134.41c-23.73,-132.66 52.07,-262.13 25.58,-326.37z" class="cls-4"/>
  <path id="svg_45" fill="#ffd64b" d="m3492.66,1025.91l-15.33,3.84c-26.54,10.08 -52.18,18.21 -79.12,26.67c-21.82,6.86 -45.64,13.15 -67.31,18.57s-45.64,11.1 -68.12,15.34c-27.75,5.23 -54.21,10.13 -82.36,13.75l-15.34,3.83c-9.51,2.38 -14.82,13.88 -11.85,25.69l1,4.12c3,11.8 13.08,19.44 22.59,17.06c27.86,-3.55 55,-8.58 82.07,-13.68c28.35,-5.34 55.5,-10.46 84.15,-17.63s55,-15.45 82.54,-24.1c26.25,-8.25 52.58,-16.59 78.82,-26.6c9.51,-2.38 14.82,-13.88 11.86,-25.68l-1,-4.12c-3.01,-11.8 -13.08,-19.44 -22.6,-17.06z" class="cls-4"/>
  <path id="svg_46" fill="#f59e0b" d="m3532.93,1057.73l-18.18,4.52c-31,13.76 -61.16,24.31 -92.87,35.25c-25.69,8.86 -53.88,16.49 -79.57,22.92s-54.15,13 -81,17.27c-33.13,5.29 -64.71,10.2 -98.55,12.66l-18.17,4.55c-11.28,2.83 -16.22,21.84 -11,42.46l1.8,7.2c5.18,20.62 18.52,35.06 29.8,32.23c33.49,-2.38 65.91,-7.42 98.2,-12.57c33.84,-5.4 66.25,-10.59 100.21,-19.09s65,-19.19 97.38,-30.38c30.91,-10.66 61.88,-21.49 92.53,-35.16c11.28,-2.83 16.22,-21.83 11,-42.46l-1.81,-7.2c-5.15,-20.59 -18.45,-35.03 -29.77,-32.2z" class="cls-3"/>
  <ellipse transform="rotate(-41.02 292.19 1964.89)" id="svg_47" fill="#fff" ry="25.84" rx="20.71" cy="2918.40989" cx="3492.98" class="cls-1"/>
  <ellipse transform="rotate(-40.17 268.69 1925.74)" id="svg_48" fill="#212121" ry="16.38" rx="17.46" cy="2886.90999" cx="3475.83" class="cls-5"/>
  <path id="svg_49" stroke-width="3px" stroke-miterlimit="10" stroke="#231f20" fill="none" d="m3301.62,556.84c3.67,-5 11.17,-8.29 19,-8.49c8.81,-0.22 14,3.68 14.75,4.27" class="cls-6"/>
  <path id="svg_50" fill="#fff" d="m3464.25,665.11a11.6,11.6 0 0 1 -4.55,5.77c-6.16,3.67 -13,11.42 -13.4,18.89a12.25,12.25 0 0 1 -0.57,3c-8.78,-3.11 -19.3,-9 -33.17,-16.91c-18.18,-10.35 -42.57,-26.38 -40.86,-29.29c1.47,-2.52 19.4,9.94 50.31,15.72c17.68,3.27 31.89,2.96 42.24,2.82z" class="cls-1"/>
  <path id="svg_51" fill="#0d9488" d="m3311.26,807.5a0.11,0.11 0 0 1 0,0c-0.07,-0.5 -0.69,-3.87 -0.71,-3.93c-1.44,-9.78 -8.6,-19.09 -18.4,-21.69a11.82,11.82 0 0 0 -7.92,0.69c-8.26,3.76 -48.66,8.12 -97.35,10.25l-3.66,0.15l0,0l-0.3,0l-0.29,0l-3.66,0.17c-48.72,2.13 -89.35,1.32 -97.89,-1.71a11.8,11.8 0 0 0 -7.93,0c-9.54,3.44 -15.86,13.34 -16.44,23.22c0,0.06 -0.33,3.47 -0.36,4a0.09,0.09 0 0 1 0,0l-3,30.6c0.39,9.1 5,12.83 14.1,14.36a8.84,8.84 0 0 1 2.42,0.75c3.7,1.06 47.1,4.64 105.6,2.08q5.4,-0.23 10.65,-0.5t10.66,-0.43c56.06,-2.45 94,-6.9 99.11,-9.5a17.73,17.73 0 0 1 2.73,-1.06l4.27,-1.38c6.76,-0.91 14.45,-6.34 14,-15.84l-5.63,-30.23z" class="cls-7"/>
  <path id="svg_52" stroke-width="2px" stroke-linecap="round" stroke-miterlimit="10" stroke="#231f20" fill="none" d="m3067.83,863.69a261.46,261.46 0 0 1 14.67,-71.79" class="cls-8"/>
  <path id="svg_53" stroke-width="2px" stroke-linecap="round" stroke-miterlimit="10" stroke="#231f20" fill="none" d="m3059.24,860.87a262,262 0 0 1 14,-69.39" class="cls-8"/>
  <path id="svg_54" stroke-width="2px" stroke-linecap="round" stroke-miterlimit="10" stroke="#231f20" fill="none" d="m3080.88,865.59c1.18,-10.71 2.7,-21.92 4.65,-33.58c2.3,-13.64 4.95,-26.54 7.82,-38.65" class="cls-8"/>
  <path id="svg_55" stroke-width="2px" stroke-linecap="round" stroke-miterlimit="10" stroke="#231f20" fill="none" d="m3147.11,867.26a715,715 0 0 1 4.06,-73.12" class="cls-8"/>
  <path id="svg_56" stroke-width="2px" stroke-linecap="round" stroke-miterlimit="10" stroke="#231f20" fill="none" d="m3118.43,867.21q1.37,-17.14 3.68,-35.58q2.47,-19.43 5.7,-37.22" class="cls-8"/>
  <path id="svg_57" stroke-width="2px" stroke-linecap="round" stroke-miterlimit="10" stroke="#231f20" fill="none" d="m3095.27,866.46c0.93,-11.6 2.44,-24.18 4.77,-37.52c2.18,-12.52 4.81,-24.16 7.63,-34.83" class="cls-8"/>
  <path id="svg_58" stroke-width="2px" stroke-linecap="round" stroke-miterlimit="10" stroke="#231f20" fill="none" d="m3094.9,958.16a261.48,261.48 0 0 1 20.85,70.23" class="cls-8"/>
  <path id="svg_59" stroke-width="2px" stroke-linecap="round" stroke-miterlimit="10" stroke="#231f20" fill="none" d="m3104,956.93a261.2,261.2 0 0 1 20,67.91" class="cls-8"/>
  <path id="svg_60" stroke-width="2px" stroke-linecap="round" stroke-miterlimit="10" stroke="#231f20" fill="none" d="m3084.18,960.57c3.92,11.81 7.69,24.42 11.17,37.81c3,11.44 5.46,22.48 7.57,33" class="cls-8"/>
  <path id="svg_61" stroke-width="2px" stroke-linecap="round" stroke-miterlimit="10" stroke="#231f20" fill="none" d="m3186.86,866q-3.08,-36.4 -6.17,-72.81" class="cls-8"/>
  <path id="svg_62" stroke-width="2px" stroke-linecap="round" stroke-miterlimit="10" stroke="#231f20" fill="none" d="m3214.15,791.38a718,718 0 0 1 10.45,72.49" class="cls-8"/>
  <path id="svg_63" stroke-width="2px" stroke-linecap="round" stroke-miterlimit="10" stroke="#231f20" fill="none" d="m3049.94,964.62q4.74,17.45 8.94,36.58q3.95,18.15 6.78,35.12" class="cls-8"/>
  <path id="svg_64" stroke-width="2px" stroke-linecap="round" stroke-miterlimit="10" stroke="#231f20" fill="none" d="m3070,962.56c3.75,10.39 7.38,21.75 10.65,34c3.49,13.09 6.1,25.48 8,37" class="cls-8"/>
  <path id="svg_65" stroke-width="8px" stroke-linecap="round" stroke-miterlimit="10" stroke="#231f20" fill="none" d="m3368,1921.16c-28.24,41.51 -49.25,85.21 -77.48,126.73l0,0c-5.77,9.22 0.49,21.08 16.23,28.56c52.8,25.11 43.87,23.62 94.46,45.91" class="cls-9"/>
  <path id="svg_66" stroke-width="8px" stroke-linecap="round" stroke-miterlimit="10" stroke="#231f20" fill="none" d="m3640.07,1921.16c28.23,41.51 49.24,85.21 77.47,126.73l0,0c5.78,9.22 1.15,30 -16.22,28.56c-74,-6.09 -114.13,-10.55 -173.65,-18" class="cls-9"/>
  <path id="svg_67" fill="#f59e0b" d="m3635.55,2089.45c-10.41,-73.24 -5.22,-106.63 21.18,-185.51c-25.38,1.44 -45.13,4.46 -71.45,4.46c-27.39,0 -52.3,1.37 -79.67,1.38s-52.28,-1.38 -79.67,-1.38c-26.32,0 -46.08,-3 -71.45,-4.46c28.91,85.26 40.53,116.37 16.19,189.82c-30.37,91.6 -91.75,220.52 -102.77,311.93c40.06,2.73 95.3,10.25 135.38,11.61c32.3,1.11 70.69,5.28 102.32,5.28s70,-4.17 102.32,-5.28c40.08,-1.36 95.31,-8.88 135.38,-11.61c-11.02,-91.41 -94.09,-220.14 -107.76,-316.24z" class="cls-3"/>
  <path id="svg_68" fill="#f59e0b" d="m3657.84,1690.93a130.86,130.86 0 0 1 -16,62.74a141.52,141.52 0 0 1 -43,47.87l0,0l-4.45,2.36a261,261 0 0 1 -83.48,13.45a264.57,264.57 0 0 1 -98.57,-19.95c-0.35,-0.26 -0.69,-0.52 -1,-0.8c-32.2,-25.45 -52.63,-63.35 -52.63,-105.68c0,-65.35 108.69,-196 140.75,-233.11a11.64,11.64 0 0 1 17.61,0c32.06,37.12 140.77,167.77 140.77,233.12z" class="cls-3"/>
  <path id="svg_69" fill="#ffd64b" d="m3653.63,1867c-24.91,1.31 -49.51,2 -74.26,2c-23.77,0 -47.44,0.82 -71.22,0.82l-0.53,0c-23.79,0 -47.46,-0.82 -71.23,-0.82c-24.74,0 -49.35,-0.67 -74.25,-2c-6.75,1.49 -11.67,23.6 -11.67,29c0,6.64 7.34,12 16.4,12l3.1,0.18c8.53,0.49 17.11,0.9 25.69,1.23c18.29,0.72 36.67,1.08 55,1.08c2,0 4.05,0 6.06,0l0.23,0c16.9,0.14 33.8,0.79 50.71,0.79l0.53,0c16.91,0 33.81,-0.65 50.7,-0.79l0.23,0c2,0 4.05,0 6.07,0c18.29,0 36.67,-0.36 54.95,-1.08c8.58,-0.33 17.17,-0.74 25.7,-1.23l3.1,-0.18c9.06,0 16.4,-5.39 16.4,-12c-0.04,-5.36 -4.96,-27.47 -11.71,-29z" class="cls-4"/>
  <path id="svg_70" stroke-width="8px" stroke-linecap="round" stroke-miterlimit="10" stroke="#231f20" fill="none" d="m3346.13,2095.62c41.66,20.8 83.33,39.12 129.46,58" class="cls-9"/>
  <path id="svg_71" fill="#231f20" d="m3488.22,2181.41l-14.66,-3.73c-5.79,-1.47 -9.08,-6.67 -7.36,-11.62l8.13,-23.36c1.72,-4.94 7.8,-7.76 13.59,-6.29l14.66,3.73c5.79,1.47 9.09,6.67 7.36,11.62l-8.12,23.36c-1.73,4.94 -7.82,7.76 -13.6,6.29z" class="cls-10"/>
  <path id="svg_72" fill="#ffd64b" d="m3751.3,2397.79l-23,0c-41,4.85 -80.13,7.27 -121.17,9.7c-33.25,2 -69.12,2.42 -101.63,2.42s-68.39,-0.46 -101.63,-2.42c-41,-2.43 -80.13,-4.85 -121.17,-9.7l-23,0c-14.27,0 -25.84,14.35 -25.84,32.07l0,6.14c0,17.71 11.57,32.07 25.84,32.07c40.61,4.85 80.73,7.34 120.74,9.7c41.93,2.49 82.08,4.85 125.08,4.85s83.15,-2.36 125.08,-4.85c40,-2.36 80.13,-4.85 120.73,-9.7c14.28,0 25.85,-14.36 25.85,-32.07l0,-6.18c-0.03,-17.68 -11.6,-32.03 -25.88,-32.03z" class="cls-4"/>
  <path id="svg_73" fill="#f59e0b" d="m3796.88,2456.94l-27.28,0c-48.65,8.48 -95,12.72 -143.64,16.95c-39.41,3.44 -81.93,4.24 -120.47,4.24s-81.07,-0.8 -120.47,-4.24c-48.66,-4.23 -95,-8.47 -143.65,-16.95l-27.28,0c-16.92,0 -30.64,25.1 -30.64,56l0,10.8c0,31 13.72,56.05 30.64,56.05c48.14,8.48 95.7,12.82 143.12,16.95c49.71,4.34 97.31,8.48 148.28,8.48s98.56,-4.14 148.27,-8.48c47.42,-4.13 95,-8.47 143.12,-16.95c16.92,0 30.64,-25.09 30.64,-56.05l0,-10.74c0,-31 -13.72,-56.06 -30.64,-56.06z" class="cls-3"/>
  <path id="svg_74" fill="#0d9488" d="m3670.78,1818.38a0.08,0.08 0 0 1 0,0.06c-0.06,-0.64 -0.68,-5 -0.69,-5.11c-1.31,-12.71 -10,-25.12 -22.52,-29a15.26,15.26 0 0 0 -10.26,0.44c-10.88,4.39 -63.25,7.73 -126.21,7.73l-10.24,0c-63,0 -115.37,-3.34 -126.23,-7.74a15.21,15.21 0 0 0 -10.22,-0.43c-12.51,3.9 -21.23,16.32 -22.54,29c0,0.08 -0.62,4.47 -0.69,5.11a0.08,0.08 0 0 1 0,-0.06l-5.62,39.32c0,11.76 5.76,16.85 17.39,19.33a11.51,11.51 0 0 1 3.07,1.11c4.72,1.57 60.53,8.64 136.17,8.64q7,0 13.77,0t13.77,0c72.49,0 121.7,-3.61 128.45,-6.67a23.71,23.71 0 0 1 3.59,-1.22l5.58,-1.54c8.78,-0.78 19,-7.35 19,-19.65l-5.57,-39.32z" class="cls-7"/>
  <path id="svg_75" stroke-width="2px" stroke-linecap="round" stroke-miterlimit="10" stroke="#231f20" fill="none" d="m3353.46,1877.15a337.89,337.89 0 0 1 22.94,-91.81" class="cls-8"/>
  <path id="svg_76" stroke-width="2px" stroke-linecap="round" stroke-miterlimit="10" stroke="#231f20" fill="none" d="m3342.54,1873a338,338 0 0 1 22,-88.76" class="cls-8"/>
  <path id="svg_77" stroke-width="2px" stroke-linecap="round" stroke-miterlimit="10" stroke="#231f20" fill="none" d="m3370.2,1880.34c2.12,-13.75 4.72,-28.14 7.9,-43.07c3.73,-17.48 7.89,-34 12.28,-49.43" class="cls-8"/>
  <path id="svg_78" stroke-width="2px" stroke-linecap="round" stroke-miterlimit="10" stroke="#231f20" fill="none" d="m3455.56,1886.23a925.77,925.77 0 0 1 9.39,-94.13" class="cls-8"/>
  <path id="svg_79" stroke-width="2px" stroke-linecap="round" stroke-miterlimit="10" stroke="#231f20" fill="none" d="m3418.56,1884.55q2.73,-22 6.77,-45.71q4.29,-24.91 9.46,-47.7" class="cls-8"/>
  <path id="svg_80" stroke-width="2px" stroke-linecap="round" stroke-miterlimit="10" stroke="#231f20" fill="none" d="m3388.71,1882.27c1.86,-14.91 4.52,-31.06 8.28,-48.14c3.53,-16 7.57,-30.91 11.82,-44.52" class="cls-8"/>
  <path id="svg_81" stroke-width="2px" stroke-linecap="round" stroke-miterlimit="10" stroke="#231f20" fill="none" d="m3634.92,1785.34a336.91,336.91 0 0 1 22.94,91.81" class="cls-8"/>
  <path id="svg_82" stroke-width="2px" stroke-linecap="round" stroke-miterlimit="10" stroke="#231f20" fill="none" d="m3646.78,1784.27a337.5,337.5 0 0 1 22,88.76" class="cls-8"/>
  <path id="svg_83" stroke-width="2px" stroke-linecap="round" stroke-miterlimit="10" stroke="#231f20" fill="none" d="m3621,1787.84c4.39,15.46 8.54,32 12.27,49.43c3.18,14.93 5.78,29.32 7.91,43.07" class="cls-8"/>
  <path id="svg_84" stroke-width="2px" stroke-linecap="round" stroke-miterlimit="10" stroke="#231f20" fill="none" d="m3507,1886.78q-1.92,-47.15 -3.85,-94.31" class="cls-8"/>
  <path id="svg_85" stroke-width="2px" stroke-linecap="round" stroke-miterlimit="10" stroke="#231f20" fill="none" d="m3546.38,1792.1a925.69,925.69 0 0 1 9.38,94.13" class="cls-8"/>
  <path id="svg_86" stroke-width="2px" stroke-linecap="round" stroke-miterlimit="10" stroke="#231f20" fill="none" d="m3576.54,1791.14q5.11,22.77 9.46,47.7q4.07,23.65 6.77,45.71" class="cls-8"/>
  <path id="svg_87" stroke-width="2px" stroke-linecap="round" stroke-miterlimit="10" stroke="#231f20" fill="none" d="m3602.51,1789.61c4.25,13.61 8.3,28.48 11.82,44.52c3.77,17.08 6.43,33.23 8.28,48.14" class="cls-8"/>
  <path id="svg_88" fill="#231f20" d="m3518.87,2077.84l-15,-5.17c-5.62,-2.16 -8.84,-7.89 -7.2,-12.8l7.74,-23.22c1.64,-4.91 7.15,-7 12.77,-4.86l14.61,5.33c5.62,2.16 8.84,7.89 7.2,12.8l-7.74,23.22c-1.65,4.91 -6.76,6.86 -12.38,4.7z" class="cls-10"/>
  <path id="svg_89" stroke-width="8px" stroke-linecap="round" stroke-miterlimit="10" stroke="#231f20" fill="none" d="m3655.1,2072.43l-135.82,-14.52" class="cls-9"/>
  <ellipse id="svg_90" fill="#ffd64b" ry="29.68" rx="29.73" cy="1441.8" cx="3508.89" class="cls-4"/>
  <path id="svg_91" fill="#fff" d="m3512.1,1625.82c-5.59,23.63 -23.78,38.92 -41.1,34.32c-17.57,-4.65 -27.54,-28.08 -22.28,-52.29c3.1,-14.19 10.73,-25.51 20.07,-31.52a130.14,130.14 0 0 0 17.41,26.67c1.39,1.66 2.87,3.3 4.42,4.94a119.09,119.09 0 0 0 16.78,14.69c1.6,1.14 3.18,2.21 4.7,3.19z" class="cls-1"/>
  <path id="svg_92" fill="#212121" d="m3506.67,1621.81c-3,8.87 -12.23,13.87 -20.76,11.2c-8.69,-2.71 -13.4,-12.36 -10.53,-21.52a17.79,17.79 0 0 1 9.07,-10.7c1.43,1.75 3,3.48 4.58,5.23a128,128 0 0 0 17.64,15.79z" class="cls-5"/>
  <path id="svg_93" fill="#fff" d="m3447.68,1682.63c5.28,1.43 13.89,9.86 37.87,18.18c17.83,6.19 28.26,7 39.77,6.22c30,-2 62.74,-27.53 65.18,-30.62a2.55,2.55 0 0 1 1.44,-1c2.21,-0.47 3.35,2.39 4.79,4.78c0.68,1.14 -0.74,2.66 -1,2.88c-4.31,4.3 -13.37,23.55 -41.69,46.89c-37.8,31.17 -66.62,39.24 -78.12,41.64c-0.25,0 -0.82,0.62 -1.44,0.47c-4,-1 7.19,-15.79 -1.44,-46.41c-7.39,-26.37 -30.18,-44.35 -25.36,-43.03z" class="cls-1"/>
  <path id="svg_94" stroke-linecap="round" stroke-miterlimit="10" stroke="#231f20" fill="none" d="m3474.35,1730.65a154.89,154.89 0 0 0 28.28,-1.79a152.55,152.55 0 0 0 29.52,-7.7c1.6,-0.58 3.23,-1.21 4.85,-1.88a151.14,151.14 0 0 0 23.34,-12a154.91,154.91 0 0 0 34.74,-29.86" class="cls-11"/>
  <path id="svg_95" stroke-linecap="round" stroke-miterlimit="10" stroke="#231f20" fill="none" d="m3504.61,1761.85a94.53,94.53 0 0 0 -1.21,-29.52c-0.24,-1.18 -0.49,-2.33 -0.77,-3.47a94.77,94.77 0 0 0 -10.49,-25.91" class="cls-11"/>
  <path id="svg_96" stroke-linecap="round" stroke-miterlimit="10" stroke="#231f20" fill="none" d="m3535.6,1744a68.19,68.19 0 0 0 -2.33,-19.11c-0.34,-1.27 -0.71,-2.52 -1.12,-3.71a66.77,66.77 0 0 0 -6.55,-14.15" class="cls-11"/>
  <path id="svg_97" stroke-linecap="round" stroke-miterlimit="10" stroke="#231f20" fill="none" d="m3564.13,1721.18l0,0a87.56,87.56 0 0 0 -2.86,-11.2c-0.3,-0.94 -0.62,-1.83 -0.93,-2.71a91.68,91.68 0 0 0 -3.87,-9.06" class="cls-11"/>
  <path id="svg_98" stroke-linecap="round" stroke-miterlimit="10" stroke="#231f20" fill="none" d="m3585.5,1697.32a33.07,33.07 0 0 0 -1.83,-4.14c-0.47,-0.91 -1,-1.77 -1.46,-2.57a34.92,34.92 0 0 0 -3.67,-4.9" class="cls-11"/>
  <path id="svg_99" fill="#fff" d="m3572.31,1623.54c0.26,20.22 -11.27,36.82 -25.81,37.07c-13.85,0.23 -25.4,-14.48 -26.69,-33.38c0.64,-0.37 1.3,-0.78 2,-1.21c0.22,-0.14 0.45,-0.29 0.67,-0.41c0.82,-0.52 1.66,-1.07 2.51,-1.64a117.7,117.7 0 0 0 13.39,-10.5l0.06,-0.06c1,-0.87 1.94,-1.8 2.93,-2.76a118.83,118.83 0 0 0 11,-12.2c1.91,-2.42 3.64,-4.83 5.25,-7.22c8.49,5.92 14.47,18.12 14.69,32.31z" class="cls-1"/>
  <path id="svg_100" fill="#212121" d="m3545.52,1627.75c-3.59,5.9 -11.55,7.58 -17.78,3.8a13.32,13.32 0 0 1 -5.3,-5.94c0.82,-0.52 1.66,-1.07 2.51,-1.64a117.7,117.7 0 0 0 13.39,-10.5l0.06,-0.06c1,-0.87 1.94,-1.8 2.93,-2.76c5.76,3.89 7.67,11.41 4.19,17.1z" class="cls-5"/>
  <line id="svg_101" stroke-width="5px" stroke-miterlimit="10" stroke="#231f20" fill="none" y2="1473.59" x2="3694.37" y1="2348.62" x1="3428.02" class="cls-12"/>
  <ellipse id="svg_102" transform="rotate(-73.15 1169.25 4595.91)" fill="#0d9488" ry="15.16" rx="14.86" cy="6107.09016" cx="4851.19" class="cls-7"/>
  <path id="svg_103" fill="#0d9488" d="m3752.57,1441.27l3.14,-168.06a0.94,0.94 0 0 0 -1.73,-0.53l-91.06,141.38a2.41,2.41 0 0 0 -0.18,2.24l27.58,63.35a2,2 0 0 0 2.93,0.9l58.23,-37.32a2.37,2.37 0 0 0 1.09,-1.96z" class="cls-7"/>
  <ellipse id="svg_104" transform="rotate(-71.96 1145.96 4529.21)" fill="#ffd64b" ry="15.16" rx="9.81" cy="6005.73996" cx="4838.55996" class="cls-4"/>
  <path id="svg_105" stroke-width="3px" stroke-miterlimit="10" stroke="#231f20" fill="none" d="m3460.09,1541c5.85,0.14 15.56,3.25 24.57,7.85c10.18,5.2 14.84,9.94 15.51,10.63" class="cls-6"/>
  <path id="svg_106" stroke-width="3px" stroke-miterlimit="10" stroke="#231f20" fill="none" d="m3568.88,1558.27c-4.59,1.14 -12.73,4.43 -20.6,8.3a109.16,109.16 0 0 0 -14,8" class="cls-6"/>
  <path id="svg_107" fill="#0d9488" d="m1198,1871.79c-2.53,-17.8 -6.48,-44.75 -11.71,-77.53c-7.75,-48.6 -23,-53.29 -31.54,-103.22c-13.34,-78.41 -8.58,-132.35 -10.13,-153.06c-5.83,-77.56 6.26,-81.34 -4.81,-128.84c-12.55,-53.87 -29.14,-53.51 -38.08,-106.4c-4.66,-27.52 -12.83,-75.87 14,-117.07c3.52,-5.4 17.21,-25.37 51.44,-43.42c56.46,-29.75 112.36,-24.51 153.59,-21.28c220.27,17.29 260.93,-3.89 290.6,37.35c15.88,22.08 33.79,54.82 32.52,117.56c-2,99.16 -16.45,134 -26.43,220.61c-9.66,83.83 -26.07,144.58 -16.36,210.71c11.67,79.43 21,143.18 58.81,216.35c32.81,63.55 73.16,107.31 101.12,137.63c50.82,55.1 91.71,83.22 141.07,156.9c26.53,39.6 34.55,61.08 32.65,84.34c-2.9,35.62 -28.12,64.06 -68.85,94.94c-105.73,80.14 -219.12,103.25 -228.39,105c-209,40.34 -393.32,75.94 -469.32,-30.3c-79,-110.43 13.09,-298.66 25.67,-323.64" class="cls-7"/>
  <path id="svg_108" stroke-width="8px" stroke-linecap="round" stroke-miterlimit="10" stroke="#231f20" fill="none" d="m1191.82,1266.56c-19.94,71.32 -49.2,143.52 -69.14,214.85l-6.53,19.91a46.6,46.6 0 0 0 0,30.19c3.93,11 11.87,19.23 24.2,17.65c57.84,-7.41 101.27,-118.67 152.26,-150.72" class="cls-9"/>
  <path id="svg_109" stroke-width="8px" stroke-linecap="round" stroke-miterlimit="10" stroke="#231f20" fill="none" d="m1541,1266.56c19.94,71.32 49.2,143.52 69.14,214.85l8.43,25.68c3.87,15.74 -4.74,46 -26.12,42.07c-80.51,-15 -159.82,-73.41 -216.47,-94.15" class="cls-9"/>
  <path id="svg_110" fill="#f59e0b" d="m1502.45,1632.59c-30.63,-167.43 22.44,-241.36 55.94,-419.89c-32.21,3.26 -57.28,10.1 -90.68,10.1c-34.76,0 -66.36,3.09 -101.1,3.11s-66.34,-3.11 -101.1,-3.11c-33.4,0 -58.47,-6.84 -90.67,-10.1c36.68,193 86.83,253.65 55.93,419.89c-38.53,207.34 -151.82,508.87 -165.8,715.77c50.84,6.18 120.94,23.19 171.8,26.28c41,2.52 89.71,12 129.84,12s88.86,-9.43 129.85,-12c50.86,-3.09 121,-20.1 171.8,-26.28c-13.99,-206.9 -127.85,-508.36 -165.81,-715.77z" class="cls-3"/>
  <path id="svg_111" fill="#ffd64b" d="m1552.57,1166.82c-31.61,1.78 -62.84,2.68 -94.24,2.68c-30.16,0 -60.2,1.12 -90.38,1.12l-0.68,0c-30.18,0 -60.22,-1.12 -90.38,-1.12c-31.4,0 -62.63,-0.9 -94.23,-2.68c-8.57,2 -14.81,31.91 -14.81,39.28c0,9 9.31,16.26 20.81,16.26l3.94,0.24c10.82,0.67 21.71,1.22 32.6,1.68c23.21,1 46.53,1.46 69.74,1.46c2.56,0 5.14,0 7.7,0l0.29,0c21.44,0.18 42.88,1.06 64.34,1.06l0.68,0c21.46,0 42.9,-0.88 64.34,-1.06l0.29,0c2.56,0 5.14,0 7.7,0c23.21,0 46.54,-0.5 69.74,-1.46c10.89,-0.46 21.78,-1 32.61,-1.68l3.93,-0.24c11.5,0 20.82,-7.28 20.82,-16.26c0,-7.37 -6.25,-37.26 -14.81,-39.28z" class="cls-4"/>
  <path id="svg_112" fill="#ffd64b" d="m1545.31,838.43c-7.52,-39 -53.2,-75.72 -113.81,-87.59s-116.79,4.84 -138.5,38.16a58.16,58.16 0 0 0 -8.38,20.48c-4.07,20.74 3.82,42 20.21,60.44c20.33,22.91 53.74,41.45 93.61,49.26s77.82,3.26 105.32,-10.28c22.15,-10.89 37.5,-27.6 41.58,-48.35a57.91,57.91 0 0 0 -0.03,-22.12z" class="cls-4"/>
  <path id="svg_113" fill="#f59e0b" d="m1597.48,832.68c-10.82,7.14 -23,13.1 -32.14,17.56c-17.9,8.75 -23.58,7.68 -25.48,7.2c-25.42,-6.24 -22.11,-59 -42.3,-63.17c-16.15,-3.32 -23.89,29.15 -60.21,39a90.42,90.42 0 0 1 -22.63,2.93a90.48,90.48 0 0 1 -19.83,-11.2c-29.9,-22.85 -24.78,-55.83 -41,-58.84c-20.27,-3.77 -37.18,46.34 -63.08,42.52c-1.94,-0.28 -7.6,-1.42 -20.86,-16.28c-6.77,-7.57 -15.8,-17.69 -23.12,-28.39a2.47,2.47 0 0 0 -4.52,1.61l0,0c1.57,10.86 1.63,18.53 4.43,34.41c10.4,58.59 10.62,74 14.46,97.35c1.85,11.26 3.25,24.2 5.24,40.67c1.82,14.89 3.51,28.88 4.47,42.12c2.12,29.4 0.58,55.06 -11.55,78.46l107.5,21.06l107.51,21.06c-2.38,-26.24 5.9,-50.58 19,-77c5.9,-11.89 12.76,-24.21 20.08,-37.31c8.08,-14.5 14.27,-25.95 20.24,-35.67c12.39,-20.18 18.44,-34.36 50.23,-84.68c8.6,-13.64 11.56,-20.73 17.13,-30.19l0,0a2.48,2.48 0 0 0 -3.57,-3.22z" class="cls-3"/>
  <path id="svg_114" fill="#0d9488" d="m1576.23,1090a0.15,0.15 0 0 1 0,0.08c-0.08,-0.81 -0.86,-6.38 -0.88,-6.48c-1.66,-16.13 -12.71,-31.88 -28.58,-36.84a19.39,19.39 0 0 0 -13,0.56c-13.82,5.58 -80.28,9.81 -160.18,9.81c-2,0 -4,0 -6,0l-1,0c-2,0 -4,0 -6,0c-79.94,0 -146.42,-4.24 -160.19,-9.82a19.3,19.3 0 0 0 -13,-0.55c-15.88,5 -26.94,20.71 -28.59,36.84c0,0.1 -0.8,5.67 -0.88,6.48a0.15,0.15 0 0 1 0,-0.08l-7.13,49.91c0,14.92 7.31,21.38 22.07,24.53a14.54,14.54 0 0 1 3.9,1.4c6,2 76.81,11 172.79,11q8.86,0 17.48,0t17.48,0c92,0 154.44,-4.58 163,-8.47a31.63,31.63 0 0 1 4.55,-1.54l7.09,-2c11.14,-1 24.13,-9.34 24.13,-24.94l-7.06,-49.89z" class="cls-7"/>
  <path id="svg_115" fill="#ffd64b" d="m1678.41,2345.69l-29.21,0c-52.08,6.16 -101.69,9.24 -153.77,12.31c-42.19,2.5 -87.71,3.08 -129,3.08s-86.78,-0.58 -129,-3.08c-52.08,-3.07 -101.68,-6.15 -153.77,-12.31l-29.2,0c-18.12,0 -32.8,18.23 -32.8,40.71l0,7.84c0,22.48 14.68,40.7 32.8,40.7c51.52,6.16 102.44,9.31 153.21,12.31c53.22,3.15 104.17,6.16 158.73,6.16s105.52,-3 158.73,-6.16c50.77,-3 101.69,-6.15 153.22,-12.31c18.11,0 32.8,-18.22 32.8,-40.7l0,-7.84c0.06,-22.48 -14.63,-40.71 -32.74,-40.71z" class="cls-4"/>
  <path id="svg_116" fill="#f59e0b" d="m1736.25,2420.77l-34.62,0c-61.74,10.75 -120.54,16.13 -182.28,21.51c-50,4.35 -104,5.38 -152.89,5.38s-102.87,-1 -152.88,-5.38c-61.74,-5.38 -120.54,-10.76 -182.29,-21.51l-34.61,0c-21.48,0 -38.89,31.84 -38.89,71.12l0,13.71c0,39.28 17.41,71.13 38.89,71.13c61.07,10.75 121.44,16.26 181.62,21.51c63.08,5.5 123.48,10.76 188.16,10.76s125.08,-5.26 188.17,-10.76c60.18,-5.25 120.54,-10.76 181.62,-21.51c21.47,0 38.88,-31.85 38.88,-71.13l0,-13.71c0,-39.28 -17.41,-71.12 -38.88,-71.12z" class="cls-3"/>
  <ellipse id="svg_117" fill="#0d9488" ry="19.95" rx="19.98" cy="732.03" cx="1439.27" class="cls-7"/>
  <ellipse id="svg_118" fill="#231f20" stroke-width="3px" stroke-miterlimit="10" stroke="#231f20" ry="11.42" rx="11.44" cy="749.25" cx="1241.31" class="cls-13"/>
  <ellipse id="svg_119" fill="#231f20" stroke-width="3px" stroke-miterlimit="10" stroke="#231f20" ry="11.42" rx="11.44" cy="753.24" cx="1353.17" class="cls-13"/>
  <ellipse id="svg_120" fill="#231f20" stroke-width="3px" stroke-miterlimit="10" stroke="#231f20" ry="11.42" rx="11.44" cy="783.16" cx="1499" class="cls-13"/>
  <ellipse id="svg_121" fill="#231f20" stroke-width="3px" stroke-miterlimit="10" stroke="#231f20" ry="11.42" rx="11.44" cy="823.05" cx="1606.87" class="cls-13"/>
  <path id="svg_122" stroke-width="3px" stroke-miterlimit="10" stroke="#231f20" fill="none" d="m1288.84,889.9a59.47,59.47 0 0 0 62.23,42" class="cls-6"/>
  <path id="svg_123" stroke-width="3px" stroke-miterlimit="10" stroke="#231f20" fill="none" d="m1359.53,877.25a91.28,91.28 0 0 0 -31.87,13.24c-14.84,9.82 -19.62,15.15 -23.85,22.11" class="cls-6"/>
  <path id="svg_124" stroke-width="3px" stroke-miterlimit="10" stroke="#231f20" fill="none" d="m1397.89,919.54a59.46,59.46 0 0 0 59.87,45.3" class="cls-6"/>
  <path id="svg_125" stroke-width="3px" stroke-miterlimit="10" stroke="#231f20" fill="none" d="m1467.38,908.54a91.25,91.25 0 0 0 -31.86,13.24c-14.85,9.82 -19.63,15.15 -23.86,22.11" class="cls-6"/>
  <path id="svg_126" stroke-width="3px" stroke-miterlimit="10" stroke="#231f20" fill="none" d="m1360.36,846.17c6.76,-5.9 17.77,-7.91 27.83,-5.13a29.34,29.34 0 0 1 17.12,12.18" class="cls-6"/>
  <path id="svg_127" stroke-width="3px" stroke-miterlimit="10" stroke="#231f20" fill="none" d="m1466.8,875.42c13.94,-2.76 23,0.11 26.53,1.49c19.38,7.56 31,31.64 22.71,58.19" class="cls-6"/>
  <path id="svg_128" stroke-width="3px" stroke-miterlimit="10" stroke="#231f20" fill="none" d="m1315.89,1007.92c7.86,6 35.66,25.71 74.56,23.34a109.73,109.73 0 0 0 50.62,-16.14" class="cls-6"/>
  <path id="svg_129" stroke-width="2px" stroke-miterlimit="10" stroke="#231f20" fill="none" d="m1173.54,1164.57a428.34,428.34 0 0 1 29.11,-116.51" class="cls-14"/>
  <path id="svg_130" stroke-width="2px" stroke-miterlimit="10" stroke="#231f20" fill="none" d="m1159.68,1159.34a428.58,428.58 0 0 1 27.92,-112.64" class="cls-14"/>
  <path id="svg_131" stroke-width="2px" stroke-miterlimit="10" stroke="#231f20" fill="none" d="m1194.78,1168.62c2.69,-17.46 6,-35.71 10,-54.66c4.74,-22.18 10,-43.1 15.58,-62.73" class="cls-14"/>
  <path id="svg_132" stroke-width="2px" stroke-miterlimit="10" stroke="#231f20" fill="none" d="m1303.11,1176.1a1176.26,1176.26 0 0 1 11.9,-119.47" class="cls-14"/>
  <path id="svg_133" stroke-width="2px" stroke-miterlimit="10" stroke="#231f20" fill="none" d="m1256.14,1174q3.48,-28 8.59,-58q5.46,-31.64 12,-60.54" class="cls-14"/>
  <path id="svg_134" stroke-width="2px" stroke-miterlimit="10" stroke="#231f20" fill="none" d="m1218.27,1171.07c2.35,-18.93 5.73,-39.42 10.51,-61.1c4.47,-20.34 9.6,-39.21 15,-56.49" class="cls-14"/>
  <path id="svg_135" stroke-width="2px" stroke-miterlimit="10" stroke="#231f20" fill="none" d="m1530.72,1048.06a428.34,428.34 0 0 1 29.11,116.51" class="cls-14"/>
  <path id="svg_136" stroke-width="2px" stroke-miterlimit="10" stroke="#231f20" fill="none" d="m1545.76,1046.7a425.62,425.62 0 0 1 16.76,51.3a430.07,430.07 0 0 1 11.17,61.34" class="cls-14"/>
  <path id="svg_137" stroke-width="2px" stroke-miterlimit="10" stroke="#231f20" fill="none" d="m1513,1051.23c5.57,19.63 10.85,40.55 15.58,62.73c4,19 7.33,37.2 10,54.66" class="cls-14"/>
  <path id="svg_138" stroke-width="2px" stroke-miterlimit="10" stroke="#231f20" fill="none" d="m1368.31,1176.79q-2.43,-59.83 -4.87,-119.68" class="cls-14"/>
  <path id="svg_139" stroke-width="2px" stroke-miterlimit="10" stroke="#231f20" fill="none" d="m1418.35,1056.63a1176.34,1176.34 0 0 1 11.91,119.47" class="cls-14"/>
  <path id="svg_140" stroke-width="2px" stroke-miterlimit="10" stroke="#231f20" fill="none" d="m1456.63,1055.42q6.49,28.9 12,60.54q5.16,30 8.59,58" class="cls-14"/>
  <path id="svg_141" stroke-width="2px" stroke-miterlimit="10" stroke="#231f20" fill="none" d="m1489.59,1053.48c5.39,17.28 10.53,36.15 15,56.49c4.77,21.68 8.15,42.17 10.51,61.1" class="cls-14"/>
  <path id="svg_142" stroke-width="8px" stroke-linecap="round" stroke-miterlimit="10" stroke="#231f20" fill="none" d="m1495.62,1514.94c-36.22,-16.91 -71.72,-33.5 -110.74,-51.71" class="cls-9"/>
  <path id="svg_143" fill="#0d9488" d="m1390,1434l0,0l-5,0l0,0c-34.22,0.09 -67.73,0.08 -68,-0.3c2.94,4.79 33.91,12.83 33.91,12.83c11.38,2.34 24.42,2.93 36.53,2.78c12.11,0.15 25.15,-0.44 36.53,-2.78c0,0 31,-8 33.91,-12.83c-0.16,0.38 -33.67,0.39 -67.88,0.3z" class="cls-7"/>
  <ellipse id="svg_144" fill="#ffd64b" ry="12.13" rx="71.99" cy="1431.31" cx="1387.2" class="cls-4"/>
  <ellipse id="svg_145" fill="#ffd64b" ry="10.53" rx="62.52" cy="1431.31" cx="1387.2" class="cls-4"/>
  <path id="svg_146" fill="#0d9488" d="m1309.37,1339.61l0,0a74.19,74.19 0 0 1 10.39,-0.84l0.83,0l0.35,0c0.36,0 0.71,0 1,-0.09s0.48,0 0.7,0a4.1,4.1 0 0 1 2.59,0.87l0.12,0.1a6.33,6.33 0 0 1 1.77,3c0.06,0.2 0.12,0.4 0.17,0.61c0.11,0.41 0.19,0.84 0.26,1.27l0.09,0.65c0,0.44 0.09,0.88 0.12,1.31c0.06,1.08 0,2.13 0,3c0,0.36 0,0.69 -0.07,1c-0.08,1.07 -0.18,1.76 -0.18,1.76a29.3,29.3 0 0 0 -9.52,-1c-5,0.41 -10.47,2.68 -11.68,10.23c-2.39,14.9 5.08,31.3 12.24,33.38a23.87,23.87 0 0 0 8.47,0.86l0,0l1,-0.1l0,0q0.47,0 0.87,-0.12l0,0l0.74,-0.13l0,0l0.63,-0.13l0,0l0.52,-0.12l0,0c0.47,-0.12 0.73,-0.21 0.73,-0.21l6.86,12.52l-0.08,0l0,0l-0.76,0.14l0,0c-3.54,0.61 -17.13,2.43 -27.18,-3.74c-11.64,-7.16 -16.36,-22.66 -17.61,-40c-1.1,-17.64 7.92,-22.65 16.63,-24.22z" class="cls-7"/>
  <path id="svg_147" fill="#0d9488" d="m1321.45,1325.9c21.78,5.89 61.16,6.72 69.3,6.83c8.15,-0.11 47.53,-0.94 69.31,-6.83c0,0 0.51,33.71 -4.06,58.3s-33.51,45.63 -33.51,45.63s7.24,1 5.58,4.06c-3,5.58 -69,5.32 -74.63,0c-2.5,-2.38 5.58,-4.06 5.58,-4.06s-28.94,-21 -33.51,-45.63s-4.06,-58.3 -4.06,-58.3z" class="cls-7"/>
  <ellipse id="svg_148" fill="#ffd64b" ry="12.84" rx="69.39" cy="1324.55" cx="1390.75" class="cls-4"/>
  <path id="svg_149" fill="#ffd64b" d="m1390.61,1320c28.35,0 52.11,3.08 58.46,7.24c-9.94,5.51 -40.74,7.09 -58.46,7.09s-48.51,-1.58 -58.45,-7.09c6.35,-4.24 30.11,-7.24 58.45,-7.24z" class="cls-4"/>
  <path id="svg_150" fill="#231f20" d="m1356.23,1487.14l28.76,16.15a7.09,7.09 0 0 0 9.64,-2.7l24.38,-43.31a7.07,7.07 0 0 0 -2.7,-9.64l-28.76,-16.14a7.08,7.08 0 0 0 -9.64,2.7l-24.39,43.31a7.07,7.07 0 0 0 2.71,9.63z" class="cls-10"/>
  <path id="svg_151" stroke-width="8px" stroke-linecap="round" stroke-miterlimit="10" stroke="#231f20" fill="none" d="m1224.79,1476.27c23.07,-32.61 45.66,-64.59 70.51,-99.72" class="cls-9"/>
  <path id="svg_152" fill="#231f20" d="m1334.32,1378.78l-21.51,25a7.08,7.08 0 0 1 -10,0.75l-37.73,-32.39a7.07,7.07 0 0 1 -0.76,-10l21.51,-25a7.09,7.09 0 0 1 10,-0.75l37.74,32.39a7.08,7.08 0 0 1 0.75,10z" class="cls-10"/>
  <path id="svg_153" fill="#fff" d="m1401.33,1305.45c2,-2.67 -14.1,-11.49 -13.81,-26.27c0,-1.91 0.36,-4.7 9.86,-21.67c10.27,-18.34 12.06,-18.94 12.5,-23.64c1.54,-16.48 -18.19,-32.66 -21.05,-30.87c-1.71,1.07 4.35,7.47 4,18.39c-0.56,14.94 -12.46,18 -19.08,37.43c-2.28,6.73 -6.16,18.14 -1.31,28.9c6.74,15.04 26.84,20.48 28.89,17.73z" class="cls-1"/>
  <path id="svg_154" stroke-width="8px" stroke-linecap="round" stroke-miterlimit="10" stroke="#231f20" fill="none" d="m781.05,1612.15c31.29,46 54.58,94.44 85.87,140.45l0,0c6.39,10.22 -0.79,22.87 -18,31.66l-160.76,82.2" class="cls-9"/>
  <path id="svg_155" stroke-width="8px" stroke-linecap="round" stroke-miterlimit="10" stroke="#231f20" fill="none" d="m486.08,1612.15c-31.29,46 -54.57,94.44 -85.86,140.45l0,0c-6.4,10.22 0.79,22.87 18,31.66l160.78,82.2" class="cls-9"/>
  <path id="svg_156" fill="#f59e0b" d="m772.75,1795.35c-11.55,-74.66 -5.79,-108.7 23.47,-189.11c-28.13,1.47 -50,4.55 -79.19,4.55c-30.36,0 -58,1.39 -88.3,1.4s-57.93,-1.4 -88.29,-1.4c-29.17,0 -51.07,-3.08 -79.19,-4.55c32,86.91 44.93,118.63 17.95,193.5c-33.66,93.38 -101.69,224.79 -113.9,318c44.4,2.79 105.62,10.45 150,11.84c35.8,1.13 78.35,5.38 113.4,5.38s77.6,-4.25 113.4,-5.38c44.42,-1.39 105.64,-9.05 150,-11.84c-12.1,-93.21 -104.2,-224.43 -119.35,-322.39z" class="cls-3"/>
  <path id="svg_157" fill="#ffd64b" d="m791.13,1563.7c-27.6,1.46 -54.87,2.19 -82.29,2.19c-26.34,0 -52.58,0.92 -78.94,0.92l-0.59,0c-26.36,0 -52.59,-0.92 -78.93,-0.92c-27.43,0 -54.7,-0.73 -82.3,-2.19c-7.48,1.65 -12.93,26.15 -12.93,32.19c0,7.36 8.13,13.33 18.17,13.33l3.44,0.19c9.45,0.55 19,1 28.47,1.37c20.27,0.8 40.64,1.2 60.91,1.2c2.24,0 4.49,0 6.72,0l0.26,0c18.72,0.16 37.45,0.87 56.19,0.87l0.59,0c18.74,0 37.47,-0.71 56.2,-0.87l0.25,0c2.23,0 4.49,0 6.72,0c20.27,0 40.64,-0.4 60.91,-1.2c9.51,-0.37 19,-0.82 28.47,-1.37l3.44,-0.19c10,0 18.18,-6 18.18,-13.33c0,-6.04 -5.46,-30.54 -12.94,-32.19z" class="cls-4"/>
  <path id="svg_158" fill="#ffd64b" d="m901,2099.22l-25.5,0c-45.49,5.37 -88.81,8.06 -134.3,10.75c-36.84,2.18 -76.59,2.69 -112.63,2.69s-75.79,-0.51 -112.63,-2.69c-45.49,-2.69 -88.81,-5.38 -134.29,-10.75l-25.48,0c-15.82,0 -28.64,15.91 -28.64,35.54l0,6.86c0,19.63 12.82,35.54 28.64,35.54c45,5.38 89.47,8.13 133.81,10.75c46.47,2.75 91,5.38 138.62,5.38s92.15,-2.63 138.63,-5.38c44.33,-2.62 88.8,-5.37 133.8,-10.75c15.82,0 28.65,-15.91 28.65,-35.54l0,-6.86c0,-19.63 -12.83,-35.54 -28.68,-35.54z" class="cls-4"/>
  <path id="svg_159" fill="#f59e0b" d="m951.55,2164.78l-30.24,0c-53.92,9.39 -105.27,14.09 -159.19,18.79c-43.68,3.8 -90.8,4.69 -133.52,4.7s-89.84,-0.9 -133.52,-4.7c-53.92,-4.7 -105.27,-9.4 -159.19,-18.79l-30.23,0c-18.76,0 -34,27.81 -34,62.12l0,12c0,34.31 15.2,62.12 34,62.12c53.34,9.39 106.06,14.2 158.61,18.78c55.09,4.81 107.84,9.4 164.33,9.4s109.24,-4.59 164.33,-9.4c52.56,-4.58 105.28,-9.39 158.62,-18.78c18.75,0 34,-27.81 34,-62.12l0,-12c-0.04,-34.31 -15.25,-62.12 -34,-62.12z" class="cls-3"/>
  <ellipse id="svg_160" fill="#f59e0b" ry="164.68" rx="164.92" cy="1348.52" cx="632.57" class="cls-3"/>
  <path id="svg_161" stroke-width="3px" stroke-miterlimit="10" stroke="#231f20" fill="none" d="m550.87,1256.73c6.58,-7.45 19.09,-11.81 31.65,-11.06c14.19,0.85 22,7.83 23.13,8.88" class="cls-6"/>
  <path id="svg_162" stroke-width="3px" stroke-miterlimit="10" stroke="#231f20" fill="none" d="m652.3,1227.91c6.57,-7.45 19.09,-11.8 31.64,-11.06c14.19,0.85 22,7.83 23.13,8.88" class="cls-6"/>
  <path id="svg_163" fill="#0d9488" d="m811.8,1499.89a0.2,0.2 0 0 1 0,0.07c-0.07,-0.72 -0.75,-5.58 -0.76,-5.66c-1.45,-14.09 -11.1,-27.85 -25,-32.18a17,17 0 0 0 -11.37,0.49c-12.06,4.87 -70.1,8.57 -139.88,8.57c-1.76,0 -3.51,0 -5.25,0l-0.84,0c-1.74,0 -3.49,0 -5.25,0c-69.81,0 -127.87,-3.7 -139.9,-8.58a16.84,16.84 0 0 0 -11.33,-0.48c-13.87,4.32 -23.53,18.09 -25,32.18c0,0.08 -0.69,4.94 -0.76,5.66a0.2,0.2 0 0 1 0,-0.07l-6.22,43.58c0,13 6.38,18.67 19.27,21.42a12.54,12.54 0 0 1 3.41,1.23c5.23,1.74 67.08,9.58 150.9,9.58q7.74,0 15.27,0t15.27,0c80.33,0 134.87,-4 142.35,-7.4a26.1,26.1 0 0 1 4,-1.34l6.19,-1.71c9.73,-0.87 21.07,-8.15 21.07,-21.78l-6.17,-43.58z" class="cls-7"/>
  <path id="svg_164" stroke-width="2px" stroke-miterlimit="10" stroke="#231f20" fill="none" d="m460.12,1565a373.55,373.55 0 0 1 25.42,-101.75" class="cls-14"/>
  <path id="svg_165" stroke-width="2px" stroke-miterlimit="10" stroke="#231f20" fill="none" d="m448,1560.46a374.27,374.27 0 0 1 24.39,-98.37" class="cls-14"/>
  <path id="svg_166" stroke-width="2px" stroke-miterlimit="10" stroke="#231f20" fill="none" d="m478.66,1568.56c2.36,-15.24 5.24,-31.18 8.76,-47.73c4.14,-19.37 8.74,-37.65 13.61,-54.79" class="cls-14"/>
  <path id="svg_167" stroke-width="2px" stroke-miterlimit="10" stroke="#231f20" fill="none" d="m573.27,1575.09a1025.45,1025.45 0 0 1 10.4,-104.33" class="cls-14"/>
  <path id="svg_168" stroke-width="2px" stroke-miterlimit="10" stroke="#231f20" fill="none" d="m532.26,1573.23q3,-24.43 7.5,-50.66c3.17,-18.41 6.7,-36 10.48,-52.87" class="cls-14"/>
  <path id="svg_169" stroke-width="2px" stroke-miterlimit="10" stroke="#231f20" fill="none" d="m499.18,1570.7c2.06,-16.53 5,-34.42 9.18,-53.36c3.9,-17.77 8.39,-34.25 13.1,-49.33" class="cls-14"/>
  <path id="svg_170" stroke-width="2px" stroke-miterlimit="10" stroke="#231f20" fill="none" d="m772.05,1463.27a373.55,373.55 0 0 1 25.42,101.73" class="cls-14"/>
  <path id="svg_171" stroke-width="2px" stroke-miterlimit="10" stroke="#231f20" fill="none" d="m785.19,1462.09a374.27,374.27 0 0 1 24.39,98.37" class="cls-14"/>
  <path id="svg_172" stroke-width="2px" stroke-miterlimit="10" stroke="#231f20" fill="none" d="m756.56,1466c4.87,17.14 9.47,35.42 13.61,54.79c3.52,16.55 6.4,32.49 8.76,47.73" class="cls-14"/>
  <path id="svg_173" stroke-width="2px" stroke-miterlimit="10" stroke="#231f20" fill="none" d="m630.22,1575.7q-2.13,-52.26 -4.26,-104.52" class="cls-14"/>
  <path id="svg_174" stroke-width="2px" stroke-miterlimit="10" stroke="#231f20" fill="none" d="m673.92,1470.76a1025.45,1025.45 0 0 1 10.4,104.33" class="cls-14"/>
  <path id="svg_175" stroke-width="2px" stroke-miterlimit="10" stroke="#231f20" fill="none" d="m707.35,1469.7c3.78,16.83 7.31,34.46 10.48,52.87q4.5,26.21 7.5,50.66" class="cls-14"/>
  <path id="svg_176" stroke-width="2px" stroke-miterlimit="10" stroke="#231f20" fill="none" d="m736.13,1468c4.71,15.08 9.2,31.56 13.1,49.33c4.17,18.94 7.12,36.83 9.18,53.36" class="cls-14"/>
  <path id="svg_177" stroke-width="8px" stroke-linecap="round" stroke-miterlimit="10" stroke="#231f20" fill="none" d="m463.53,1807.26l145.13,59.2" class="cls-9"/>
  <path id="svg_178" stroke-width="8px" stroke-linecap="round" stroke-miterlimit="10" stroke="#231f20" fill="none" d="m803.61,1807.26l-137.23,59.2" class="cls-9"/>
  <ellipse id="svg_179" transform="rotate(-2.02 -45.21 20.17)" fill="#fff" ry="42.28" rx="33.94" cy="1343.58" cx="533.22" class="cls-1"/>
  <ellipse id="svg_180" transform="rotate(-2.39 -53.33 24.85)" fill="#212121" ry="14.87" rx="14.76" cy="1338.84" cx="538.66" class="cls-5"/>
  <ellipse id="svg_181" transform="rotate(-2.02 -44.83 23.87)" fill="#fff" ry="53.45" rx="42.9" cy="1338.3" cx="638.8" class="cls-1"/>
  <ellipse id="svg_182" transform="rotate(-2.39 -53.23 29.61)" fill="#212121" ry="14.87" rx="14.76" cy="1343.6" cx="652.62" class="cls-5"/>
  <path id="svg_183" fill="#0d9488" d="m833,1244.87c5.69,-7.86 6.31,-17.11 1.38,-20.66s-13.52,0 -19.21,7.81s-6.47,23.11 -3.84,24.87c2.29,1.54 15.95,-4.15 21.67,-12.02z" class="cls-7"/>
  <path id="svg_184" fill="#0d9488" d="m840.58,1313.09c11.15,1 20.7,-3.85 21.32,-10.81s-7.92,-13.41 -19.08,-14.4s-26.76,7.22 -26.94,10.87c-0.17,3.19 13.54,13.36 24.7,14.34z" class="cls-7"/>
  <path id="svg_185" fill="#0d9488" d="m444.66,1235.71c-4.92,-8.59 -4.55,-18 0.83,-21.12s13.72,1.41 18.65,10s4.07,24.14 1.2,25.64c-2.51,1.32 -15.76,-5.93 -20.68,-14.52z" class="cls-7"/>
  <path id="svg_186" fill="#0d9488" d="m429.57,1304.11c-11.43,-0.2 -20.59,-6.15 -20.46,-13.28s9.48,-12.75 20.91,-12.55s26.36,10.21 26.16,13.93c-0.18,3.26 -15.18,12.09 -26.61,11.9z" class="cls-7"/>
  <path id="svg_187" fill="#231f20" d="m629.26,1894l-16.26,-4.14c-6.42,-1.63 -10.07,-7.39 -8.16,-12.88l9,-25.88c1.9,-5.49 8.65,-8.61 15.06,-7l16.25,4.13c6.42,1.64 10.07,7.4 8.16,12.88l-9,25.89c-1.9,5.5 -8.64,8.62 -15.05,7z" class="cls-10"/>
  <path id="svg_188" fill="#fff" d="m580.32,1438.86c0,-29.88 20.74,-54.11 46.32,-54.11s46.36,24.25 46.36,54.11l0,0.24l-92.68,0l0,-0.24z" class="cls-1"/>
  <path id="svg_189" fill="#0d9488" d="m675.46,1931.7c9,6.53 15.88,12.49 22,14.17c8.83,11.91 19.77,17.71 25.77,21c26.71,14.77 53.37,11.25 75.05,8.39c14.76,-2 40.31,-5.62 64.12,-23.12c12.91,-9.49 21.68,-18.92 25.67,-30.14c3.49,-9.81 3.49,-9.81 4.67,-19.34c0.42,-3.43 3.11,-4.06 5.07,-6.49c6.66,-8.23 8.64,-17.21 10,-23.52c2.9,-13.12 -0.11,-19.46 -0.65,-33.94c-0.26,-7 -0.48,-30.44 9.95,-52.84c9.79,-21 22.56,-27.41 19.45,-32.89c-3.55,-6.25 -24.1,-4.92 -35.74,5.56c-2.22,2 -3.85,4.35 -7.11,9.08c-7.29,10.58 -7.83,12.69 -14.37,26.4c-3.2,6.7 -5.85,10.67 -7.55,15c-2.76,7 -2.5,7.5 -3.78,7.5c-0.83,0 -1,-0.43 -1.3,-1c-6,-11 -8.06,-14.22 -15.72,-22.7a131.64,131.64 0 0 0 -19,-21.13c-4.11,-3.62 -7.07,-4 -10.11,-5.8c-4.25,-2.52 -9.74,-4.75 -18.36,-6c-28.18,-4 -56.85,5.8 -56.85,5.8c-22.52,7.66 -29.82,16.66 -31.72,19.15a47.27,47.27 0 0 0 -5.81,10.09l-1.82,4.09c-2.8,0.51 -7,1.37 -13.81,2.53c-21.41,3.62 -21.64,2.24 -28.8,4.7c-6,2.07 -17.61,6.06 -26.07,17.28c-9.14,12.12 -9.22,25.51 -9.18,30.45c0.12,13.43 5.19,22.41 14.1,38.16c7.89,13.98 15.69,27.79 31.9,39.56zm11.73,-76.52c-2.73,14 -6,31.57 -2.89,53.53c-0.37,-0.08 -0.74,-0.14 -1.12,-0.25c-4.75,-1.32 -7.84,-3.83 -14,-8.84c-7.72,-6.25 -18.95,-15.37 -23.81,-31.1c-1.5,-4.88 -3.9,-12.65 -1.54,-22.1c3.75,-15 16.52,-22.38 18.27,-23.36c12.45,-6.92 26.1,-4.8 35.58,-1.67a170.74,170.74 0 0 0 -10.49,33.79z" class="cls-7"/>
  <ellipse id="svg_190" transform="rotate(-8.59 -255.46 134.15)" fill="#ffd64b" ry="14.78" rx="53.64" cy="1908.67999" cx="515.85999" class="cls-4"/>
  <ellipse id="svg_191" fill="#231f20" ry="19.73" rx="19.76" cy="1750.55" cx="766.91" class="cls-10"/>
  <path id="svg_192" fill="#231f20" d="m661.58,1890.9l-16.19,4.84c-6.4,1.9 -13.11,-0.94 -15,-6.36l-9,-25.61c-1.89,-5.42 1.76,-11.36 8.15,-13.26l16.2,-4.84c6.39,-1.9 13.1,0.94 15,6.36l9,25.61c1.88,5.42 -1.74,11.36 -8.16,13.26z" class="cls-10"/>
  <path id="svg_193" fill="#f59e0b" d="m4672.28,2387.34c-10.27,-66.44 -5.15,-96.74 20.89,-168.3c-25,1.31 -44.51,4.05 -70.47,4.05c-27,0 -51.58,1.24 -78.58,1.25s-51.56,-1.25 -78.58,-1.25c-26,0 -45.44,-2.74 -70.47,-4.05c28.51,77.35 40,105.57 16,172.2c-29.95,83.11 -90.49,200.06 -101.36,283c39.51,2.48 94,9.3 133.52,10.53c31.86,1 69.73,4.79 100.92,4.79s69.06,-3.78 100.92,-4.79c39.53,-1.23 94,-8.05 133.52,-10.53c-10.9,-82.94 -92.83,-199.73 -106.31,-286.9z" class="cls-3"/>
  <path id="svg_194" fill="#ffd64b" d="m4688.65,2181.18c-24.57,1.3 -48.84,2 -73.24,2c-23.45,0 -46.8,0.81 -70.25,0.81l-0.53,0c-23.45,0 -46.8,-0.81 -70.24,-0.81c-24.41,0 -48.68,-0.66 -73.24,-2c-6.66,1.47 -11.51,23.28 -11.51,28.65c0,6.55 7.24,11.86 16.17,11.86l3.06,0.18c8.41,0.48 16.88,0.89 25.34,1.22c18,0.7 36.17,1.06 54.2,1.06q3,0 6,0l0.22,0c16.67,0.13 33.33,0.77 50,0.77l0.53,0c16.68,0 33.34,-0.64 50,-0.77l0.22,0c2,0 4,0 6,0c18,0 36.16,-0.36 54.2,-1.06c8.46,-0.33 16.93,-0.74 25.34,-1.22l3.06,-0.18c8.94,0 16.18,-5.31 16.18,-11.86c0,-5.37 -4.86,-27.18 -11.51,-28.65z" class="cls-4"/>
  <path id="svg_195" fill="#ffd64b" d="m4786.45,2657.76l-22.7,0c-40.48,4.78 -79,7.18 -119.51,9.57c-32.79,1.94 -68.17,2.39 -100.24,2.39s-67.44,-0.45 -100.23,-2.39c-40.48,-2.39 -79,-4.79 -119.52,-9.57l-22.69,0c-14.08,0 -25.5,14.16 -25.5,31.63l0,6.1c0,17.47 11.42,31.64 25.5,31.64c40,4.78 79.62,7.23 119.08,9.56c41.35,2.45 81,4.79 123.36,4.79s82,-2.34 123.37,-4.79c39.46,-2.33 79,-4.78 119.08,-9.56c14.08,0 25.49,-14.17 25.49,-31.64l0,-6.1c0,-17.47 -11.41,-31.63 -25.49,-31.63z" class="cls-4"/>
  <path id="svg_196" fill="#f59e0b" d="m4831.4,2716.11l-26.9,0c-48,8.36 -93.69,12.54 -141.67,16.72c-38.83,3.38 -80.83,4.17 -118.83,4.17s-79.95,-0.8 -118.82,-4.18c-48,-4.18 -93.69,-8.36 -141.67,-16.72l-26.91,0c-16.69,0 -30.22,24.75 -30.22,55.28l0,10.62c0,30.53 13.53,55.28 30.22,55.28c47.47,8.36 94.39,12.64 141.16,16.72c49,4.28 96,8.36 146.24,8.36s97.22,-4.08 146.25,-8.36c46.77,-4.08 93.68,-8.36 141.15,-16.72c16.69,0 30.22,-24.75 30.22,-55.28l0,-10.65c0,-30.49 -13.53,-55.24 -30.22,-55.24z" class="cls-3"/>
  <ellipse id="svg_197" fill="#f59e0b" ry="146.55" rx="146.77" cy="1989.69" cx="4547.53" class="cls-3"/>
  <path id="svg_198" fill="#0d9488" d="m4707,2124.4a0.08,0.08 0 0 1 0,0.06c-0.06,-0.64 -0.67,-5 -0.68,-5c-1.29,-12.53 -9.88,-24.78 -22.21,-28.63a15,15 0 0 0 -10.12,0.43c-10.73,4.33 -62.39,7.63 -124.49,7.63l-4.67,0l-0.74,0l-4.68,0c-62.12,0 -113.8,-3.3 -124.5,-7.64a15,15 0 0 0 -10.08,-0.43c-12.35,3.85 -20.94,16.1 -22.23,28.64c0,0.08 -0.62,4.4 -0.68,5a0.15,0.15 0 0 1 0,-0.06l-5.54,38.78c0,11.6 5.68,16.62 17.16,19.06a11.16,11.16 0 0 1 3,1.1c4.66,1.55 59.7,8.52 134.3,8.52q6.89,0 13.59,0t13.58,0c71.5,0 120,-3.55 126.69,-6.58a24.17,24.17 0 0 1 3.54,-1.2l5.5,-1.52c8.66,-0.77 18.76,-7.25 18.76,-19.38l-5.5,-38.78z" class="cls-7"/>
  <path id="svg_199" stroke-width="2px" stroke-miterlimit="10" stroke="#231f20" fill="none" d="m4394.06,2182.36a332.82,332.82 0 0 1 22.62,-90.55" class="cls-14"/>
  <path id="svg_200" stroke-width="2px" stroke-miterlimit="10" stroke="#231f20" fill="none" d="m4383.29,2178.3a334,334 0 0 1 21.7,-87.55" class="cls-14"/>
  <path id="svg_201" stroke-width="2px" stroke-miterlimit="10" stroke="#231f20" fill="none" d="m4410.57,2185.51c2.09,-13.57 4.65,-27.75 7.79,-42.48c3.68,-17.24 7.78,-33.5 12.11,-48.76" class="cls-14"/>
  <path id="svg_202" stroke-width="2px" stroke-miterlimit="10" stroke="#231f20" fill="none" d="m4494.76,2191.32a911.16,911.16 0 0 1 9.26,-92.85" class="cls-14"/>
  <path id="svg_203" stroke-width="2px" stroke-miterlimit="10" stroke="#231f20" fill="none" d="m4458.26,2189.66q2.7,-21.73 6.68,-45.08q4.23,-24.59 9.33,-47" class="cls-14"/>
  <path id="svg_204" stroke-width="2px" stroke-miterlimit="10" stroke="#231f20" fill="none" d="m4428.82,2187.42c1.84,-14.72 4.46,-30.64 8.17,-47.49c3.48,-15.81 7.47,-30.48 11.66,-43.91" class="cls-14"/>
  <path id="svg_205" stroke-width="2px" stroke-miterlimit="10" stroke="#231f20" fill="none" d="m4671.67,2091.81a333.8,333.8 0 0 1 22.62,90.55" class="cls-14"/>
  <path id="svg_206" stroke-width="2px" stroke-miterlimit="10" stroke="#231f20" fill="none" d="m4683.36,2090.75a334,334 0 0 1 21.7,87.55" class="cls-14"/>
  <path id="svg_207" stroke-width="2px" stroke-miterlimit="10" stroke="#231f20" fill="none" d="m4657.88,2094.27c4.33,15.26 8.43,31.52 12.11,48.76q4.69,22.09 7.79,42.48" class="cls-14"/>
  <path id="svg_208" stroke-width="2px" stroke-miterlimit="10" stroke="#231f20" fill="none" d="m4545.44,2191.86q-1.89,-46.5 -3.79,-93" class="cls-14"/>
  <path id="svg_209" stroke-width="2px" stroke-miterlimit="10" stroke="#231f20" fill="none" d="m4584.33,2098.47a914,914 0 0 1 9.26,92.85" class="cls-14"/>
  <path id="svg_210" stroke-width="2px" stroke-miterlimit="10" stroke="#231f20" fill="none" d="m4614.08,2097.53q5.06,22.45 9.33,47q4,23.33 6.68,45.08" class="cls-14"/>
  <path id="svg_211" stroke-width="2px" stroke-miterlimit="10" stroke="#231f20" fill="none" d="m4639.7,2096c4.19,13.43 8.18,28.1 11.66,43.91c3.71,16.85 6.33,32.77 8.16,47.49" class="cls-14"/>
  <path id="svg_212" stroke-width="8px" stroke-linecap="round" stroke-miterlimit="10" stroke="#231f20" fill="none" d="m4686.23,2229.3c-12.58,56.13 -20.5,118.85 -35,166.45l0,0c-2.52,11.4 -9.15,27.39 -26.11,25.74c-74.34,-7.26 -101.92,-16.62 -160.09,-31.12" class="cls-9"/>
  <path id="svg_213" fill="#231f20" d="m4462.1,2413.3l-15.55,-1.91c-5.86,-0.93 -10.15,-5.8 -9.58,-10.88l2.71,-24c0.57,-5.08 5.46,-8.24 11.32,-7.31l15.19,2.16c5.86,0.93 10.15,5.8 9.58,10.87l-2.7,24c-0.58,5.08 -5.07,8 -10.97,7.07z" class="cls-10"/>
  <path id="svg_214" stroke-width="8px" stroke-linecap="round" stroke-miterlimit="10" stroke="#231f20" fill="none" d="m4397.3,2229.3c13.68,52.81 22.39,113.2 37.78,158.06l0,0c2.75,10.72 9.67,25.84 26.47,24.65c73.65,-5.21 100.85,-13.39 158.29,-25.72" class="cls-9"/>
  <path id="svg_215" fill="#231f20" d="m4621.42,2413.3l15.55,-1.91c5.86,-0.93 10.15,-5.8 9.58,-10.88l-2.7,-24c-0.58,-5.08 -5.46,-8.24 -11.32,-7.31l-15.2,2.16c-5.86,0.93 -10.15,5.8 -9.58,10.87l2.71,24c0.54,5.08 5.1,8 10.96,7.07z" class="cls-10"/>
  <path id="svg_216" stroke-width="3px" stroke-miterlimit="10" stroke="#231f20" fill="none" d="m4629.17,1919.78c-6,-1.26 -16.33,-5.53 -26.18,-10.79c-11.13,-6 -16.57,-10.46 -17.36,-11.13" class="cls-6"/>
  <path id="svg_217" stroke-width="3px" stroke-miterlimit="10" stroke="#231f20" fill="none" d="m4474.09,1919.78c6,-1.26 16.33,-5.53 26.18,-10.79c11.14,-6 16.58,-10.46 17.36,-11.13" class="cls-6"/>
  <ellipse id="svg_218" transform="rotate(-0.89 -28.98 69.54)" fill="#fff" ry="37.08" rx="29.76" cy="2026.81" cx="4478.29" class="cls-1"/>
  <ellipse id="svg_219" transform="rotate(-0.89 -28.95 70.85)" fill="#fff" ry="37.08" rx="29.76" cy="2026.65" cx="4561.98" class="cls-1"/>
  <ellipse id="svg_220" transform="rotate(-0.78 -25.61 60.92)" fill="#212121" ry="17.53" rx="17.75" cy="2036.29" cx="4486.02" class="cls-5"/>
  <ellipse id="svg_221" transform="rotate(-0.78 -25.58 62.1)" fill="#212121" ry="17.53" rx="17.75" cy="2036" cx="4572.64" class="cls-5"/>
  <path id="svg_222" stroke-width="3px" stroke-miterlimit="10" stroke="#231f20" fill="none" d="m4502.82,2062.23c6.94,-7.77 14,-12 21.25,-11.79c10.07,0.33 12.91,9.17 23.61,9.44c9.94,0.24 12.49,-7.27 23.62,-9.44c6,-1.17 15.33,-0.94 28.34,7.08" class="cls-6"/>
  <polygon id="svg_223" points="1.69 1556.97 16.07 1556.97 1.69 1573.97 1.69 1556.97"/>
  <path id="svg_226" stroke-width="8px" stroke-linecap="round" stroke-miterlimit="10" stroke="#231f20" fill="none" d="m4185.36,1690.39c45.73,26.54 121.53,81.72 141.68,98.76l0,0c9.1,6.16 13.37,9.76 9,21.41c-13.19,35.24 -86.19,87.43 -109.55,117" class="cls-9"/>
  <path id="svg_227" stroke-width="8px" stroke-linecap="round" stroke-miterlimit="10" stroke="#231f20" fill="none" d="m3932.39,1682c-19.41,49.13 -41.43,121.28 -55.27,143.73l0,0c-4.73,9.92 -7.65,14.67 -19.84,12.11c-36.87,-7.73 -99.51,-72 -132.28,-90.58" class="cls-9"/>
  <path id="svg_228" fill="#f59e0b" d="m4182.83,1831.34c-9.81,-63.43 -4.92,-92.36 19.94,-160.68c-23.9,1.25 -42.5,3.87 -67.29,3.87c-25.79,0 -49.24,1.18 -75,1.19s-49.23,-1.19 -75,-1.19c-24.78,0 -43.39,-2.62 -67.28,-3.87c27.22,73.85 38.17,100.8 15.24,164.41c-28.59,79.35 -86.4,191 -96.77,270.18c37.72,2.36 89.74,8.87 127.48,10.06c30.42,1 66.57,4.57 96.35,4.57s65.94,-3.61 96.36,-4.57c37.74,-1.19 89.75,-7.7 127.48,-10.06c-10.42,-79.17 -88.64,-190.67 -101.51,-273.91z" class="cls-3"/>
  <path id="svg_229" fill="#ffd64b" d="m4198.45,1634.52c-23.45,1.23 -46.63,1.86 -69.93,1.86c-22.38,0 -44.67,0.78 -67.06,0.78l-0.46,0c-22.39,0 -44.68,-0.78 -67.07,-0.78c-23.3,0 -46.47,-0.63 -69.92,-1.86c-6.36,1.4 -11,22.22 -11,27.35c0,6.25 6.91,11.32 15.44,11.32l2.93,0.17c8,0.46 16.11,0.85 24.19,1.16c17.22,0.68 34.53,1 51.75,1c1.9,0 3.81,0 5.71,0l0.22,0c15.91,0.13 31.82,0.74 47.74,0.74l0.51,0c15.92,0 31.83,-0.61 47.74,-0.74l0.22,0c1.9,0 3.81,0 5.71,0c17.22,0 34.53,-0.34 51.75,-1c8.08,-0.31 16.16,-0.7 24.19,-1.16l2.92,-0.17c8.54,0 15.45,-5.07 15.45,-11.32c-0.04,-5.13 -4.67,-25.95 -11.03,-27.35z" class="cls-4"/>
  <path id="svg_230" fill="#ffd64b" d="m4291.83,2089.53l-21.67,0c-38.65,4.57 -75.46,6.85 -114.11,9.14c-31.3,1.85 -65.08,2.28 -95.7,2.28s-64.39,-0.43 -95.7,-2.28c-38.65,-2.29 -75.46,-4.57 -114.11,-9.14l-21.67,0c-13.44,0 -24.34,13.53 -24.34,30.21l0,5.82c0,16.68 10.9,30.2 24.34,30.2c38.24,4.57 76,6.91 113.69,9.13c39.49,2.34 77.3,4.57 117.79,4.57s78.3,-2.23 117.79,-4.57c37.67,-2.22 75.45,-4.56 113.69,-9.13c13.44,0 24.34,-13.52 24.34,-30.2l0,-5.82c0,-16.68 -10.9,-30.21 -24.34,-30.21z" class="cls-4"/>
  <path id="svg_231" fill="#f59e0b" d="m4334.75,2145.24l-25.69,0c-45.81,8 -89.45,12 -135.26,16c-37.11,3.23 -77.15,4 -113.45,4s-76.34,-0.76 -113.45,-4c-45.81,-4 -89.44,-8 -135.26,-16l-25.64,0c-15.93,0 -28.85,23.63 -28.85,52.78l0,10.17c0,29.15 12.92,52.78 28.85,52.78c45.33,8 90.12,12.07 134.77,16c46.81,4.09 91.63,8 139.63,8s92.82,-3.89 139.63,-8c44.65,-3.89 89.45,-8 134.77,-16c15.93,0 28.85,-23.63 28.85,-52.78l0,-10.19c-0.05,-29.13 -12.97,-52.76 -28.9,-52.76z" class="cls-3"/>
  <polygon id="svg_232" fill="#0d9488" points="4059.13 2121.06 4194.32 1961.43 4208.72 1974.32 4120.44 2109.37 4059.13 2121.06" class="cls-7"/>
  <polygon id="svg_233" fill="#0d9488" points="4059.13 2121.06 4194.32 1961.43 4179.92 1948.53 4061.95 2057.01 4059.13 2121.06" class="cls-7"/>
  <polygon id="svg_234" fill="#ffd64b" points="4205.86 1972.35 4182.31 1951.27 4235.2 1888.78 4258.76 1909.86 4205.86 1972.35" class="cls-4"/>
  <path id="svg_235" fill="#ffd64b" d="m4184.91,1977.69l-6,-5.4c-7.66,-6.86 -9,-18.19 -3,-25.31l0,0c2.43,-2.87 6.89,-3 10,-0.2l22.65,20.27c3.08,2.76 3.61,7.3 1.19,10.17l0,0c-6.06,7.12 -17.17,7.34 -24.84,0.47z" class="cls-4"/>
  <path id="svg_236" fill="#ffd64b" d="m4263.14,1913.78l-32.34,-28.94c-4.36,-3.9 -5.11,-10.35 -1.68,-14.4l1.57,-1.86c3.44,-4.06 9.76,-4.18 14.13,-0.27l32.34,28.93c4.36,3.91 5.11,10.36 1.68,14.41l-1.57,1.85c-3.44,4.06 -9.76,4.19 -14.13,0.28z" class="cls-4"/>
  <ellipse id="svg_237" fill="#f59e0b" ry="139.92" rx="140.13" cy="1451.69" cx="4063.72" class="cls-3"/>
  <path id="svg_238" fill="#0d9488" d="m4216,1580.3a0.15,0.15 0 0 1 0,0.06c-0.06,-0.61 -0.64,-4.74 -0.65,-4.81c-1.23,-12 -9.43,-23.66 -21.21,-27.34a14.35,14.35 0 0 0 -9.65,0.41c-10.25,4.14 -59.57,7.29 -118.86,7.29l-4.46,0l-0.71,0l-4.46,0c-59.32,0 -108.65,-3.15 -118.87,-7.29a14.29,14.29 0 0 0 -9.63,-0.41c-11.78,3.67 -20,15.37 -21.22,27.34c0,0.07 -0.59,4.2 -0.65,4.81a0.15,0.15 0 0 1 0,-0.06l-5.29,37c0,11.07 5.42,15.86 16.38,18.2a10.85,10.85 0 0 1 2.89,1c4.45,1.48 57,8.15 128.22,8.15q6.57,0 13,0t13,0c68.26,0 114.6,-3.4 121,-6.29a22,22 0 0 1 3.38,-1.14l5.25,-1.46c8.27,-0.74 17.91,-6.92 17.91,-18.5l-5.37,-36.96z" class="cls-7"/>
  <path id="svg_239" stroke-width="2px" stroke-miterlimit="10" stroke="#231f20" fill="none" d="m3917.19,1635.64a318.19,318.19 0 0 1 21.6,-86.45" class="cls-14"/>
  <path id="svg_240" stroke-width="2px" stroke-miterlimit="10" stroke="#231f20" fill="none" d="m3906.91,1631.76a317.89,317.89 0 0 1 20.72,-83.58" class="cls-14"/>
  <path id="svg_241" stroke-width="2px" stroke-miterlimit="10" stroke="#231f20" fill="none" d="m3933,1638.65c2,-13 4.45,-26.5 7.44,-40.56c3.52,-16.46 7.43,-32 11.57,-46.55" class="cls-14"/>
  <path id="svg_242" stroke-width="2px" stroke-miterlimit="10" stroke="#231f20" fill="none" d="m4013.34,1644.2a871.9,871.9 0 0 1 8.83,-88.65" class="cls-14"/>
  <path id="svg_243" stroke-width="2px" stroke-miterlimit="10" stroke="#231f20" fill="none" d="m3978.49,1642.61q2.58,-20.76 6.37,-43c2.7,-15.65 5.7,-30.62 8.91,-44.92" class="cls-14"/>
  <path id="svg_244" stroke-width="2px" stroke-miterlimit="10" stroke="#231f20" fill="none" d="m3950.38,1640.47c1.75,-14 4.26,-29.25 7.8,-45.34c3.32,-15.1 7.13,-29.1 11.13,-41.92" class="cls-14"/>
  <path id="svg_245" stroke-width="2px" stroke-miterlimit="10" stroke="#231f20" fill="none" d="m4182.24,1549.19a318.19,318.19 0 0 1 21.6,86.45" class="cls-14"/>
  <path id="svg_246" stroke-width="2px" stroke-miterlimit="10" stroke="#231f20" fill="none" d="m4193.4,1548.18a317.89,317.89 0 0 1 20.72,83.58" class="cls-14"/>
  <path id="svg_247" stroke-width="2px" stroke-miterlimit="10" stroke="#231f20" fill="none" d="m4169.07,1551.54c4.14,14.56 8.05,30.09 11.57,46.55c3,14.06 5.44,27.61 7.44,40.56" class="cls-14"/>
  <path id="svg_248" stroke-width="2px" stroke-miterlimit="10" stroke="#231f20" fill="none" d="m4061.72,1644.72q-1.8,-44.42 -3.61,-88.81" class="cls-14"/>
  <path id="svg_249" stroke-width="2px" stroke-miterlimit="10" stroke="#231f20" fill="none" d="m4098.86,1555.55a871.9,871.9 0 0 1 8.83,88.65" class="cls-14"/>
  <path id="svg_250" stroke-width="2px" stroke-miterlimit="10" stroke="#231f20" fill="none" d="m4127.26,1554.65c3.21,14.3 6.21,29.27 8.91,44.92q3.83,22.28 6.37,43" class="cls-14"/>
  <path id="svg_251" stroke-width="2px" stroke-miterlimit="10" stroke="#231f20" fill="none" d="m4151.72,1553.21c4,12.82 7.81,26.82 11.13,41.92c3.54,16.09 6,31.29 7.8,45.34" class="cls-14"/>
  <ellipse id="svg_252" transform="rotate(-2.02 -46.98 141.24)" fill="#fff" ry="35.4" rx="28.41" cy="1575.32001" cx="3969.73" class="cls-1"/>
  <ellipse id="svg_253" transform="rotate(-1.96 -46.11 137.07)" fill="#212121" ry="22.44" rx="23.95" cy="1584.78001" cx="3970.8" class="cls-5"/>
  <ellipse id="svg_254" transform="rotate(-2.02 -46.92 144.44)" fill="#fff" ry="35.4" rx="28.41" cy="1578.52" cx="4060.87" class="cls-1"/>
  <ellipse id="svg_255" transform="rotate(-1.96 -46.06 140.13)" fill="#212121" ry="22.44" rx="23.95" cy="1587.84" cx="4060.53" class="cls-5"/>
  <path id="svg_256" stroke-linecap="round" stroke-width="3px" stroke-miterlimit="10" stroke="#231f20" fill="none" d="m4003,1373.87c6.42,-0.35 16.08,2.84 26,6.65c11.25,4.31 16.42,9.94 17.33,10.24" class="cls-15"/>
  <path id="svg_257" stroke-linecap="round" stroke-width="3px" stroke-miterlimit="10" stroke="#231f20" fill="none" d="m4126.21,1373.87c-6.42,-0.35 -16.08,2.84 -26,6.65c-11.25,4.31 -16.42,9.94 -17.33,10.24" class="cls-15"/>
  <path id="svg_258" fill="#231f20" d="m4201.83,1923.29l11.28,-8.69c4.46,-3.43 10.23,-2.84 12.9,1.3l12.62,19.59c2.67,4.14 1.23,10.28 -3.23,13.71l-11.28,8.69c-4.45,3.43 -10.23,2.84 -12.9,-1.3l-12.62,-19.59c-2.67,-4.14 -1.22,-10.28 3.23,-13.71z" class="cls-10"/>
  <path id="svg_259" fill="#231f20" d="m3725.51,1722.27l10.3,9.84c4.06,3.88 4.35,9.67 0.65,12.93l-17.5,15.39c-3.71,3.26 -10,2.76 -14.06,-1.12l-10.3,-9.84c-4.06,-3.88 -4.35,-9.67 -0.65,-12.93l17.5,-15.39c3.7,-3.26 10,-2.76 14.06,1.12z" class="cls-10"/>
  <path id="svg_260" fill="#fff" d="m4024.93,1527.93c0,-25.39 17.62,-46 39.36,-46s39.37,20.58 39.37,46a1.48,1.48 0 0 1 0,0.21l-78.72,0l-0.01,-0.21z" class="cls-1"/>
  <line id="svg_261" stroke-width="8px" stroke-linecap="round" stroke-miterlimit="10" stroke="#231f20" fill="none" y2="1888.78" x2="4267.7" y1="1930.99" x1="4220.53" class="cls-9"/>
  <path id="svg_262" stroke-width="8px" stroke-linecap="round" stroke-miterlimit="10" stroke="#231f20" fill="none" d="m4576.12,1257c-20.85,30.66 -36.36,62.93 -57.21,93.58l0,0c-4.26,6.81 0.36,15.57 12,21.1c39,18.54 32.4,16.35 70.86,31.71" class="cls-9"/>
  <path id="svg_263" stroke-width="8px" stroke-linecap="round" stroke-miterlimit="10" stroke="#231f20" fill="none" d="m4777.06,1257c20.85,30.66 36.36,62.93 57.21,93.58l0,0c4.27,6.81 0.85,22.16 -12,21.1c-54.61,-4.5 -84.28,-7.79 -128.23,-13.28" class="cls-9"/>
  <path id="svg_264" fill="#f59e0b" d="m4851.2,1633.27c-8.14,-68.47 -59.88,-159.74 -69.85,-231.84c-7.69,-55.67 -4.39,-76.23 5.91,-144c-18.73,1.08 -33.33,3.34 -52.76,3.34c-20.22,0 -38.62,1 -58.83,1l-0.11,0c-20.21,0 -38.6,-1 -58.82,-1c-19.44,0 -34,-2.26 -52.77,-3.34c10.31,67.77 13.61,88.33 5.91,144c-10,72.1 -61.71,163.37 -69.84,231.84c29.58,2 70.37,7.67 100,8.7c23.59,0.81 51.56,3.87 74.76,3.94l1.71,0c23.2,-0.07 51.17,-3.13 74.76,-3.94c29.55,-1.03 70.34,-6.66 99.93,-8.7z" class="cls-3"/>
  <path id="svg_265" fill="#ffd64b" d="m4783.78,1230.18c-18.39,1 -36.57,1.46 -54.84,1.46c-17.55,0 -35,0.61 -52.59,0.61l-0.4,0c-17.56,0 -35,-0.61 -52.59,-0.61c-18.28,0 -36.45,-0.49 -54.84,-1.46c-5,1.1 -8.62,17.43 -8.62,21.45c0,4.9 5.42,8.88 12.12,8.88l2.29,0.13c6.29,0.36 12.63,0.67 19,0.92c13.5,0.52 27.08,0.79 40.58,0.79l4.48,0l0.17,0c12.48,0.1 24.95,0.58 37.44,0.58l0.4,0c12.48,0 25,-0.48 37.44,-0.58l0.17,0l4.48,0c13.5,0 27.08,-0.27 40.58,-0.79q9.51,-0.37 19,-0.92l2.29,-0.13c6.7,0 12.12,-4 12.12,-8.88c-0.06,-4.02 -3.7,-20.35 -8.68,-21.45z" class="cls-4"/>
  <path id="svg_266" fill="#ffd64b" d="m4855.91,1622.12l-17,0c-30.31,3.58 -59.17,5.37 -89.48,7.16c-24.55,1.45 -51,1.79 -75.05,1.79s-50.5,-0.34 -75.05,-1.79c-30.31,-1.79 -59.17,-3.58 -89.48,-7.16l-17,0c-10.55,0 -19.09,10.6 -19.09,23.68l0,4.57c0,13.08 8.54,23.69 19.09,23.69c30,3.58 59.61,5.41 89.15,7.16c31,1.83 60.62,3.58 92.37,3.58s61.4,-1.75 92.37,-3.58c29.54,-1.75 59.17,-3.58 89.16,-7.16c10.54,0 19.08,-10.61 19.08,-23.69l0,-4.57c0.02,-13.08 -8.53,-23.68 -19.07,-23.68z" class="cls-4"/>
  <path id="svg_267" fill="#f59e0b" d="m4889.57,1665.81l-20.15,0c-35.93,6.25 -70.15,9.38 -106.07,12.51c-29.11,2.54 -60.51,3.13 -89,3.13s-59.86,-0.59 -89,-3.13c-35.93,-3.13 -70.15,-6.26 -106.08,-12.51l-20.07,0c-12.5,0 -22.63,18.53 -22.63,41.38l0,8c0,22.86 10.13,41.39 22.63,41.39c35.54,6.26 70.67,9.46 105.69,12.52c36.7,3.2 71.85,6.26 109.49,6.26s72.79,-3.06 109.5,-6.26c35,-3.06 70.14,-6.26 105.69,-12.52c12.49,0 22.62,-18.53 22.62,-41.39l0,-8c0,-22.85 -10.13,-41.38 -22.62,-41.38z" class="cls-3"/>
  <path id="svg_268" fill="#0d9488" d="m4796.45,1194.25a0.08,0.08 0 0 1 0,0c-0.05,-0.47 -0.5,-3.71 -0.51,-3.77c-1,-9.38 -7.4,-18.55 -16.63,-21.44a11.35,11.35 0 0 0 -7.58,0.33c-8,3.24 -46.71,5.71 -93.2,5.71l-7.53,0c-46.51,0 -85.2,-2.47 -93.22,-5.72a11.25,11.25 0 0 0 -7.55,-0.32c-9.24,2.88 -15.67,12.05 -16.64,21.44c0,0.06 -0.46,3.3 -0.51,3.77a0.08,0.08 0 0 1 0,0l-4.15,29c0,8.68 4.26,12.44 12.85,14.27a8.34,8.34 0 0 1 2.27,0.82c3.48,1.16 44.69,6.38 100.55,6.38q5.15,0 10.17,0t10.17,0c53.53,0 89.87,-2.66 94.85,-4.93a18.75,18.75 0 0 1 2.65,-0.89l4.12,-1.14c6.49,-0.58 14.05,-5.43 14.05,-14.51l-4.16,-29z" class="cls-7"/>
  <path id="svg_269" stroke-width="2px" stroke-linecap="round" stroke-miterlimit="10" stroke="#231f20" fill="none" d="m4562.12,1237.65a248.71,248.71 0 0 1 16.93,-67.8" class="cls-8"/>
  <path id="svg_270" stroke-width="2px" stroke-linecap="round" stroke-miterlimit="10" stroke="#231f20" fill="none" d="m4554.05,1234.61a250.07,250.07 0 0 1 6.5,-35.7a247.1,247.1 0 0 1 9.75,-29.85" class="cls-8"/>
  <path id="svg_271" stroke-width="2px" stroke-linecap="round" stroke-miterlimit="10" stroke="#231f20" fill="none" d="m4574.47,1240c1.57,-10.15 3.49,-20.77 5.84,-31.8c2.75,-12.91 5.82,-25.08 9.07,-36.51" class="cls-8"/>
  <path id="svg_272" stroke-width="2px" stroke-linecap="round" stroke-miterlimit="10" stroke="#231f20" fill="none" d="m4637.51,1244.36a686.61,686.61 0 0 1 6.93,-69.52" class="cls-8"/>
  <path id="svg_273" stroke-width="2px" stroke-linecap="round" stroke-miterlimit="10" stroke="#231f20" fill="none" d="m4610.18,1243.11q2,-16.27 5,-33.75q3.18,-18.4 7,-35.23" class="cls-8"/>
  <path id="svg_274" stroke-width="2px" stroke-linecap="round" stroke-miterlimit="10" stroke="#231f20" fill="none" d="m4588.14,1241.43c1.38,-11 3.34,-22.93 6.12,-35.55c2.6,-11.84 5.59,-22.82 8.73,-32.87" class="cls-8"/>
  <path id="svg_275" stroke-width="2px" stroke-linecap="round" stroke-miterlimit="10" stroke="#231f20" fill="none" d="m4770,1169.85a249.68,249.68 0 0 1 16.93,67.8" class="cls-8"/>
  <path id="svg_276" stroke-width="2px" stroke-linecap="round" stroke-miterlimit="10" stroke="#231f20" fill="none" d="m4778.72,1169.06a247.1,247.1 0 0 1 9.75,29.85a250.07,250.07 0 0 1 6.5,35.7" class="cls-8"/>
  <path id="svg_277" stroke-width="2px" stroke-linecap="round" stroke-miterlimit="10" stroke="#231f20" fill="none" d="m4759.64,1171.69c3.25,11.43 6.31,23.6 9.07,36.51c2.35,11 4.27,21.65 5.84,31.8" class="cls-8"/>
  <path id="svg_278" stroke-width="2px" stroke-linecap="round" stroke-miterlimit="10" stroke="#231f20" fill="none" d="m4675.46,1244.76q-1.41,-34.82 -2.84,-69.64" class="cls-8"/>
  <path id="svg_279" stroke-width="2px" stroke-linecap="round" stroke-miterlimit="10" stroke="#231f20" fill="none" d="m4704.58,1174.84a683.67,683.67 0 0 1 6.92,69.52" class="cls-8"/>
  <path id="svg_280" stroke-width="2px" stroke-linecap="round" stroke-miterlimit="10" stroke="#231f20" fill="none" d="m4726.85,1174.13q3.78,16.81 7,35.23q3,17.46 5,33.75" class="cls-8"/>
  <path id="svg_281" stroke-width="2px" stroke-linecap="round" stroke-miterlimit="10" stroke="#231f20" fill="none" d="m4746,1173c3.14,10 6.13,21 8.73,32.87c2.78,12.62 4.74,24.54 6.11,35.55" class="cls-8"/>
  <path id="svg_282" fill="#f59e0b" d="m4799,1005.06l-38.41,0c-2.6,0 -4.7,4 -4.7,8.83l0,19.11c0,4.87 -2.1,8.82 -4.69,8.82l-31.38,0c-2.6,0 -4.7,-4 -4.7,-8.82l0,-19.09c0,-4.88 -2.1,-8.83 -4.69,-8.83l-71.35,0c-2.59,0 -4.7,4 -4.7,8.83l0,19.09c0,4.87 -2.1,8.82 -4.69,8.82l-31.39,0c-2.59,0 -4.69,-4 -4.69,-8.82l0,-19.09c0,-4.88 -2.11,-8.83 -4.7,-8.83l-38.41,0c-3.35,0 -6.06,5.1 -6.06,11.38l0,110.04c0,10.86 2.35,20.7 6.13,27.81c6,11.26 13.52,13.15 14.92,13.15c2.17,0.33 4.23,1.2 6.39,1.5c17.61,2.38 35,5.77 52.5,5.77c16.81,0 33.55,1.51 50.36,1.51s33.55,-1.51 50.36,-1.51c17.5,0 36,-2.19 52.47,-5.08a24.3,24.3 0 0 0 6.59,-2.19c1.1,0 8.76,-1.89 14.75,-13.15c3.79,-7.11 6.13,-17 6.13,-27.81l0,-110.06c-0.04,-6.28 -2.71,-11.38 -6.04,-11.38z" class="cls-3"/>
  <ellipse id="svg_283" stroke-width="3px" stroke-miterlimit="10" stroke="#231f20" fill="none" ry="44.99" rx="45.05" cy="1098.88" cx="4627.57" class="cls-6"/>
  <ellipse id="svg_284" stroke-width="3px" stroke-miterlimit="10" stroke="#231f20" fill="none" ry="44.99" rx="45.05" cy="1098.88" cx="4724.28" class="cls-6"/>
  <path id="svg_285" stroke-width="3px" stroke-miterlimit="10" stroke="#231f20" fill="none" d="m4672.07,1091.8a7,7 0 0 1 4.45,-1.15a6.25,6.25 0 0 1 3.25,0.91" class="cls-6"/>
  <rect id="svg_286" fill="#231f20" rx="3.98" height="21.95" width="13.19" y="1080.77" x="4569.88" class="cls-10"/>
  <rect id="svg_287" fill="#231f20" rx="3.98" height="21.95" width="13.19" y="1080.77" x="4767.68" class="cls-10"/>
  <rect id="svg_288" transform="rotate(-90 3700.21 5883.7)" fill="#231f20" rx="1.86" height="30.77" width="5.24" y="6961.0602" x="8489.54996" class="cls-10"/>
  <rect id="svg_289" transform="rotate(-90 3463.4 5646.89)" fill="#231f20" rx="1.86" height="31.87" width="5.24" y="6723.70014" x="8015.9299" class="cls-10"/>
  <ellipse id="svg_290" transform="rotate(-0.89 -15.65 71.54)" fill="#fff" ry="27.76" rx="22.28" cy="1174.92" cx="4626.59" class="cls-1"/>
  <ellipse id="svg_291" transform="rotate(-0.87 -15.34 69.42)" fill="#212121" ry="17.6" rx="18.78" cy="1183.49" cx="4626.85" class="cls-5"/>
  <ellipse id="svg_292" transform="rotate(-0.89 -15.64 72.57)" fill="#fff" ry="27.76" rx="22.28" cy="1175.95" cx="4692.53" class="cls-1"/>
  <ellipse id="svg_293" transform="rotate(-0.87 -15.33 70.42)" fill="#212121" ry="17.6" rx="18.78" cy="1184.49" cx="4692.79" class="cls-5"/>
  <path id="svg_294" stroke-width="3px" stroke-miterlimit="10" stroke="#231f20" fill="none" d="m4694.78,1050.15c4.23,-3.37 12.47,-5.64 20.84,-5.77c9.46,-0.14 14.79,2.52 15.56,2.92" class="cls-6"/>
  <path id="svg_295" stroke-width="3px" stroke-miterlimit="10" stroke="#231f20" fill="none" d="m4655.33,1050.15c-4.23,-3.27 -12.48,-5.48 -20.84,-5.62c-9.46,-0.16 -14.79,2.41 -15.56,2.8" class="cls-6"/>
  <rect id="svg_296" fill="#0d9488" rx="15.37" height="162.12" width="180.09" y="1266.21" x="4587.65" class="cls-7"/>
  <rect id="svg_297" fill="#ffd64b" rx="3.09" height="160.74" width="17.32" y="1266.21" x="4669.61" class="cls-4"/>
  <path id="svg_298" fill="#231f20" d="m4683.39,1373.25l-11.64,-1.43c-4.39,-0.7 -7.6,-4.34 -7.18,-8.15l2,-18c0.43,-3.8 4.08,-6.17 8.47,-5.47l11.38,1.61c4.39,0.7 7.6,4.34 7.17,8.14l-2,18c-0.42,3.81 -3.81,6.05 -8.2,5.3z" class="cls-10"/>
  <path id="svg_299" stroke-width="8px" stroke-linecap="round" stroke-miterlimit="10" stroke="#231f20" fill="none" d="m4788.16,1368.69l-100.3,-10.69" class="cls-9"/>
  <path id="svg_300" fill="#fff" d="m4706.43,1143.44c0,17.08 -12.43,30.92 -27.76,30.92s-27.76,-13.84 -27.76,-30.92a0.66,0.66 0 0 1 0,-0.14l55.5,0a0.66,0.66 0 0 1 0.02,0.14z" class="cls-1"/>
  <path id="svg_301" stroke-width="8px" stroke-linecap="round" stroke-miterlimit="10" stroke="#231f20" fill="none" d="m4555.55,1383.05c30.77,15.36 61.54,28.89 95.6,42.79" class="cls-9"/>
  <path id="svg_302" fill="#231f20" d="m4662.68,1446.4l-10.83,-2.75c-4.27,-1.09 -6.7,-4.93 -5.43,-8.58l6,-17.25c1.27,-3.66 5.77,-5.74 10,-4.65l10.83,2.75c4.27,1.09 6.7,4.93 5.43,8.58l-6,17.25c-1.23,3.65 -5.68,5.73 -10,4.65z" class="cls-10"/>
  <rect id="svg_303" fill="#ffd64b" rx="6.15" height="34.38" width="264.96" y="1856.68" x="4679.92" class="cls-4"/>
  <rect id="svg_304" fill="#ffd64b" rx="6.15" height="47.83" width="238.01" y="1789.42" x="4693.39" class="cls-4"/>
  <rect id="svg_305" fill="#ffd64b" rx="6.15" height="38.83" width="263.23" y="1696.76" x="4680.78" class="cls-4"/>
  <rect id="svg_306" fill="#0d9488" rx="5.07" height="19.43" width="217.06" y="1837.25" x="4703.87" class="cls-7"/>
  <rect id="svg_307" fill="#0d9488" rx="5.07" height="54.42" width="217.06" y="1735.12" x="4703.87" class="cls-7"/>
  <rect id="svg_308" fill="#0d9488" rx="5.07" height="54.42" width="159.38" y="1643.05" x="4732.71" class="cls-7"/>
  <path id="svg_309" fill="#0d9488" d="m2170,1471.75c14.87,-38.11 54.59,-69.87 62.88,-76.5a192.16,192.16 0 0 1 31.41,-20.76a179.46,179.46 0 0 1 63.49,-18.86c65.35,-7.94 292.57,-50.51 373.74,-11.73c5.94,2.83 53.63,39.17 55.21,40.31c31.22,22.48 28.22,81.44 30.57,108.8c9.37,109.15 -17.59,279.78 -17.59,279.78c-6.06,49.84 -26.2,215.64 48.47,369.09c37.35,76.74 185.12,174.07 256.73,317.69c5.61,11.26 16.8,34.34 16.27,64.74c-1.53,87.23 -160,176.4 -182.34,190.79c-99.44,63.91 -207.68,59.32 -316.87,51.11c-391.42,-29.42 -327.52,10.37 -375.93,-21.31c-25.35,-16.59 -102,1.09 -20.44,-231.64c119.95,-342.2 -11.65,-522.33 -7.39,-637.19c6,-160.57 5.11,-204.4 -5.63,-260.59c-3.96,-20.84 -29.35,-100.68 -12.58,-143.73z" class="cls-7"/>
  <path id="svg_310" stroke-width="8px" stroke-linecap="round" stroke-miterlimit="10" stroke="#231f20" fill="none" d="m2262.19,1466.1c-20.72,69.37 -31.72,140.92 -52.44,210.29l0,0c-4,15.32 8,32 30,41.7l205.49,90.91" class="cls-9"/>
  <path id="svg_311" stroke-width="8px" stroke-linecap="round" stroke-miterlimit="10" stroke="#231f20" fill="none" d="m2654,1466.1c20.72,69.37 31.72,140.92 52.45,210.29l0,0c4,15.32 -8,32 -30,41.7c-72.11,31.89 -133.4,59 -205.52,90.88" class="cls-9"/>
  <path id="svg_312" fill="#f59e0b" d="m2640.3,1873.36c-32.72,-176.35 6.46,-251 21.69,-443.18c-34.46,3.45 -61.29,10.66 -97,10.66c-37.19,0 -71,3.26 -108.19,3.28s-71,-3.28 -108.19,-3.28c-35.74,0 -62.57,-7.21 -97,-10.66c12.7,203.39 40.17,268.64 7.1,444.1c-41.23,218.84 -109.71,536.18 -124.68,754.55c54.41,6.52 129.42,24.48 183.85,27.74c43.87,2.66 96,12.61 139,12.61s95.09,-9.95 139,-12.61c54.42,-3.26 129.44,-21.22 183.84,-27.74c-15.12,-218.37 -98.78,-536.52 -139.42,-755.47z" class="cls-3"/>
  <path id="svg_313" fill="#ffd64b" d="m2655.21,1377.93c-33.74,2 -67.08,3.09 -100.6,3.09c-32.21,0 -64.28,1.28 -96.5,1.28l-0.72,0c-32.22,0 -64.3,-1.28 -96.5,-1.28c-33.52,0 -66.86,-1 -100.6,-3.09c-9.15,2.32 -15.81,36.71 -15.81,45.18c0,10.33 9.94,18.71 22.22,18.71l4.2,0.27c11.55,0.76 23.18,1.4 34.81,1.92c24.77,1.12 49.68,1.68 74.45,1.68c2.74,0 5.49,0 8.22,0l0.31,0c22.89,0.22 45.79,1.22 68.7,1.22l0.72,0c22.91,0 45.8,-1 68.7,-1.22l0.3,0c2.74,0 5.49,0 8.23,0c24.77,0 49.67,-0.56 74.45,-1.68q17.45,-0.78 34.81,-1.92l4.2,-0.27c12.28,0 22.22,-8.38 22.22,-18.71c-0.02,-8.47 -6.66,-42.86 -15.81,-45.18z" class="cls-4"/>
  <path id="svg_314" stroke-width="8px" stroke-linecap="round" stroke-miterlimit="10" stroke="#231f20" fill="none" d="m2268,1730.6c43.35,21 126.84,61.36 173.54,84" class="cls-9"/>
  <path id="svg_315" stroke-width="8px" stroke-linecap="round" stroke-miterlimit="10" stroke="#231f20" fill="none" d="m2643,1732.47c-43.35,21 -126.83,61.35 -173.53,84" class="cls-9"/>
  <path id="svg_316" fill="#ffd64b" d="m2759.26,2623.2l-28.86,0c-51.47,6.09 -100.48,9.14 -152,12.18c-41.68,2.47 -86.66,3 -127.43,3s-85.76,-0.58 -127.44,-3c-51.47,-3 -100.48,-6.09 -151.95,-12.18l-28.85,0c-17.91,0 -32.42,18 -32.42,40.28l0,7.77c0,22.24 14.51,40.27 32.42,40.27c50.91,6.09 101.23,9.21 151.39,12.18c52.58,3.12 102.93,6.1 156.85,6.1s104.26,-3 156.84,-6.1c50.17,-3 100.48,-6.09 151.4,-12.18c17.9,0 32.41,-18 32.41,-40.27l0,-7.77c0.05,-22.24 -14.46,-40.28 -32.36,-40.28z" class="cls-4"/>
  <path id="svg_317" fill="#f59e0b" d="m2816.41,2697.49l-34.21,0c-61,10.65 -119.11,16 -180.12,21.29c-49.41,4.31 -102.73,5.32 -151.06,5.32s-101.66,-1 -151.07,-5.32c-61,-5.32 -119.11,-10.64 -180.12,-21.29l-34.21,0c-21.22,0 -38.42,31.52 -38.42,70.39l0,13.57c0,38.87 17.2,70.38 38.42,70.38c60.35,10.64 120,16.09 179.46,21.29c62.34,5.45 122,10.64 185.94,10.64s123.59,-5.19 185.93,-10.64c59.46,-5.2 119.11,-10.65 179.46,-21.29c21.22,0 38.42,-31.51 38.42,-70.38l0,-13.57c0,-38.88 -17.2,-70.39 -38.42,-70.39z" class="cls-3"/>
  <path id="svg_318" stroke-miterlimit="10" stroke="#231f20" fill="none" d="m2458.3,1873.35" class="cls-16"/>
  <path id="svg_319" stroke-miterlimit="10" stroke="#231f20" fill="none" d="m2329.55,1873.35" class="cls-16"/>
  <line id="svg_320" stroke="#1ab900" stroke-miterlimit="10" fill="none" y2="944.75" x2="2450.84" y1="920.62" x1="2450.84" class="cls-17"/>
  <path id="svg_321" fill="#f59e0b" d="m2500.87,851.75l-23.87,0a17.68,17.68 0 0 0 5.41,-12.44c0,-11.21 -11.57,-20.31 -25.84,-20.31s-25.84,9.1 -25.84,20.31a17.68,17.68 0 0 0 5.41,12.44l-24.45,0l0,42.44l28.83,0l0,41.24l32.1,0l0,-41.24l28.29,0l-0.04,-42.44z" class="cls-3"/>
  <path id="svg_322" fill="#f59e0b" d="m2637.07,991.66c-18.83,-27 -54.2,-44.07 -80,-44.07l-100.61,-5.68l-100.61,5.68c-25.82,0 -61.2,17.1 -80,44.07c-12.55,18 -15.38,42.15 -7.77,63.3l86.52,240.46l203.77,0l86.47,-240.42c7.61,-21.19 4.79,-45.35 -7.77,-63.34z" class="cls-3"/>
  <ellipse id="svg_323" fill="#f59e0b" ry="35.76" rx="62.09" cy="948.01" cx="2455.93" class="cls-3"/>
  <path id="svg_324" fill="#0d9488" d="m2640.51,1320.85a0.15,0.15 0 0 1 0,0.08c-0.07,-0.81 -0.75,-6.32 -0.77,-6.42c-1.45,-16 -11.14,-31.57 -25,-36.48a15.24,15.24 0 0 0 -11.41,0.55c-12.1,5.53 -70.34,9.72 -140.36,9.72c-1.77,0 -3.52,0 -5.27,0l-0.84,0c-1.76,0 -3.51,0 -5.27,0c-70.06,0 -128.32,-4.2 -140.39,-9.72a15.09,15.09 0 0 0 -11.37,-0.55c-13.92,4.9 -23.61,20.51 -25.06,36.48c0,0.1 -0.7,5.61 -0.77,6.42a0.15,0.15 0 0 1 0,-0.08l-6.25,49.42c0,14.77 6.4,21.16 19.34,24.28a11.81,11.81 0 0 1 3.42,1.4c5.25,2 67.31,10.86 151.43,10.86q7.76,0 15.32,-0.06t15.31,0.06c80.62,0 135.35,-4.54 142.85,-8.39a24.43,24.43 0 0 1 4,-1.52l6.21,-1.94c9.77,-1 21.14,-9.25 21.14,-24.69l-6.26,-49.42z" class="cls-7"/>
  <path id="svg_325" stroke-width="2px" stroke-miterlimit="10" stroke="#231f20" fill="none" d="m2287.62,1394.7a478.1,478.1 0 0 1 9.89,-62a465.12,465.12 0 0 1 15.61,-53.41" class="cls-14"/>
  <path id="svg_326" stroke-width="2px" stroke-miterlimit="10" stroke="#231f20" fill="none" d="m2275.47,1389.53a475.12,475.12 0 0 1 9.78,-60.74a463.17,463.17 0 0 1 14.69,-50.8" class="cls-14"/>
  <path id="svg_327" stroke-width="2px" stroke-miterlimit="10" stroke="#231f20" fill="none" d="m2306.23,1398.71c2.36,-17.28 5.25,-35.35 8.78,-54.12c4.15,-22 8.78,-42.68 13.66,-62.12" class="cls-14"/>
  <path id="svg_328" stroke-width="2px" stroke-miterlimit="10" stroke="#231f20" fill="none" d="m2401.16,1406.12c1.65,-38.4 5,-77.88 10.44,-118.29" class="cls-14"/>
  <path id="svg_329" stroke-width="2px" stroke-miterlimit="10" stroke="#231f20" fill="none" d="m2360,1404q3,-27.69 7.52,-57.43q4.78,-31.32 10.53,-60" class="cls-14"/>
  <path id="svg_330" stroke-width="2px" stroke-miterlimit="10" stroke="#231f20" fill="none" d="m2326.81,1401.14c2.07,-18.74 5,-39 9.21,-60.5c3.92,-20.14 8.42,-38.83 13.15,-55.93" class="cls-14"/>
  <path id="svg_331" stroke-width="2px" stroke-miterlimit="10" stroke="#231f20" fill="none" d="m2600.63,1279.33a465,465 0 0 1 15.62,53.41a478.1,478.1 0 0 1 9.89,62" class="cls-14"/>
  <path id="svg_332" stroke-width="2px" stroke-miterlimit="10" stroke="#231f20" fill="none" d="m2613.82,1278a463.17,463.17 0 0 1 14.69,50.8a475.12,475.12 0 0 1 9.78,60.74" class="cls-14"/>
  <path id="svg_333" stroke-width="2px" stroke-miterlimit="10" stroke="#231f20" fill="none" d="m2585.09,1282.47c4.88,19.44 9.5,40.16 13.65,62.12c3.54,18.77 6.43,36.84 8.79,54.12" class="cls-14"/>
  <path id="svg_334" stroke-width="2px" stroke-miterlimit="10" stroke="#231f20" fill="none" d="m2458.31,1406.81q-2.13,-59.25 -4.28,-118.51" class="cls-14"/>
  <path id="svg_335" stroke-width="2px" stroke-miterlimit="10" stroke="#231f20" fill="none" d="m2502.16,1287.83c5.43,40.41 8.79,79.89 10.43,118.29" class="cls-14"/>
  <path id="svg_336" stroke-width="2px" stroke-miterlimit="10" stroke="#231f20" fill="none" d="m2535.7,1286.62q5.7,28.62 10.52,60q4.53,29.72 7.53,57.43" class="cls-14"/>
  <path id="svg_337" stroke-width="2px" stroke-miterlimit="10" stroke="#231f20" fill="none" d="m2564.59,1284.71c4.73,17.1 9.22,35.79 13.15,55.93c4.18,21.47 7.14,41.76 9.2,60.5" class="cls-14"/>
  <path id="svg_338" stroke-width="3px" stroke-miterlimit="10" stroke="#231f20" fill="none" d="m2416.34,1011.64c-10,-5.36 -25,-5 -38,0.78c-14.68,6.58 -20.11,17.2 -20.89,18.77" class="cls-6"/>
  <path id="svg_339" stroke-width="3px" stroke-miterlimit="10" stroke="#231f20" fill="none" d="m2499.54,1011.64c10.34,-6.34 25.56,-6.58 38.51,-0.65c14.63,6.7 19.72,18.25 20.44,20" class="cls-6"/>
  <ellipse id="svg_340" transform="rotate(-0.89 -15.47 36.32)" fill="#fff" ry="47.21" rx="37.84" cy="1117.99" cx="2385.39" class="cls-1"/>
  <ellipse id="svg_341" transform="rotate(-0.89 -15.43 37.97)" fill="#fff" ry="47.21" rx="37.84" cy="1117.78" cx="2491.79" class="cls-1"/>
  <ellipse id="svg_342" transform="rotate(-0.89 -15.86 36.33)" fill="#212121" ry="22.32" rx="22.57" cy="1142.91" cx="2384.94" class="cls-5"/>
  <ellipse id="svg_343" transform="rotate(-0.89 -15.84 37.97)" fill="#212121" ry="22.32" rx="22.57" cy="1144.55" cx="2491.32" class="cls-5"/>
  <circle id="svg_344" fill="#231f20" r="11.31" cy="1540.82" cx="2466.21" class="cls-10"/>
  <rect id="svg_345" transform="rotate(0.08 4.2 -4.47)" fill="#0d9488" rx="6.25" height="1286.58" width="25.19" y="1624.39" x="2455.49" class="cls-7"/>
  <circle id="svg_346" fill="#ffd64b" r="63.44" cy="1612" cx="2465.35" class="cls-4"/>
  <path id="svg_347" fill="#0d9488" d="m2465.25,1662.26c20.79,0.19 41.21,-8.88 41.12,2.21c-0.1,10.38 -18.5,18.64 -41.11,18.44s-40.87,-8.78 -40.78,-19.16s18.16,-1.69 40.77,-1.49z" class="cls-7"/>
  <ellipse id="svg_348" transform="rotate(-88.8 692.44 4145.13)" fill="#0d9488" ry="24.26" rx="18.66" cy="5865.16988" cx="3155.02" class="cls-7"/>
  <rect id="svg_349" transform="rotate(16.56 620.29 -624.83)" fill="#231f20" rx="7.35" height="63.17" width="46.6" y="1158.85998" x="3049.41998" class="cls-10"/>
  <rect id="svg_350" transform="rotate(163.44 5353.98 2846.61)" fill="#231f20" rx="7.35" height="63.17" width="46.6" y="4628.43011" x="7799.91998" class="cls-10"/>
  <path id="svg_351" fill="#fff" d="m2510.55,1182.22c0,26.68 -23.47,48.3 -52.42,48.3s-52.42,-21.62 -52.42,-48.3a1.48,1.48 0 0 1 0,-0.21l104.83,0l0.01,0.21z" class="cls-1"/>
 </g>
</svg>