<svg id="Слой_1" data-name="Слой 1" xmlns="http://www.w3.org/2000/svg" viewBox="0 0 1024 1024"><defs><style>.cls-1{fill:#0d9488;}.cls-2{fill:#f59e0b;}.cls-3{fill:#b1dfdb;}.cls-4{fill:#ffd64b;}.cls-5,.cls-7,.cls-8{fill:none;stroke:#231f20;stroke-miterlimit:10;}.cls-5,.cls-7{stroke-linecap:round;}.cls-5{stroke-width:8px;}.cls-6{fill:#231f20;}.cls-7{stroke-width:2px;}.cls-8{stroke-width:3px;}.cls-9{fill:#fff;}.cls-10{fill:#212121;}</style></defs><title>ROOK 3 b backpack</title><rect class="cls-1" x="471.16" y="145.13" width="185.3" height="144.07" rx="6.15" transform="translate(205.38 703.54) rotate(-74.68)"/><rect class="cls-2" x="450.68" y="131.32" width="111.89" height="123.25" rx="6.15" transform="translate(313.68 699.57) rotate(-90)"/><path class="cls-2" d="M699.27,427.13c.74-11.41-2.55-27.21-1.91-39.24.48-9.29,1.31-12.63,4-23.65-2-.1-3.56.06-5.6-.22s-4.06-.4-6.17-.7h0c-2.12-.3-4-.74-6.13-1S679.9,361.4,678,361c-.49,11.32-.63,14.76-2.73,23.82-2.71,11.73-10.25,26-12.69,37.18,3,.77,7.18,2.3,10.25,2.91,2.45.48,5.3,1.39,7.73,1.75h.1l.08,0h0c2.43.33,5.42.24,7.91.46C691.73,427.35,696.13,427,699.27,427.13Z"/><rect class="cls-3" x="654.2" y="421" width="52.8" height="60" rx="8.01" transform="translate(-22.93 36.67) rotate(-3.04)"/><path class="cls-4" d="M701.19,366.31c-4-.56-7.92-.71-11.91-1.27s-7.81-1.51-11.68-2.06a5.38,5.38,0,0,1-2.9-1.35,2.9,2.9,0,0,1-.94-2.43l1.12-7.91c.25-1.75,2.36-2.91,4.73-2.57l23.6,3.33c2.36.33,4.08,2,3.83,3.78l-1.12,7.91C705.67,365.5,703.56,366.65,701.19,366.31Z"/><path class="cls-1" d="M359,410h-9V298h9Z"/><polygon class="cls-2" points="358.64 298 350 298 355.18 284 355.18 284 358.64 298"/><path class="cls-1" d="M363,379.49l-11.34,2.37L328.83,272.21l4.84-1,6.5-1.35Z"/><rect class="cls-3" x="334" y="332" width="26" height="95" rx="8.01" transform="translate(28.03 -23.85) rotate(4.1)"/><path class="cls-3" d="M583.5,617h-153c-35.07,0-87.5-44.12-87.5-78.56l24-297.08c0-34.44,28.43-62.36,63.5-62.36,25.5-2,51.28-5,77.5-5,24.78,0,48,2,75.5,5a64.12,64.12,0,0,1,28.76,6.75A62.24,62.24,0,0,1,647,241.36l24,312.79C671,588.59,618.57,617,583.5,617Z"/><path class="cls-5" d="M426.47,443.52c-18.15,28.22-31.9,57.75-50.05,86h0c-3.72,6.26-.1,14,9.43,18.74,32,15.72,26.54,13.91,58.15,26.78"/><path class="cls-2" d="M671,784.52c-7.4-62.4-54.49-145.58-63.56-211.29-7-50.73-4-69.47,5.38-131.23-17.05,1-30.33,3-48,3-18.4,0-35.14.94-53.53.94h-.1c-18.39,0-35.13-.94-53.53-.94-17.69,0-31-2.06-48-3C419,503.76,422,522.5,415,573.23c-9.07,65.71-56.16,148.89-63.56,211.29,26.92,1.86,64,7,91,7.93,21.46.74,46.92,3.53,68,3.59H512c21.11-.06,46.57-2.85,68-3.59C607,791.51,644.08,786.38,671,784.52Z"/><path class="cls-4" d="M609.65,417.16c-16.74.89-33.28,1.34-49.9,1.34-16,0-31.89.55-47.87.55h-.36c-16,0-31.89-.55-47.86-.55-16.63,0-33.16-.45-49.9-1.34-4.54,1-7.84,15.89-7.84,19.55,0,4.47,4.93,8.1,11,8.1l2.08.12c5.73.33,11.5.6,17.27.83,12.29.48,24.64.72,36.93.72l4.08,0h.15c11.36.09,22.71.53,34.07.53h.36c11.37,0,22.72-.44,34.08-.53h.15l4.08,0c12.29,0,24.64-.24,36.93-.72,5.76-.23,11.53-.5,17.26-.83l2.09-.12c6.09,0,11-3.63,11-8.1C617.49,433.05,614.18,418.17,609.65,417.16Z"/><rect class="cls-4" x="438.67" y="521.71" width="126.03" height="88.7" rx="13.34" transform="translate(-176.83 900.32) rotate(-74.68)"/><path class="cls-5" d="M413,562c34.43,17.61,68.86,33.1,107,49"/><path class="cls-6" d="M530.49,629.74l-9.85-2.51c-3.89-1-6.11-4.49-4.95-7.82l5.46-15.72c1.16-3.33,5.25-5.23,9.14-4.24l9.85,2.51c3.89,1,6.11,4.49,5,7.82l-5.46,15.72C538.47,628.83,534.38,630.73,530.49,629.74Z"/><path class="cls-4" d="M675.29,774.36H659.82c-27.58,3.27-53.85,4.9-81.43,6.53-22.34,1.32-46.45,1.63-68.3,1.63s-45.95-.31-68.29-1.63c-27.58-1.63-53.85-3.26-81.43-6.53H344.9c-9.59,0-17.37,9.67-17.37,21.59v4.16c0,11.92,7.78,21.58,17.37,21.58,27.29,3.27,54.25,4.94,81.14,6.53,28.18,1.67,55.16,3.27,84,3.27s55.88-1.6,84.06-3.27C621,826.63,648,825,675.29,821.69c9.59,0,17.37-9.66,17.37-21.58V796C692.66,784,684.88,774.36,675.29,774.36Z"/><path class="cls-2" d="M705.92,814.18H687.58c-32.69,5.7-63.83,8.55-96.53,11.4-26.48,2.31-55,2.86-81,2.86s-54.47-.55-81-2.86c-32.69-2.85-63.83-5.7-96.53-11.4H314.27c-11.37,0-20.59,16.88-20.59,37.72v7.27c0,20.83,9.22,37.72,20.59,37.72,32.35,5.7,64.31,8.62,96.18,11.41,33.41,2.92,65.39,5.7,99.64,5.7s66.24-2.78,99.65-5.7c31.87-2.79,63.83-5.71,96.18-11.41,11.37,0,20.59-16.89,20.59-37.72V851.9C726.51,831.06,717.29,814.18,705.92,814.18Z"/><path class="cls-1" d="M621.18,384.42a.08.08,0,0,1,0,0c-.05-.44-.46-3.39-.47-3.44-.88-8.55-6.73-16.91-15.13-19.54a10.26,10.26,0,0,0-6.89.3c-7.32,3-42.51,5.2-84.82,5.2H507c-42.33,0-77.54-2.25-84.83-5.21a10.26,10.26,0,0,0-6.87-.29c-8.41,2.62-14.27,11-15.14,19.54,0,.05-.43,3-.47,3.44a.08.08,0,0,1,0,0l-3.77,26.46c0,7.92,3.87,11.34,11.68,13a7.34,7.34,0,0,1,2.07.75c3.17,1.05,40.67,5.81,91.5,5.81,3.13,0,6.21,0,9.26,0s6.13,0,9.26,0c48.71,0,81.78-2.42,86.31-4.49a17.1,17.1,0,0,1,2.41-.82l3.75-1c5.91-.53,12.78-4.95,12.78-13.23Z"/><path class="cls-7" d="M407.93,424a229.73,229.73,0,0,1,6-33.19,226.71,226.71,0,0,1,9.44-28.6"/><path class="cls-7" d="M400.59,421.2a227.4,227.4,0,0,1,14.79-59.74"/><path class="cls-7" d="M419.18,426.12c1.43-9.26,3.17-18.94,5.31-29,2.5-11.76,5.3-22.86,8.25-33.27"/><path class="cls-7" d="M476.54,430.08a625.23,625.23,0,0,1,6.31-63.35"/><path class="cls-7" d="M451.67,429q1.84-14.83,4.55-30.76,2.89-16.77,6.36-32.11"/><path class="cls-7" d="M431.62,427.42c1.25-10,3-20.91,5.56-32.4,2.37-10.79,5.09-20.8,7.95-30"/><path class="cls-7" d="M597.08,362.18A227.81,227.81,0,0,1,612.49,424"/><path class="cls-7" d="M605,361.46a227.4,227.4,0,0,1,14.79,59.74"/><path class="cls-7" d="M587.68,363.86c3,10.41,5.75,21.51,8.26,33.27,2.13,10.05,3.88,19.73,5.31,29"/><path class="cls-7" d="M511.07,430.45q-1.27-31.72-2.58-63.47"/><path class="cls-7" d="M537.57,366.73a625.23,625.23,0,0,1,6.31,63.35"/><path class="cls-7" d="M557.84,366.08q3.45,15.33,6.36,32.11,2.73,15.92,4.55,30.76"/><path class="cls-7" d="M575.3,365.06c2.85,9.16,5.57,19.17,7.94,30,2.53,11.49,4.32,22.36,5.57,32.4"/><path class="cls-2" d="M623.49,212h-35c-2.36,0-4.27,3.6-4.27,8v17.4c0,4.44-1.91,8-4.27,8H551.43c-2.36,0-4.27-3.6-4.27-8V220c0-4.44-1.91-8-4.27-8H478c-2.36,0-4.27,3.6-4.27,8v17.4c0,4.44-1.91,8-4.27,8H440.86c-2.36,0-4.27-3.6-4.27-8V220c0-4.44-1.92-8-4.27-8h-35c-3.05,0-5.51,4.64-5.51,10.37v100.3c0,9.9,2.13,18.86,5.58,25.35,5.45,10.26,12.3,12,13.57,12,2,.3,3.85,1.1,5.82,1.37,16,2.17,31.86,5.26,47.77,5.26,15.3,0,30.54,1.37,45.83,1.37s30.54-1.37,45.83-1.37c15.92,0,32.72-2,47.75-4.63a21.83,21.83,0,0,0,6-2c1,0,8-1.72,13.42-12,3.45-6.49,5.58-15.45,5.58-25.35V222.37C629,216.64,626.53,212,623.49,212Z"/><circle class="cls-8" cx="467.5" cy="297.5" r="41"/><circle class="cls-8" cx="555.5" cy="297.5" r="41"/><path class="cls-8" d="M508,291.05a6.4,6.4,0,0,1,4-1.05,5.8,5.8,0,0,1,3,.83"/><rect class="cls-6" x="415" y="281" width="12" height="20" rx="3.98"/><rect class="cls-6" x="595" y="281" width="12" height="20" rx="3.98"/><rect class="cls-6" x="615.61" y="277" width="4.77" height="28" rx="2.39" transform="translate(327 909) rotate(-90)"/><rect class="cls-6" x="400.11" y="276.5" width="4.77" height="29" rx="2.39" transform="translate(111.5 693.5) rotate(-90)"/><ellipse class="cls-9" cx="481.75" cy="300.69" rx="20.28" ry="25.3" transform="translate(-4.6 7.5) rotate(-0.89)"/><ellipse class="cls-10" cx="481.71" cy="310.43" rx="17.09" ry="16.04" transform="translate(-4.75 7.5) rotate(-0.89)"/><ellipse class="cls-9" cx="541.75" cy="300.69" rx="20.28" ry="25.3" transform="translate(-4.59 8.43) rotate(-0.89)"/><ellipse class="cls-10" cx="541.71" cy="310.43" rx="17.09" ry="16.04" transform="translate(-4.74 8.43) rotate(-0.89)"/><path class="cls-8" d="M528.66,253.09c3.85-3.07,11.35-5.14,19-5.26,8.61-.13,13.46,2.3,14.16,2.66"/><path class="cls-8" d="M492.76,253.09c-3.85-3-11.36-5-19-5.12-8.61-.14-13.45,2.2-14.16,2.55"/><path class="cls-9" d="M540,338.13c0,15.94-12.58,28.87-28.09,28.87s-28.09-12.93-28.09-28.87V338H540Z"/><path class="cls-1" d="M416,554H406a8.11,8.11,0,0,1-8-8.21l-8-109.55c0-4.53,11.59-10.24,16-10.24h10a8.11,8.11,0,0,1,8,8.21V545.79A8.11,8.11,0,0,1,416,554Z"/><path class="cls-3" d="M449,185.58c.66-.9,1.64-2.21,2.88-3.75,7.42-9.24,25.16-31.32,54.77-37.19a72.61,72.61,0,0,1,26.43-.75c30.67,5.06,52.54,31.22,47.08,37.94-1.64,2-6.08,2.68-9.12,1.87-6.3-1.66-5.07-9.15-10.57-16.9-8.87-12.49-28.24-15.83-30.27-16.15-2.55-.41-18.65-2.8-32.67,4.13-12.28,6.07-27.46,21.51-32.67,28.55a10.13,10.13,0,0,1-5.77,4.13C455.31,188.38,451.39,186.8,449,185.58Z"/><polygon class="cls-2" points="339.71 269.94 328.83 272.21 332.5 257.15 332.5 257.15 339.71 269.94"/><path class="cls-5" d="M603.34,457c17.56,28.41,31,58,48.6,86.45h0c3.62,6.29,1.65,19.89-8.36,18.38C601,555.35,532.38,539.88,498,533"/><path class="cls-6" d="M493.29,546.55l-10.59-1.3c-4-.64-6.92-4-6.53-7.43L478,521.46c.39-3.46,3.72-5.62,7.72-5L496.08,518c4,.63,6.91,3.95,6.52,7.42l-1.84,16.36C500.37,545.19,497.28,547.19,493.29,546.55Z"/><path class="cls-1" d="M616.79,554H607a8.11,8.11,0,0,1-8-8.21V434.21a8.11,8.11,0,0,1,8-8.21h9.78c4.42,0,15,4.68,15,9.22l-7,110.57A8.11,8.11,0,0,1,616.79,554Z"/></svg>