<?xml version="1.0" encoding="utf-8"?>
<!-- Generator: Adobe Illustrator 23.0.1, SVG Export Plug-In . SVG Version: 6.00 Build 0)  -->
<svg version="1.1" id="Слой_1" xmlns="http://www.w3.org/2000/svg" xmlns:xlink="http://www.w3.org/1999/xlink" x="0px" y="0px"
	 viewBox="0 0 1024 1024" style="enable-background:new 0 0 1024 1024;" xml:space="preserve">
<style type="text/css">
	.st0{fill:none;stroke:#231F20;stroke-width:8;stroke-linecap:round;stroke-miterlimit:10;}
	.st1{fill:#F59E0B;}
	.st2{fill:#FFD64B;}
	.st3{fill:#231F20;}
	.st4{fill:#0D9488;}
	.st5{fill:none;stroke:#231F20;stroke-width:2;stroke-linecap:round;stroke-miterlimit:10;}
	.st6{fill:#FFFFFF;}
	.st7{fill:#212121;}
	.st8{fill:none;stroke:#231F20;stroke-linecap:round;stroke-miterlimit:10;}
	.st9{fill:none;stroke:#231F20;stroke-width:5;stroke-miterlimit:10;}
	.st10{fill:none;stroke:#231F20;stroke-width:3;stroke-miterlimit:10;}
</style>
<g>
	<g>
		<path class="st0" d="M419.68,499.59c-18.97,27.94-33.09,57.35-52.07,85.29l0,0c-3.88,6.21,0.33,14.19,10.91,19.23
			C414,621,408,620,442,635"/>
		<path class="st0" d="M602.53,499.59c18.97,27.94,33.09,57.35,52.07,85.29l0,0c3.88,6.21,0.77,20.19-10.91,19.23
			C594,600,567,597,527,592"/>
	</g>
	<path class="st1" d="M599.5,612.85c-7-49.29-3.51-71.77,14.23-124.85c-17.05,0.97-30.33,3-48.02,3c-18.41,0-35.14,0.92-53.54,0.93
		c-18.4-0.01-35.13-0.93-53.54-0.93c-17.69,0-30.96-2.03-48.02-3c19.43,57.38,27.24,78.32,10.88,127.75
		c-20.41,61.65-61.66,148.42-69.06,209.93c26.92,1.84,64.04,6.9,90.98,7.81c21.71,0.75,47.51,3.55,68.76,3.55
		c21.25,0,47.05-2.8,68.76-3.55c26.93-0.92,64.05-5.98,90.98-7.81C664.51,764.16,608.68,677.52,599.5,612.85z"/>
	<g>
		<path class="st1" d="M614.48,344.64c0,15.19-3.86,29.55-10.74,42.22c-6.88,12.68-16.78,23.69-28.87,32.22c0,0-0.01,0.01-0.01,0.01
			c-0.84,0.44-2.16,1.14-2.99,1.59c-14.75,4.89-33.82,9.16-56.1,9.05c-27.25-0.14-49.92-6.77-66.24-13.43
			c-0.24-0.17-0.47-0.35-0.7-0.54c-21.64-17.12-35.37-42.63-35.37-71.12c0-43.98,73.05-131.91,94.59-156.88
			c3.12-3.61,8.71-3.61,11.83,0C541.42,212.74,614.48,300.66,614.48,344.64z"/>
	</g>
	<path class="st2" d="M611.65,463.16c-16.74,0.88-33.27,1.33-49.9,1.33c-15.97,0-31.88,0.55-47.86,0.55h-0.18h-0.18
		c-15.98,0-31.89-0.55-47.86-0.55c-16.63,0-33.17-0.45-49.9-1.33c-4.54,1-7.84,15.88-7.84,19.55c0,4.47,4.93,8.1,11.02,8.1
		c0.69,0.04,1.38,0.08,2.08,0.12c5.73,0.33,11.5,0.61,17.27,0.83c12.29,0.48,24.64,0.73,36.93,0.73c1.36,0,2.72,0.01,4.08,0.02
		c0.05,0,0.1,0,0.15,0.01c11.35,0.09,22.71,0.53,34.07,0.53h0.18h0.18c11.36,0,22.72-0.44,34.07-0.53c0.05-0.01,0.1-0.01,0.15-0.01
		c1.36-0.01,2.72-0.02,4.08-0.02c12.29,0,24.64-0.24,36.93-0.73c5.77-0.22,11.53-0.5,17.27-0.83c0.7-0.04,1.39-0.08,2.08-0.12
		c6.09,0,11.02-3.63,11.02-8.1C619.49,479.05,616.18,464.17,611.65,463.16z"/>
	<path class="st0" d="M405,617c28,14,56,26.33,87,39"/>
	<path class="st3" d="M500.49,674.74l-9.85-2.51c-3.89-0.99-6.1-4.49-4.95-7.82l5.46-15.72c1.16-3.33,5.25-5.22,9.13-4.23l9.85,2.51
		c3.89,0.99,6.1,4.49,4.95,7.82l-5.46,15.72C508.47,673.83,504.38,675.73,500.49,674.74z"/>
	<path class="st2" d="M677.29,820.36h-15.46c-27.58,3.26-53.85,4.9-81.43,6.53c-22.34,1.32-46.45,1.63-68.3,1.63
		c-21.85,0-45.96-0.31-68.3-1.63c-27.58-1.63-53.85-3.26-81.43-6.53H346.9c-9.59,0-17.37,9.66-17.37,21.59v4.16
		c0,11.92,7.78,21.59,17.37,21.59c27.29,3.26,54.25,4.94,81.13,6.53c28.18,1.67,55.16,3.26,84.06,3.26
		c28.89,0,55.88-1.59,84.06-3.26c26.88-1.59,53.85-3.26,81.13-6.53c9.59,0,17.37-9.66,17.37-21.59v-4.16
		C694.66,830.03,686.88,820.36,677.29,820.36z"/>
	<path class="st1" d="M707.92,860.18h-18.33c-32.7,5.7-63.83,8.56-96.53,11.41c-26.48,2.31-55.06,2.85-80.96,2.85
		c-25.9,0-54.48-0.54-80.96-2.85c-32.7-2.85-63.83-5.7-96.53-11.41h-18.33c-11.37,0-20.59,16.89-20.59,37.72v7.27
		c0,20.83,9.22,37.72,20.59,37.72c32.34,5.7,64.31,8.62,96.18,11.41c33.41,2.92,65.39,5.7,99.64,5.7c34.25,0,66.24-2.78,99.64-5.7
		c31.87-2.78,63.83-5.7,96.18-11.41c11.37,0,20.59-16.89,20.59-37.72v-7.27C728.51,877.06,719.29,860.18,707.92,860.18z"/>
	<path class="st4" d="M623.18,430.42c0.01,0.02,0.01,0.03,0.01,0.04c-0.04-0.43-0.45-3.39-0.47-3.44
		c-0.88-8.55-6.73-16.91-15.13-19.54c-2.26-0.71-4.7-0.59-6.89,0.3c-7.31,2.96-42.51,5.2-84.82,5.2c-1.07,0-2.13,0-3.18-0.01v0
		c-0.08,0-0.17,0-0.25,0c-0.08,0-0.17,0-0.25,0v0c-1.06,0.01-2.12,0.01-3.18,0.01c-42.33,0-77.54-2.25-84.83-5.21
		c-2.18-0.89-4.62-1-6.87-0.29c-8.41,2.63-14.27,10.98-15.14,19.54c-0.01,0.05-0.42,3-0.47,3.44c0-0.01,0-0.02,0.01-0.04
		l-3.78,26.47c0,7.91,3.87,11.33,11.69,13.01c0.72,0.15,1.42,0.4,2.06,0.75c3.17,1.06,40.67,5.82,91.51,5.82
		c3.13,0,6.21-0.01,9.26-0.03c3.05,0.02,6.13,0.03,9.26,0.03c48.71,0,81.78-2.43,86.32-4.49c0.77-0.35,1.59-0.59,2.41-0.82
		l3.75-1.04c5.9-0.53,12.78-4.95,12.78-13.22L623.18,430.42z"/>
	<g>
		<path class="st5" d="M409.93,469.97c1.03-9.81,2.85-21.01,5.98-33.19c2.77-10.74,6.07-20.3,9.44-28.6"/>
		<path class="st5" d="M402.59,467.2c1.04-9.65,2.85-20.63,5.91-32.53c2.61-10.14,5.7-19.23,8.88-27.21"/>
		<path class="st5" d="M421.18,472.12c1.43-9.26,3.17-18.94,5.31-28.99c2.51-11.76,5.3-22.86,8.25-33.27"/>
		<path class="st5" d="M478.54,476.08c0.99-20.56,3.03-41.71,6.3-63.36"/>
		<path class="st5" d="M453.67,474.95c1.23-9.89,2.73-20.15,4.55-30.76c1.93-11.18,4.06-21.89,6.36-32.11"/>
		<path class="st5" d="M433.62,473.42c1.25-10.04,3.04-20.9,5.56-32.4c2.37-10.79,5.09-20.8,7.94-29.96"/>
		<path class="st5" d="M599.08,408.18c3.36,8.3,6.66,17.87,9.44,28.6c3.13,12.18,4.95,23.38,5.98,33.19"/>
		<path class="st5" d="M607.04,407.46c3.17,7.98,6.26,17.06,8.88,27.21c3.07,11.9,4.88,22.88,5.91,32.53"/>
		<path class="st5" d="M589.68,409.86c2.95,10.41,5.74,21.51,8.25,33.27c2.14,10.05,3.88,19.73,5.31,28.99"/>
		<path class="st5" d="M513.07,476.45c-0.86-21.16-1.71-42.31-2.58-63.47"/>
		<path class="st5" d="M539.57,412.73c3.28,21.64,5.31,42.79,6.3,63.36"/>
		<path class="st5" d="M559.84,412.08c2.3,10.22,4.43,20.92,6.36,32.11c1.82,10.61,3.32,20.87,4.55,30.76"/>
		<path class="st5" d="M577.3,411.06c2.86,9.16,5.57,19.17,7.94,29.96c2.53,11.5,4.32,22.36,5.56,32.4"/>
	</g>
	<path class="st3" d="M521.09,605.04L511,601.56c-3.78-1.45-5.94-5.31-4.84-8.62l5.2-15.62c1.1-3.31,4.81-4.73,8.58-3.28l9.82,3.59
		c3.78,1.45,5.94,5.31,4.84,8.62l-5.2,15.62C528.3,605.18,524.87,606.49,521.09,605.04z"/>
	<path class="st0" d="M612.64,601.39c-29.85-3.19-59.12-6.33-91.27-9.77"/>
	<g>
		<g>
			
				<ellipse transform="matrix(0.2298 -0.9732 0.9732 0.2298 223.9559 636.9365)" class="st2" cx="514.38" cy="176.98" rx="19.98" ry="19.98"/>
		</g>
	</g>
	<path class="st6" d="M516.54,300.82c-3.75,15.9-15.98,26.19-27.62,23.1c-11.81-3.13-18.51-18.9-14.97-35.19
		c2.08-9.55,7.21-17.17,13.49-21.21c2.7,5.48,6.46,11.76,11.7,17.94c0.93,1.12,1.93,2.22,2.97,3.32c3.86,4.08,7.72,7.32,11.28,9.89
		C514.46,299.45,515.52,300.17,516.54,300.82z"/>
	<path class="st7" d="M512.89,298.13c-2.04,5.97-8.22,9.33-13.95,7.54c-5.84-1.82-9-8.32-7.07-14.49c1.03-3.29,3.3-5.83,6.09-7.2
		c0.96,1.18,2,2.35,3.08,3.52C505.05,291.83,509.11,295.32,512.89,298.13z"/>
	<path class="st6" d="M473.25,339.05c3.54,0.97,9.33,6.64,25.44,12.24c11.98,4.16,19,4.71,26.73,4.19
		c20.18-1.37,42.16-18.53,43.8-20.61c0.06-0.07,0.4-0.52,0.97-0.64c1.49-0.32,2.25,1.61,3.22,3.22c0.46,0.77-0.5,1.79-0.64,1.93
		c-2.9,2.9-8.99,15.85-28.02,31.56c-25.4,20.97-44.77,26.41-52.5,28.02c-0.17,0.04-0.55,0.42-0.97,0.32
		c-2.71-0.65,4.83-10.63-0.97-31.24C485.32,350.27,470.01,338.17,473.25,339.05z"/>
	<g>
		<path class="st8" d="M491.17,371.37c5.01,0.15,11.53-0.04,19.01-1.2c6.07-0.95,12.78-2.56,19.83-5.18
			c1.08-0.39,2.17-0.82,3.26-1.27c5.82-2.4,11.04-5.16,15.68-8.09c5.77-3.63,10.65-7.51,14.7-11.2c3.5-3.19,6.36-6.25,8.64-8.89"/>
		<path class="st8" d="M511.51,392.37c0.61-5.29,0.73-12.14-0.82-19.87c-0.16-0.79-0.33-1.57-0.51-2.33
			c-1.67-6.96-4.33-12.8-7.05-17.44"/>
		<path class="st8" d="M532.33,380.34c0.08-3.59-0.26-8-1.57-12.86c-0.23-0.85-0.48-1.69-0.75-2.5c-1.2-3.69-2.77-6.86-4.4-9.52"/>
		<path class="st8" d="M551.5,365v-0.01c-0.43-2.31-1.04-4.84-1.92-7.54c-0.2-0.63-0.41-1.23-0.63-1.82
			c-0.82-2.25-1.71-4.29-2.6-6.1"/>
		<path class="st8" d="M565.86,348.94c-0.33-0.89-0.73-1.83-1.23-2.78c-0.31-0.61-0.64-1.19-0.98-1.73
			c-0.79-1.27-1.63-2.36-2.47-3.3"/>
	</g>
	<path class="st6" d="M557,299.29c0.18,13.61-7.57,24.78-17.34,24.95c-9.31,0.16-17.07-9.74-17.94-22.46
		c0.43-0.25,0.88-0.53,1.32-0.82c0.14-0.1,0.3-0.19,0.44-0.28c0.55-0.35,1.12-0.72,1.69-1.1c2.83-1.91,5.88-4.24,9-7.07l0.04-0.04
		c0.66-0.59,1.31-1.21,1.97-1.86c2.47-2.39,4.96-5.12,7.37-8.21c1.28-1.63,2.45-3.25,3.53-4.86
		C552.83,281.53,556.85,289.74,557,299.29z"/>
	<path class="st7" d="M539,302.12c-2.41,3.97-7.76,5.1-11.95,2.56c-1.63-1-2.86-2.4-3.56-4c0.55-0.35,1.12-0.72,1.69-1.1
		c2.83-1.91,5.88-4.24,9-7.07l0.04-0.04c0.66-0.59,1.31-1.21,1.97-1.86C540.05,293.23,541.31,298.29,539,302.12z"/>
	<g>
		<line class="st9" x1="460.04" y1="787.27" x2="639.03" y2="198.37"/>
		
			<ellipse transform="matrix(0.3107 -0.9505 0.9505 0.3107 223.2022 753.796)" class="st4" cx="631.35" cy="223" rx="10" ry="10.19"/>
		<path class="st4" d="M678.15,176.2l2.08-111.6c0.02-0.95-1.22-1.33-1.74-0.53l-60.37,93.88c-0.43,0.67-0.5,1.51-0.18,2.23
			L636,201.74c0.49,1.14,1.89,1.56,2.93,0.89l38.13-24.47C677.72,177.73,678.13,177,678.15,176.2z"/>
		
			<ellipse transform="matrix(0.3107 -0.9505 0.9505 0.3107 250.3084 744.5287)" class="st2" cx="638.51" cy="199.68" rx="6.6" ry="10.19"/>
	</g>
	<path class="st10" d="M481.59,243.74c3.93,0.1,10.46,2.19,16.51,5.28c6.84,3.5,9.97,6.69,10.42,7.16"/>
	<path class="st10" d="M554.7,255.36c-3.08,0.77-8.56,2.98-13.84,5.58c-5.98,2.95-9,5.06-9.44,5.37"/>
</g>
</svg>
