<?xml version="1.0" encoding="utf-8"?>
<!-- Generator: Adobe Illustrator 23.0.1, SVG Export Plug-In . SVG Version: 6.00 Build 0)  -->
<svg version="1.1" id="Слой_1" xmlns="http://www.w3.org/2000/svg" xmlns:xlink="http://www.w3.org/1999/xlink" x="0px" y="0px"
	 viewBox="0 0 1024 1024" style="enable-background:new 0 0 1024 1024;" xml:space="preserve">
<style type="text/css">
	.st0{fill:none;stroke:#231F20;stroke-width:8;stroke-linecap:round;stroke-miterlimit:10;}
	.st1{fill:#F59E0B;}
	.st2{fill:#FFD64B;}
	.st3{fill:#231F20;}
	.st4{fill:#0D9488;}
	.st5{fill:none;stroke:#231F20;stroke-width:2;stroke-linecap:round;stroke-miterlimit:10;}
	.st6{fill:none;stroke:#231F20;stroke-width:5;stroke-miterlimit:10;}
	.st7{fill:#FFFFFF;}
	.st8{fill:#212121;}
	.st9{fill:none;stroke:#231F20;stroke-width:3;stroke-miterlimit:10;}
</style>
<g>
	<path class="st0" d="M424.07,449.93c-24.28,23.47-38.41,43.54-62.7,67.01l-2.57,2.53c-5.07,5.28-5.71,17.26,3.62,24.36
		C393.7,567.61,401,573,416,585"/>
	<path class="st0" d="M602.53,452.59c18.97,27.94,33.09,57.35,52.07,85.29l0,0c3.88,6.21-0.85,13.22-10.91,19.23
		C607,579,584,604,543,621"/>
	<path class="st1" d="M599.5,565.85c-7-49.29-3.51-71.77,14.23-124.85c-17.05,0.97-30.33,3-48.02,3c-18.41,0-35.14,0.92-53.54,0.93
		c-18.4-0.01-35.13-0.93-53.54-0.93c-17.69,0-30.96-2.03-48.02-3c19.43,57.38,27.24,78.32,10.88,127.75
		c-20.41,61.65-61.66,148.42-69.06,209.93c26.92,1.84,64.04,6.9,90.98,7.81c21.71,0.75,47.51,3.55,68.76,3.55
		c21.25,0,47.05-2.8,68.76-3.55c26.93-0.92,64.05-5.98,90.98-7.81C664.51,717.16,608.68,630.52,599.5,565.85z"/>
	<g>
		<path class="st1" d="M614.48,297.64c0,15.19-3.86,29.55-10.74,42.22c-6.88,12.68-16.78,23.69-28.87,32.22c0,0-0.01,0.01-0.01,0.01
			c-0.84,0.44-2.16,1.14-2.99,1.59c-14.75,4.89-33.82,9.16-56.1,9.05c-27.25-0.14-49.92-6.77-66.24-13.43
			c-0.24-0.17-0.47-0.35-0.7-0.54c-21.64-17.12-35.37-42.63-35.37-71.12c0-43.98,73.05-131.91,94.59-156.88
			c3.12-3.61,8.71-3.61,11.83,0C541.42,165.74,614.48,253.66,614.48,297.64z"/>
	</g>
	<path class="st2" d="M611.65,416.16c-16.74,0.88-33.27,1.33-49.9,1.33c-15.97,0-31.88,0.55-47.86,0.55h-0.18h-0.18
		c-15.98,0-31.89-0.55-47.86-0.55c-16.63,0-33.17-0.45-49.9-1.33c-4.54,1-7.84,15.88-7.84,19.55c0,4.47,4.93,8.1,11.02,8.1
		c0.69,0.04,1.38,0.08,2.08,0.12c5.73,0.33,11.5,0.61,17.27,0.83c12.29,0.48,24.64,0.73,36.93,0.73c1.36,0,2.72,0.01,4.08,0.02
		c0.05,0,0.1,0,0.15,0.01c11.35,0.09,22.71,0.53,34.07,0.53h0.18h0.18c11.36,0,22.72-0.44,34.07-0.53c0.05-0.01,0.1-0.01,0.15-0.01
		c1.36-0.01,2.72-0.02,4.08-0.02c12.29,0,24.64-0.24,36.93-0.73c5.77-0.22,11.53-0.5,17.27-0.83c0.7-0.04,1.39-0.08,2.08-0.12
		c6.09,0,11.02-3.63,11.02-8.1C619.49,432.05,616.18,417.17,611.65,416.16z"/>
	<path class="st0" d="M385.7,561.86c24.55,19.43,49.44,37.22,77.19,55.96"/>
	<path class="st3" d="M467.38,637.9l-9.13-4.47c-3.6-1.76-5.06-5.64-3.24-8.66l8.56-14.27c1.81-3.02,6.2-4.04,9.81-2.28l9.13,4.47
		c3.6,1.76,5.06,5.64,3.24,8.66l-8.56,14.27C475.37,638.64,470.98,639.66,467.38,637.9z"/>
	<path class="st2" d="M677.29,773.36h-15.46c-27.58,3.26-53.85,4.9-81.43,6.53c-22.34,1.32-46.45,1.63-68.3,1.63
		c-21.85,0-45.96-0.31-68.3-1.63c-27.58-1.63-53.85-3.26-81.43-6.53H346.9c-9.59,0-17.37,9.66-17.37,21.59v4.16
		c0,11.92,7.78,21.59,17.37,21.59c27.29,3.26,54.25,4.94,81.13,6.53c28.18,1.67,55.16,3.26,84.06,3.26
		c28.89,0,55.88-1.59,84.06-3.26c26.88-1.59,53.85-3.26,81.13-6.53c9.59,0,17.37-9.66,17.37-21.59v-4.16
		C694.66,783.03,686.88,773.36,677.29,773.36z"/>
	<path class="st1" d="M707.92,813.18h-18.33c-32.7,5.7-63.83,8.56-96.53,11.41c-26.48,2.31-55.06,2.85-80.96,2.85
		c-25.9,0-54.48-0.54-80.96-2.85c-32.7-2.85-63.83-5.7-96.53-11.41h-18.33c-11.37,0-20.59,16.89-20.59,37.72v7.27
		c0,20.83,9.22,37.72,20.59,37.72c32.34,5.7,64.31,8.62,96.18,11.41c33.41,2.92,65.39,5.7,99.64,5.7c34.25,0,66.24-2.78,99.64-5.7
		c31.87-2.78,63.83-5.7,96.18-11.41c11.37,0,20.59-16.89,20.59-37.72v-7.27C728.51,830.06,719.29,813.18,707.92,813.18z"/>
	<path class="st4" d="M623.18,383.42c0.01,0.02,0.01,0.03,0.01,0.04c-0.04-0.43-0.45-3.39-0.47-3.44
		c-0.88-8.55-6.73-16.91-15.13-19.54c-2.26-0.71-4.7-0.59-6.89,0.3c-7.31,2.96-42.51,5.2-84.82,5.2c-1.07,0-2.13,0-3.18-0.01v0
		c-0.08,0-0.17,0-0.25,0c-0.08,0-0.17,0-0.25,0v0c-1.06,0.01-2.12,0.01-3.18,0.01c-42.33,0-77.54-2.25-84.83-5.21
		c-2.18-0.89-4.62-1-6.87-0.29c-8.41,2.63-14.27,10.98-15.14,19.54c-0.01,0.05-0.42,3-0.47,3.44c0-0.01,0-0.02,0.01-0.04
		l-3.78,26.47c0,7.91,3.87,11.33,11.69,13.01c0.72,0.15,1.42,0.4,2.06,0.75c3.17,1.06,40.67,5.82,91.51,5.82
		c3.13,0,6.21-0.01,9.26-0.03c3.05,0.02,6.13,0.03,9.26,0.03c48.71,0,81.78-2.43,86.32-4.49c0.77-0.35,1.59-0.59,2.41-0.82
		l3.75-1.04c5.9-0.53,12.78-4.95,12.78-13.22L623.18,383.42z"/>
	<g>
		<path class="st5" d="M409.93,422.97c1.03-9.81,2.85-21.01,5.98-33.19c2.77-10.74,6.07-20.3,9.44-28.6"/>
		<path class="st5" d="M402.59,420.2c1.04-9.65,2.85-20.63,5.91-32.53c2.61-10.14,5.7-19.23,8.88-27.21"/>
		<path class="st5" d="M421.18,425.12c1.43-9.26,3.17-18.94,5.31-28.99c2.51-11.76,5.3-22.86,8.25-33.27"/>
		<path class="st5" d="M478.54,429.08c0.99-20.56,3.03-41.71,6.3-63.36"/>
		<path class="st5" d="M453.67,427.95c1.23-9.89,2.73-20.15,4.55-30.76c1.93-11.18,4.06-21.89,6.36-32.11"/>
		<path class="st5" d="M433.62,426.42c1.25-10.04,3.04-20.9,5.56-32.4c2.37-10.79,5.09-20.8,7.94-29.96"/>
		<path class="st5" d="M599.08,361.18c3.36,8.3,6.66,17.87,9.44,28.6c3.13,12.18,4.95,23.38,5.98,33.19"/>
		<path class="st5" d="M607.04,360.46c3.17,7.98,6.26,17.06,8.88,27.21c3.07,11.9,4.88,22.88,5.91,32.53"/>
		<path class="st5" d="M589.68,362.86c2.95,10.41,5.74,21.51,8.25,33.27c2.14,10.05,3.88,19.73,5.31,28.99"/>
		<path class="st5" d="M513.07,429.45c-0.86-21.16-1.71-42.31-2.58-63.47"/>
		<path class="st5" d="M539.57,365.73c3.28,21.64,5.31,42.79,6.3,63.36"/>
		<path class="st5" d="M559.84,365.08c2.3,10.22,4.43,20.92,6.36,32.11c1.82,10.61,3.32,20.87,4.55,30.76"/>
		<path class="st5" d="M577.3,364.06c2.86,9.16,5.57,19.17,7.94,29.96c2.53,11.5,4.32,22.36,5.56,32.4"/>
	</g>
	<path class="st3" d="M540.71,640.8l-9.99,3.75c-3.83,1.29-7.96-0.3-9.22-3.56l-5.94-15.36c-1.26-3.25,0.69-6.71,4.53-7.99
		l9.86-3.49c3.83-1.29,7.96,0.3,9.22,3.56l5.94,15.36C546.35,636.32,544.54,639.51,540.71,640.8z"/>
	<path class="st0" d="M611.95,578.67c-25.04,16.56-49.6,32.78-76.58,50.62"/>
	<g>
		<g>
			
				<ellipse transform="matrix(0.2298 -0.9732 0.9732 0.2298 269.6986 600.7348)" class="st2" cx="514.38" cy="129.98" rx="19.98" ry="19.98"/>
		</g>
	</g>
	<g>
		<line class="st6" x1="613.71" y1="835.75" x2="381.49" y2="265.74"/>
		
			<ellipse transform="matrix(0.9338 -0.3579 0.3579 0.9338 -77.7732 159.1244)" class="st4" cx="391.05" cy="289.69" rx="10.19" ry="10"/>
		<path class="st4" d="M397.88,223.87l-68.73-87.95c-0.59-0.75-1.79-0.26-1.68,0.69l12.3,110.94c0.09,0.79,0.56,1.48,1.27,1.85
			l40.21,20.87c1.1,0.57,2.45,0.02,2.84-1.16l14.17-43.03C398.52,225.32,398.37,224.49,397.88,223.87z"/>
		
			<ellipse transform="matrix(0.9338 -0.3579 0.3579 0.9338 -70.2829 154.3555)" class="st2" cx="381.91" cy="267.07" rx="10.19" ry="6.6"/>
	</g>
	
		<ellipse transform="matrix(0.9999 -0.0155 0.0155 0.9999 -3.8546 7.4941)" class="st7" cx="481.77" cy="252.53" rx="23.32" ry="29.09"/>
	
		<ellipse transform="matrix(0.9999 -0.0155 0.0155 0.9999 -3.8503 7.5795)" class="st8" cx="487.28" cy="252.3" rx="11.72" ry="11.82"/>
	
		<ellipse transform="matrix(0.9999 -0.0155 0.0155 0.9999 -3.8521 8.464)" class="st7" cx="544.37" cy="252.86" rx="22.85" ry="28.5"/>
	
		<ellipse transform="matrix(0.9999 -0.0155 0.0155 0.9999 -4.9689 7.9673)" class="st7" cx="511.75" cy="324.69" rx="20.28" ry="25.3"/>
	
		<ellipse transform="matrix(0.9999 -0.0155 0.0155 0.9999 -3.8441 8.3851)" class="st8" cx="539.28" cy="252.3" rx="11.72" ry="11.82"/>
	<path class="st9" d="M525.96,212.76c3.99-4.53,11.57-7.17,19.19-6.72c8.61,0.51,13.34,4.75,14.02,5.39"/>
	<path class="st9" d="M466.96,212.76c3.99-4.53,11.57-7.17,19.19-6.72c8.61,0.51,13.34,4.75,14.02,5.39"/>
</g>
</svg>
