<?xml version="1.0" encoding="utf-8"?>
<!-- Generator: Adobe Illustrator 23.0.1, SVG Export Plug-In . SVG Version: 6.00 Build 0)  -->
<svg version="1.1" id="Слой_1" xmlns="http://www.w3.org/2000/svg" xmlns:xlink="http://www.w3.org/1999/xlink" x="0px" y="0px"
	 viewBox="0 0 1024 1024" style="enable-background:new 0 0 1024 1024;" xml:space="preserve">
<style type="text/css">
	.st0{fill:#08BDA5;}
	.st1{fill:#0D9488;}
	.st2{fill:#F59E0B;}
	.st3{fill:#FFD64B;}
</style>
<g>
	<rect x="501.96" y="454.22" class="st0" width="60.04" height="209.18"/>
	<path class="st1" d="M780.44,1007.08c10.12,0,16.54-8.64,11.66-15.7L673.23,819.07l-0.15-0.27l-13.51-23.91l-0.01,0.05
		l-49.13-146.23l1.11,3.93l0,0l0,0c-25.55-85.8-42.44-192.35-46.03-278.12l-7.43-253.19h2.4c4.82,0,8.73-3.11,8.73-6.95v-3.31
		c0-10.6-10.07-19.52-24.04-22.78V57.9c0-3.65-3.71-6.6-8.29-6.6l0,0l-0.39,0.1h-6l-0.04-0.1h0c-4.58,0-8.29,2.96-8.29,6.6v30.4
		c-13.97,3.27-24.09,12.19-24.09,22.78v3.31c0,3.84,3.91,6.95,8.73,6.95h2.46v13.73l-7.49,239.46
		c-2.78,92.34-18.48,195.31-44.83,274.53l0,0l0,0l-0.04-0.35L407.7,794.94l-0.31-0.05l-13.51,23.91l0.21,0.27L275.17,991.38
		c-4.87,7.06,1.54,15.7,11.66,15.7l108.5-1.03c8.31,0,14.58-5.99,13.08-12.5c-1.17-5.09-1.77-10.31-1.77-15.62
		c0-55.07,46.1-111.91,127-111.91c80.95,0,127.04,54.79,127.04,109.85c0,5.3-0.6,10.52-1.77,15.62c-1.5,6.51,4.78,12.5,13.08,12.5
		L780.44,1007.08z M543.35,470.13l18.15,178.86l-27.87,2.75l-27.87-2.75l18.15-178.86C524.88,460.61,542.39,460.61,543.35,470.13z
		 M478.52,778.84l15.13-72.17c1.46-7.67,9.74-13.34,19.49-13.34h41.05c9.74,0,18.02,5.67,19.49,13.34l15.12,72.17
		c1.61,8.47-6.62,16.1-17.38,16.1H495.9C485.14,794.94,476.91,787.31,478.52,778.84z"/>
	<path class="st2" d="M536.87,2.56v48.29c0,1.41-1.44,2.56-3.21,2.56l0,0c-1.78,0-3.21-1.15-3.21-2.56V2.56
		c0-1.41,1.44-2.56,3.21-2.56l0,0C535.43,0,536.87,1.15,536.87,2.56z"/>
	<path class="st2" d="M795.76,991.86h-6.44c-11.49,1.72-22.44,2.58-33.93,3.44c-9.31,0.7-19.35,0.86-28.46,0.86
		c-9.1,0-19.15-0.16-28.46-0.86c-11.49-0.86-22.44-1.72-33.93-3.44h-6.44c-4,0-7.24,5.1-7.24,11.39v2.2
		c0,6.29,3.24,11.39,7.24,11.39c11.37,1.72,22.61,2.6,33.81,3.44c11.74,0.88,22.99,1.72,35.03,1.72s23.28-0.84,35.03-1.72
		c11.2-0.84,22.44-1.72,33.81-3.44c4,0,7.24-5.1,7.24-11.39v-2.2C803,996.96,799.76,991.86,795.76,991.86z"/>
	<path class="st2" d="M409.41,991.86h-6.44c-11.49,1.72-22.44,2.58-33.93,3.44c-9.31,0.7-19.35,0.86-28.46,0.86
		c-9.1,0-19.15-0.16-28.46-0.86c-11.49-0.86-22.44-1.72-33.93-3.44h-6.44c-4,0-7.24,5.1-7.24,11.39v2.2
		c0,6.29,3.24,11.39,7.24,11.39c11.37,1.72,22.61,2.6,33.81,3.44c11.74,0.88,22.99,1.72,35.03,1.72c12.04,0,23.28-0.84,35.03-1.72
		c11.2-0.84,22.44-1.72,33.81-3.44c4,0,7.24-5.1,7.24-11.39v-2.2C416.65,996.96,413.41,991.86,409.41,991.86z"/>
	<path class="st2" d="M575.64,117.37h-3.9c-6.95,1.76-13.57,2.64-20.53,3.53c-5.63,0.71-11.71,0.88-17.22,0.88
		c-5.51,0-11.58-0.17-17.22-0.88c-6.95-0.88-13.57-1.76-20.53-3.53h-3.9c-2.42,0-4.38,5.22-4.38,11.66v2.25
		c0,6.44,1.96,11.66,4.38,11.66c6.88,1.76,13.68,2.67,20.45,3.53c7.1,0.9,13.91,1.76,21.19,1.76s14.09-0.86,21.19-1.76
		c6.78-0.86,13.57-1.76,20.45-3.53c2.42,0,4.38-5.22,4.38-11.66v-2.25C580.01,122.59,578.05,117.37,575.64,117.37z"/>
	<path class="st3" d="M622.53,604.47h-8.31c-14.82,1.29-28.94,1.93-43.77,2.57c-12.01,0.52-24.96,0.64-36.71,0.64
		c-11.74,0-24.7-0.12-36.71-0.64c-14.82-0.64-28.94-1.29-43.77-2.57h-8.31c-5.16,0-9.34,3.81-9.34,8.51v1.64
		c0,4.7,4.18,8.51,9.34,8.51c14.67,1.29,29.16,1.94,43.61,2.57c15.15,0.66,29.65,1.29,45.18,1.29c15.53,0,30.03-0.63,45.18-1.29
		c14.45-0.63,28.94-1.29,43.61-2.57c5.16,0,9.34-3.81,9.34-8.51v-1.64C631.86,608.28,627.68,604.47,622.53,604.47z"/>
	<path class="st2" d="M638.99,617.16h-9.85c-17.57,3.24-34.31,4.85-51.88,6.47c-14.23,1.31-29.59,1.62-43.51,1.62
		c-13.92,0-29.28-0.31-43.51-1.62c-17.57-1.62-34.31-3.24-51.88-6.47h-9.85c-6.11,0-11.07,9.58-11.07,21.4v4.13
		c0,11.82,4.95,21.4,11.07,21.4c17.38,3.24,34.57,4.89,51.69,6.47c17.96,1.66,35.15,3.24,53.56,3.24s35.6-1.58,53.56-3.24
		c17.13-1.58,34.31-3.24,51.69-6.47c6.11,0,11.07-9.58,11.07-21.4v-4.13C650.06,626.74,645.1,617.16,638.99,617.16z"/>
	<path class="st3" d="M646.97,770.98h-10.6c-18.91,1.05-36.91,1.57-55.82,2.1c-15.31,0.42-31.84,0.52-46.82,0.52
		c-14.98,0-31.5-0.1-46.82-0.52c-18.91-0.52-36.91-1.05-55.82-2.1h-10.6c-6.58,0-11.91,3.11-11.91,6.94v1.34
		c0,3.83,5.33,6.94,11.91,6.94c18.7,1.05,37.19,1.59,55.62,2.1c19.32,0.54,37.81,1.05,57.62,1.05s38.3-0.51,57.62-1.05
		c18.43-0.51,36.91-1.05,55.62-2.1c6.58,0,11.91-3.11,11.91-6.94v-1.34C658.88,774.09,653.55,770.98,646.97,770.98z"/>
	<path class="st2" d="M667.97,781.79H655.4c-22.41,2.49-43.76,3.74-66.17,4.98c-18.15,1.01-37.74,1.25-55.5,1.25
		c-17.75,0-37.34-0.24-55.5-1.25c-22.41-1.25-43.76-2.49-66.17-4.98h-12.57c-7.8,0-14.11,7.37-14.11,16.47v3.18
		c0,9.1,6.32,16.47,14.11,16.47c22.17,2.49,44.08,3.77,65.93,4.98c22.9,1.27,44.82,2.49,68.3,2.49s45.4-1.22,68.3-2.49
		c21.84-1.22,43.76-2.49,65.93-4.98c7.8,0,14.11-7.37,14.11-16.47v-3.18C682.09,789.16,675.77,781.79,667.97,781.79z"/>
</g>
</svg>
