<svg id="Слой_1" data-name="Слой 1" xmlns="http://www.w3.org/2000/svg" viewBox="0 0 1024 1024"><defs><style>.cls-1{fill:#f59e0b;}.cls-2{fill:#ffd64b;}.cls-3{fill:#0d9488;}.cls-4,.cls-5{fill:none;stroke-miterlimit:10;stroke-width:2px;}.cls-4{stroke:#231f20;}.cls-5{stroke:#000;}</style></defs><title>The Pisa tower</title><path class="cls-1" d="M734.91,231.13,444.35,167.36l-182.8,833-1.16,5.29v0c0,1.7,1.45,3.25,3.86,4.48v0c.35.17.72.34,1.1.5a32.45,32.45,0,0,0,10.77,2.09c.6,0,1.05,0,1.28,0H279q2.91.38,7.21.7c13.29,1,36.24,2,64.79,2.61,8.5.18,17.5.35,26.9.48,11.81.17,24.25.28,37.09.35,9.83,0,19.43.06,28.7,0,9,0,17.67-.06,26-.15,27.63-.25,50.8-.82,66.23-1.6a181.24,181.24,0,0,0,18.15-1.52c4.59-.66,8.26-2.12,10-4,.77-.8.69-.4,1.2-2.58l.54-3.09c1.06-6.33,1.07-6.29,1.06-6.33Z"/><path class="cls-2" d="M698.37,486.55a28.13,28.13,0,0,0-5.45-3c-4.29-4.06-72.59-21.52-156.76-40C457.4,426.26,391.64,414,378.91,414c-9-1.2-16.39.74-17.29,4.82l-.72,3.3c-.51,2.31,1.17,4.87,4.29,7.14,4.93,3.6,11.68,5.14,12.95,5.42l1.74.38c18.4,6.53,79,21.64,151.25,37.5,77.38,17,142.22,29.12,156.53,29.5,7.57.44,13.49-1.48,14.28-5.1l.72-3.29C703.17,491.38,701.49,488.82,698.37,486.55Z"/><path class="cls-2" d="M668.75,621.52a27.84,27.84,0,0,0-5.45-3c-4.3-4.06-72.59-21.52-156.76-40C427.78,561.23,362,549,349.29,549c-9-1.2-16.39.73-17.29,4.82l-.72,3.29c-.51,2.31,1.17,4.87,4.29,7.15,4.93,3.59,11.68,5.13,12.95,5.41l1.74.38c18.4,6.53,79,21.65,151.24,37.51,77.39,17,142.22,29.12,156.54,29.5,7.57.43,13.49-1.49,14.28-5.11l.72-3.29C673.55,626.36,671.87,623.8,668.75,621.52Z"/><path class="cls-2" d="M639.13,756.5a28.42,28.42,0,0,0-5.45-3c-4.3-4.06-72.59-21.52-156.76-40C398.16,696.21,332.4,683.94,319.67,684c-9-1.2-16.4.74-17.29,4.82l-.72,3.29c-.51,2.32,1.16,4.88,4.29,7.15,4.93,3.6,11.68,5.14,12.95,5.42l1.74.38c18.4,6.53,79,21.64,151.24,37.5,77.39,17,142.22,29.12,156.53,29.5,7.58.44,13.49-1.48,14.29-5.1l.72-3.29C643.93,761.33,642.25,758.77,639.13,756.5Z"/><path class="cls-2" d="M609.51,891.47a27.84,27.84,0,0,0-5.45-3c-4.3-4.06-72.59-21.52-156.76-40-78.76-17.28-144.53-29.55-157.25-29.5-9-1.2-16.4.73-17.29,4.82l-.73,3.29c-.5,2.31,1.17,4.87,4.29,7.15,4.94,3.59,11.69,5.13,13,5.41L291,840c18.4,6.53,79,21.65,151.24,37.51,77.39,17,142.22,29.12,156.53,29.5,7.58.43,13.49-1.49,14.29-5.11l.72-3.29C614.31,896.31,612.63,893.75,609.51,891.47Z"/><path class="cls-1" d="M573.17,126.6c4.44-20.25,22.11-33.57,39.47-29.76.58.13,1.14.27,1.7.43,16.33,4.67,26,23.55,21.68,43.12l-8.73,39.79c20.39,4.63,39.32,9.09,56,13.16l24-109.49c-18.35-2.51-50.78-8.62-87.56-16.69-40.65-8.92-75.49-17.8-91.62-23.13L504,154.08c17.84,3.44,38.35,7.61,60.48,12.3Z"/><path class="cls-3" d="M458,955.47,450,992l-5.27,24c-9.27,0-18.87,0-28.7,0-12.84-.06-25.27-.18-37.09-.35l5.26-23.94,11-49.93c7.82-35.66,25.29-48.09,42.64-44.28a16.43,16.43,0,0,1,1.7.47C455.63,903.32,465.54,921,458,955.47Z"/><path class="cls-3" d="M545.55,974.69l-4.43,20.19-4.23,19.3c-15.43.78-38.61,1.35-66.24,1.61l5.14-23.4,6.91-31.5c7.83-35.66,25.31-48.09,42.66-44.28a16.25,16.25,0,0,1,1.69.47C543.21,922.54,553.12,940.21,545.55,974.69Z"/><path class="cls-3" d="M369.37,936l-12.24,55.74-5.12,23.3c-28.54-.63-51.49-1.56-64.79-2.62a27.11,27.11,0,0,1,.63-5.16l3-13.77,15.65-71.29c7.82-35.66,25.3-48.09,42.66-44.28.58.13,1.14.28,1.69.46C367,883.87,376.93,901.55,369.37,936Z"/><path class="cls-2" d="M729.05,70.78a15.13,15.13,0,0,0-3.43-2.38C723,65,679,53.16,624.56,41.22,573.64,30.05,531,22.63,522.63,23.33c-5.84-.59-10.82,1.5-11.63,5.16l-.64,3c-.46,2.07.51,4.25,2.45,6.09a18.43,18.43,0,0,0,8.24,4.11l1.12.25c1.53.62,3.53,1.34,5.94,2.14,16.13,5.33,51,14.21,91.62,23.13,36.78,8.07,69.21,14.18,87.56,16.69a96,96,0,0,0,13.9,1.23c5,0,8.95-2,9.66-5.25l.65-3C732,74.81,731,72.63,729.05,70.78Z"/><path class="cls-4" d="M715.4,55.46a7.55,7.55,0,0,0-2.2-5.92,11.81,11.81,0,0,0-2.84-2.28c-4.82-2.39-38-13.88-82.16-24.24-41.31-9.7-75.84-15.87-82.53-14.92-4.7-.43-8.6,1.78-9.15,5.42"/><path class="cls-3" d="M614.34,97.27c-.56-.16-1.12-.3-1.7-.43-17.36-3.81-35,9.51-39.47,29.76l-8.73,39.78c10.06,2.13,20.44,4.37,31.07,6.7,10.9,2.39,21.52,4.77,31.78,7.1L636,140.39C640.32,120.82,630.67,101.94,614.34,97.27Z"/><path class="cls-2" d="M757.73,216.09a27.91,27.91,0,0,0-5.46-3c-2.63-2.49-29.34-10-69-19.74-16.65-4.07-35.58-8.53-56-13.16-10.26-2.33-20.88-4.71-31.78-7.1-10.63-2.33-21-4.57-31.07-6.7-22.13-4.69-42.64-8.86-60.48-12.3-34.12-6.58-58.47-10.53-65.69-10.51-9-1.19-16.4.74-17.3,4.82l-.72,3.3c-.51,2.31,1.17,4.87,4.29,7.15,4.94,3.59,11.69,5.13,13,5.41l1.73.38c18.4,6.53,79,21.64,151.25,37.5,77.38,17,142.22,29.13,156.53,29.51,7.58.43,13.49-1.49,14.28-5.11l.73-3.29C762.52,220.93,760.85,218.36,757.73,216.09Z"/><path class="cls-3" d="M555.8,304.18l11.53-52.54c4.8-21.89-2.52-34.85-14.49-38.69a12.73,12.73,0,0,0-1.25-.33c-12.8-2.81-25.66,6.2-30.63,28.84L509.43,294a15.24,15.24,0,0,0-.33,2.64c14.46,3,29.93,6.25,46,9.75A15.48,15.48,0,0,0,555.8,304.18Z"/><path class="cls-3" d="M488.83,289.49l11.53-52.55c4.8-21.89-2.53-34.85-14.49-38.68a10.47,10.47,0,0,0-1.25-.34c-12.8-2.81-25.66,6.21-30.63,28.84l-11.53,52.55a14.74,14.74,0,0,0-.3,4.34c12.66,2.24,28.17,5.18,45.73,8.69A15.61,15.61,0,0,0,488.83,289.49Z"/><path class="cls-3" d="M622.77,318.88l11.53-52.55c4.81-21.88-2.52-34.84-14.48-38.68-.41-.13-.83-.24-1.25-.34-12.81-2.81-25.66,6.21-30.63,28.85l-11.53,52.55a14,14,0,0,0-.32,2.28c16.08,3.57,31.49,7.07,45.88,10.42A15.26,15.26,0,0,0,622.77,318.88Z"/><path class="cls-3" d="M689.74,333.58,701.27,281c4.81-21.89-2.52-34.85-14.48-38.68-.41-.13-.83-.25-1.25-.34-12.81-2.81-25.66,6.21-30.63,28.85L643.38,323.4a15.69,15.69,0,0,0-.35,3c17.4,4.16,32.73,8,45.17,11.26A14.68,14.68,0,0,0,689.74,333.58Z"/><path class="cls-3" d="M526.26,439.21l11.53-52.55c4.81-21.89-2.52-34.85-14.48-38.69-.41-.13-.83-.24-1.25-.33-12.81-2.81-25.66,6.2-30.63,28.84L479.9,429a15.4,15.4,0,0,0-.34,2.64c14.47,3,29.93,6.25,46,9.75A15.34,15.34,0,0,0,526.26,439.21Z"/><path class="cls-3" d="M459.29,424.51,470.82,372c4.81-21.89-2.52-34.85-14.48-38.68-.42-.13-.83-.25-1.25-.34-12.81-2.81-25.67,6.21-30.63,28.85l-11.54,52.54a15.09,15.09,0,0,0-.3,4.34c12.66,2.24,28.17,5.18,45.74,8.69A14.87,14.87,0,0,0,459.29,424.51Z"/><path class="cls-3" d="M593.23,453.9l11.54-52.54c4.8-21.89-2.53-34.85-14.49-38.69-.41-.13-.83-.24-1.25-.33-12.8-2.81-25.66,6.2-30.63,28.84l-11.53,52.55a15.37,15.37,0,0,0-.32,2.29c16.09,3.56,31.5,7.07,45.88,10.41A14.11,14.11,0,0,0,593.23,453.9Z"/><path class="cls-3" d="M660.21,468.6l11.53-52.55c4.8-21.88-2.52-34.84-14.49-38.68-.41-.13-.82-.24-1.25-.34-12.8-2.81-25.66,6.21-30.63,28.85l-11.53,52.55a15.5,15.5,0,0,0-.35,3c17.41,4.17,32.73,8,45.18,11.26A14.88,14.88,0,0,0,660.21,468.6Z"/><path class="cls-3" d="M495.67,574.23l11.53-52.55c4.81-21.89-2.52-34.85-14.48-38.68-.41-.13-.83-.25-1.25-.34-12.81-2.81-25.66,6.21-30.63,28.85l-11.53,52.54a15.4,15.4,0,0,0-.34,2.64c14.47,3,29.93,6.25,46,9.75A15.34,15.34,0,0,0,495.67,574.23Z"/><path class="cls-3" d="M428.7,559.53,440.23,507c4.8-21.88-2.52-34.84-14.49-38.68-.41-.13-.82-.24-1.25-.34-12.8-2.81-25.66,6.21-30.62,28.85l-11.54,52.55a14.7,14.7,0,0,0-.3,4.34c12.66,2.23,28.17,5.18,45.74,8.68A14.64,14.64,0,0,0,428.7,559.53Z"/><path class="cls-3" d="M562.64,588.93l11.54-52.55c4.8-21.89-2.53-34.85-14.49-38.69-.41-.13-.83-.24-1.25-.33-12.8-2.81-25.66,6.2-30.63,28.84l-11.53,52.55A15.37,15.37,0,0,0,516,581c16.08,3.56,31.5,7.07,45.88,10.42A14.64,14.64,0,0,0,562.64,588.93Z"/><path class="cls-3" d="M629.62,603.62l11.53-52.54c4.8-21.89-2.53-34.85-14.49-38.69a12.73,12.73,0,0,0-1.25-.33c-12.8-2.81-25.66,6.2-30.63,28.84l-11.53,52.55a15.5,15.5,0,0,0-.35,3c17.41,4.16,32.73,8,45.18,11.25A14.76,14.76,0,0,0,629.62,603.62Z"/><path class="cls-3" d="M465.08,708.2l11.53-52.55c4.81-21.89-2.52-34.85-14.48-38.69-.41-.13-.83-.24-1.25-.33-12.81-2.81-25.67,6.2-30.63,28.84L418.71,698a16.42,16.42,0,0,0-.33,2.64c14.47,3,29.93,6.25,46,9.75A15.34,15.34,0,0,0,465.08,708.2Z"/><path class="cls-3" d="M398.11,693.5,409.64,641c4.8-21.89-2.52-34.85-14.49-38.68a12.77,12.77,0,0,0-1.25-.34c-12.8-2.81-25.66,6.21-30.63,28.85l-11.53,52.54a14.74,14.74,0,0,0-.3,4.34c12.66,2.24,28.17,5.18,45.73,8.69A14.22,14.22,0,0,0,398.11,693.5Z"/><path class="cls-3" d="M532.05,722.89l11.53-52.54c4.81-21.89-2.52-34.85-14.48-38.69-.41-.13-.83-.24-1.25-.33-12.81-2.81-25.66,6.2-30.63,28.84l-11.53,52.55a15.37,15.37,0,0,0-.32,2.29c16.08,3.56,31.5,7.06,45.88,10.41A14.11,14.11,0,0,0,532.05,722.89Z"/><path class="cls-3" d="M599,737.59,610.56,685c4.8-21.89-2.53-34.84-14.49-38.68-.41-.13-.83-.24-1.25-.34-12.8-2.81-25.66,6.21-30.63,28.85l-11.53,52.55a15.5,15.5,0,0,0-.35,3c17.41,4.17,32.73,8,45.18,11.26A14.55,14.55,0,0,0,599,737.59Z"/><path class="cls-3" d="M437.65,844.27l11.54-52.54c4.8-21.89-2.53-34.85-14.49-38.69-.41-.13-.83-.24-1.25-.33-12.8-2.81-25.66,6.2-30.63,28.84L391.29,834.1a14.23,14.23,0,0,0-.33,2.64c14.46,3,29.92,6.25,46,9.74A15,15,0,0,0,437.65,844.27Z"/><path class="cls-3" d="M370.68,829.58,382.21,777c4.81-21.89-2.52-34.85-14.48-38.69-.41-.13-.83-.24-1.25-.33-12.81-2.81-25.66,6.2-30.63,28.84L324.32,819.4a14.76,14.76,0,0,0-.31,4.34c12.66,2.24,28.17,5.18,45.74,8.69A15.1,15.1,0,0,0,370.68,829.58Z"/><path class="cls-3" d="M504.63,859l11.53-52.55c4.8-21.89-2.53-34.84-14.49-38.68-.41-.13-.82-.24-1.25-.34-12.8-2.81-25.66,6.21-30.63,28.85L458.26,848.8a15.24,15.24,0,0,0-.32,2.28c16.09,3.57,31.5,7.07,45.89,10.42A16.26,16.26,0,0,0,504.63,859Z"/><path class="cls-3" d="M571.6,873.67l11.53-52.55c4.8-21.89-2.52-34.85-14.49-38.68a10.47,10.47,0,0,0-1.25-.34c-12.8-2.81-25.66,6.21-30.63,28.84l-11.53,52.55a14.81,14.81,0,0,0-.34,3c17.4,4.16,32.72,8,45.17,11.26A14.68,14.68,0,0,0,571.6,873.67Z"/><path class="cls-2" d="M728,351.57a27.55,27.55,0,0,0-5.45-3c-1.76-1.67-14.32-5.6-34.33-10.92-12.44-3.32-27.76-7.17-45.16-11.36q-10.08-2.41-21-5c-14.39-3.36-29.8-6.87-45.88-10.44l-10.34-2.28q-5.35-1.19-10.62-2.32c-16.1-3.5-31.57-6.76-46-9.73q-11-2.25-21.22-4.28c-17.56-3.48-33.08-6.39-45.75-8.59-17.06-2.95-28.94-4.61-33.63-4.59-9-1.2-16.39.73-17.29,4.82l-.72,3.29c-.51,2.31,1.17,4.87,4.29,7.15,4.94,3.59,11.68,5.13,13,5.41l1.73.38c18.4,6.53,79,21.65,151.25,37.51,77.38,17,142.22,29.12,156.53,29.5,7.57.43,13.49-1.49,14.28-5.11l.72-3.29C732.79,356.41,731.11,353.85,728,351.57Z"/><path class="cls-3" d="M568.29,89.81l-4.9,22.29a5.16,5.16,0,0,1-6.16,4l-22.86-5a5.19,5.19,0,0,1-4-6.17l4.89-22.3c2.44-11.09,11.79-18.47,20.9-16.47.3.06.6.14.89.22C565.66,68.8,570.64,79.08,568.29,89.81Z"/><path class="cls-3" d="M685.76,115.53l-4.9,22.3a5.18,5.18,0,0,1-6.16,3.95l-22.86-5a5.18,5.18,0,0,1-4-6.16l4.89-22.3c2.44-11.1,11.79-18.47,20.9-16.48l.89.23C683.13,94.52,688.11,104.81,685.76,115.53Z"/><line class="cls-4" x1="536.76" y1="13.22" x2="534.7" y2="24.23"/><polyline class="cls-4" points="555.83 27.51 558.89 9.11 558.91 9"/><line class="cls-4" x1="584.23" y1="14.28" x2="581.24" y2="32.22"/><line class="cls-4" x1="612.71" y1="19.55" x2="609.63" y2="38"/><line class="cls-4" x1="641.19" y1="26.94" x2="638.05" y2="44.22"/><polyline class="cls-4" points="666.61 50.92 669.58 33.81 669.67 33.27"/><line class="cls-4" x1="697.1" y1="42.76" x2="694.07" y2="57.91"/><polyline class="cls-5" points="713.62 63.53 715.43 54.45 715.46 54.32"/></svg>