<?xml version="1.0" encoding="utf-8"?>
<!-- Generator: Adobe Illustrator 23.0.1, SVG Export Plug-In . SVG Version: 6.00 Build 0)  -->
<svg version="1.1" id="Слой_1" xmlns="http://www.w3.org/2000/svg" xmlns:xlink="http://www.w3.org/1999/xlink" x="0px" y="0px"
	 viewBox="0 0 1024 1024" style="enable-background:new 0 0 1024 1024;" xml:space="preserve">
<style type="text/css">
	.st0{fill:#F59E0B;}
	.st1{fill:#8B7064;}
	.st2{fill:#0D9488;}
	.st3{fill:#FFD64B;}
</style>
<path class="st0" d="M533.79,770.85c0-0.04,0-0.04,0-0.04l-23.64-182.46c-0.81-6.06-4.32-11.41-9.53-14.52l-7.76-4.69
	c-1.55-0.92-2.66-2.44-3.07-4.21l-27.93-124.16c9.42-1.26,20.84-2.36,35.94-2.36c21.54,0,38.27,1,51.75,0.92
	c0.22,4.8,1.37,9.49,3.4,13.85l45.4,97.3c1.88,4.03,2.88,8.46,2.88,12.93v31.4c0,1.63,0.11,3.25,0.3,4.88l19.62,170.19
	C591.9,770.44,562.79,770.73,533.79,770.85z"/>
<path class="st0" d="M519.13,770.85c-4.66,0.04-9.31,0.04-13.93,0.04c-13.97,0-27.85-0.04-41.67-0.11
	c-18.51-0.11-36.9-0.29-55.19-0.59c-12.45-0.15-24.83-0.37-37.17-0.67c-18.47-0.41-36.83-0.92-55.19-1.59
	c-13.63-0.48-27.26-1.03-40.86-1.7c-18.4-0.85-36.76-1.81-55.19-2.99c-13.6-0.85-27.23-1.77-40.86-2.81
	c-18.32-1.37-36.68-2.95-55.19-4.69c-8.65-0.81-17.36-1.66-26.08-2.59c-15.03-1.55-30.18-3.25-45.4-5.06
	c-3.44-0.41-6.72-1.29-9.79-2.59c-12.67-5.32-21.35-17.47-21.35-31.4V234.6c0-15.44,10.64-29.04,26.08-33.06
	c67.72-17.58,148.99-16.14,221.43-21.72l58.48,109.72c0.41,0.74,0.96,1.37,1.63,1.92l34.1,27.26c1.18,0.96,2.03,2.29,2.33,3.77
	l20.76,96.86c0.55,2.59,2.62,4.62,5.25,5.1l50.57,9.49c2.55,0.48,4.58,2.4,5.21,4.95l30.26,127.78c1.29,5.39,4.65,10.01,9.42,12.89
	l5.14,3.07c3.73,2.25,6.21,6.1,6.69,10.42L519.13,770.85z"/>
<path class="st0" d="M1003.92,447.68v266.32c0,17.14-13.08,31.55-30.59,33.91l-0.66,0.11c-18.21,2.14-36.39,4.06-54.53,5.84
	c-11.16,1.11-22.31,2.11-33.47,3.07c-18.43,1.59-36.83,2.99-55.19,4.25c-13.63,0.96-27.26,1.85-40.86,2.59l-3.18,0.15
	c-16.36,0.96-32.66,1.77-48.95,2.48l-3.06,0.15c-11.16,0.48-22.31,0.92-33.47,1.29c-18.43,0.67-36.83,1.18-55.19,1.55
	c-2.96,0.11-5.91,0.15-8.87,0.22l-19.58-169.9c-0.18-1.63-0.3-3.25-0.3-4.91v-34.76c0-4.65-1.04-9.27-2.99-13.52l-45.48-97.42
	c-2.14-4.58-3.25-9.61-3.25-14.7v-40.3c75.99-5.73,133.69-8.83,232.73,0c46.18,4.1,108.46,5.02,182.94,23.2
	C994.02,420.67,1003.92,433.23,1003.92,447.68z"/>
<path class="st1" d="M513.83,588.36c-0.78-6.05-4.29-11.41-9.52-14.54l-7.77-4.66c-1.55-0.93-2.65-2.45-3.05-4.21l-31.66-140.72
	c-0.59-2.6-6.37-4.6-9-5.06l-43.94-7.75c-5.88-1.04-9.54-11.52-10.83-17.34L379.6,312.8c-0.75-3.38-5.17-4.88-7.88-7.04
	l-31.74-25.39c-0.67-0.54-1.24-1.21-1.66-1.96l-50.63-93.77c-2.01-3.73-6-5.97-10.23-5.74c-3.97,0.21-8.22,0.43-11.11,0.65
	l60.9,109.98c0.41,0.74,0.97,1.38,1.63,1.91l34.1,27.28c1.19,0.95,2.01,2.29,2.33,3.78l20.75,96.83c0.56,2.61,2.63,4.62,5.25,5.11
	l50.56,9.48c2.57,0.48,4.61,2.43,5.22,4.97l30.26,127.78c1.28,5.38,4.67,10.02,9.41,12.87l5.14,3.08c3.73,2.24,6.21,6.08,6.71,10.4
	l20.52,177.83c4.88-0.01,9.76-0.01,14.65-0.03c0.01-0.01,3.7-0.01,3.71-0.02L513.83,588.36z"/>
<path class="st1" d="M616.03,594.79v-34.76c0-4.68-1.02-9.3-3.01-13.54l-45.45-97.39c-2.15-4.61-3.26-9.63-3.26-14.71v-41.2
	c-3.65,0.28-7.34,0.57-11.08,0.89c-0.48,0.04-2.01,0.08-3.78,0.13c-4.06,0.1-7.3,3.41-7.3,7.47v35.98c0,5.36,5.12,10.67,7.39,15.53
	L595,551c1.89,4.05,5,12.53,5,17l-2.45,26.82c0,1.62,0.09,3.25,0.28,4.86l19.64,170.22c4.91-0.09,13.52-0.2,18.43-0.31l-19.6-169.88
	C616.12,598.07,616.03,596.43,616.03,594.79z"/>
<path class="st2" d="M435.08,501.22c-15.1,0.45-26.74,13.54-26.74,28.55v49.53c0,4.8,3.91,8.69,8.74,8.69h37.7
	c4.83,0,8.74-3.89,8.74-8.69v-50.68C463.52,513.2,450.71,500.75,435.08,501.22z"/>
<path class="st2" d="M542.21,501.22c-15.1,0.45-26.74,13.54-26.74,28.55v49.53c0,4.8,3.91,8.69,8.74,8.69h37.7
	c4.83,0,8.74-3.89,8.74-8.69v-50.68C570.65,513.2,557.84,500.75,542.21,501.22z"/>
<path class="st2" d="M342.73,501.22c-15.1,0.45-26.74,13.54-26.74,28.55l0,49.53c0,4.8,3.91,8.69,8.74,8.69h37.7
	c4.83,0,8.74-3.89,8.74-8.69v-50.68C371.16,513.2,358.35,500.75,342.73,501.22z"/>
<path class="st2" d="M246.68,501.22c-15.1,0.45-26.74,13.54-26.74,28.55l0,49.53c0,4.8,3.91,8.69,8.74,8.69h37.7
	c4.83,0,8.74-3.89,8.74-8.69v-50.68C275.11,513.2,262.3,500.75,246.68,501.22z"/>
<path class="st2" d="M158.02,501.22c-15.1,0.45-26.74,13.54-26.74,28.55l0,49.53c0,4.8,3.91,8.69,8.74,8.69h37.7
	c4.83,0,8.74-3.89,8.74-8.69v-50.68C186.45,513.2,173.64,500.75,158.02,501.22z"/>
<path class="st2" d="M69.35,501.22c-15.1,0.45-26.74,13.54-26.74,28.55l0,49.53c0,4.8,3.91,8.69,8.74,8.69h37.7
	c4.83,0,8.74-3.89,8.74-8.69v-50.68C97.79,513.2,84.98,500.75,69.35,501.22z"/>
<path class="st2" d="M246.68,349.76c-15.1,0.45-26.74,13.54-26.74,28.55l0,49.53c0,4.8,3.91,8.69,8.74,8.69h37.7
	c4.83,0,8.74-3.89,8.74-8.69v-50.68C275.11,361.74,262.3,349.29,246.68,349.76z"/>
<path class="st2" d="M342.73,349.76c-15.1,0.45-26.74,13.54-26.74,28.55l0,49.53c0,4.8,3.91,8.69,8.74,8.69h37.7
	c4.83,0,8.74-3.89,8.74-8.69v-50.68C371.16,361.74,358.35,349.29,342.73,349.76z"/>
<path class="st2" d="M158.02,349.76c-15.1,0.45-26.74,13.54-26.74,28.55l0,49.53c0,4.8,3.91,8.69,8.74,8.69h37.7
	c4.83,0,8.74-3.89,8.74-8.69v-50.68C186.45,361.74,173.64,349.29,158.02,349.76z"/>
<path class="st2" d="M69.35,349.76c-15.1,0.45-26.74,13.54-26.74,28.55l0,49.53c0,4.8,3.91,8.69,8.74,8.69h37.7
	c4.83,0,8.74-3.89,8.74-8.69v-50.68C97.79,361.74,84.98,349.29,69.35,349.76z"/>
<path class="st2" d="M463.53,770.77v-79.61c0-15.4-12.82-27.85-28.45-27.41c-15.11,0.48-26.75,13.56-26.75,28.56v77.87
	L463.53,770.77z"/>
<path class="st2" d="M371.17,769.52v-78.35c0-15.4-12.82-27.85-28.45-27.41c-15.11,0.48-26.75,13.56-26.75,28.56v75.62
	L371.17,769.52z"/>
<path class="st2" d="M275.12,691.16v75.07c-18.4-0.85-36.76-1.81-55.19-2.99v-70.93c0-15,11.64-28.08,26.75-28.56
	C262.31,663.31,275.12,675.76,275.12,691.16z"/>
<path class="st2" d="M179.07,691.16v69.27c-18.32-1.37-36.68-2.95-55.19-4.69v-63.43c0-15,11.64-28.08,26.75-28.56
	C166.26,663.31,179.07,675.76,179.07,691.16z"/>
<path class="st2" d="M97.8,691.16v61.99c-15.03-1.55-30.18-3.25-45.4-5.06c-3.44-0.41-6.72-1.29-9.79-2.59v-53.2
	c0-15,11.64-28.08,26.75-28.56C84.98,663.31,97.8,675.76,97.8,691.16z"/>
<path class="st2" d="M944.88,504.91c-15.1,0.45-26.74,13.54-26.74,28.55v49.53c0,4.8,3.91,8.69,8.74,8.69h37.7
	c4.83,0,8.74-3.89,8.74-8.69v-50.68C973.32,516.89,960.51,504.45,944.88,504.91z"/>
<path class="st2" d="M856.22,504.91c-15.1,0.45-26.74,13.54-26.74,28.55v49.53c0,4.8,3.91,8.69,8.74,8.69h37.7
	c4.83,0,8.74-3.89,8.74-8.69v-50.68C884.66,516.89,871.85,504.45,856.22,504.91z"/>
<path class="st2" d="M760.17,504.91c-15.1,0.45-26.74,13.54-26.74,28.55v49.53c0,4.8,3.91,8.69,8.74,8.69h37.7
	c4.83,0,8.74-3.89,8.74-8.69v-50.68C788.61,516.89,775.8,504.45,760.17,504.91z"/>
<path class="st2" d="M671.51,504.91c-15.1,0.45-26.74,13.54-26.74,28.55v49.53c0,4.8,3.91,8.69,8.74,8.69h37.7
	c4.83,0,8.74-3.89,8.74-8.69v-50.68C699.95,516.89,687.14,504.45,671.51,504.91z"/>
<path class="st2" d="M973.33,691.16v56.74l-0.66,0.11c-18.21,2.14-36.39,4.06-54.53,5.84v-61.55c0-15,11.64-28.08,26.75-28.56
	C960.51,663.31,973.33,675.76,973.33,691.16z"/>
<path class="st2" d="M884.67,691.16v65.76c-18.43,1.59-36.83,2.99-55.19,4.25v-68.86c0-15,11.64-28.08,26.75-28.56
	C871.85,663.31,884.67,675.76,884.67,691.16z"/>
<path class="st2" d="M788.62,763.75v-72.59c0-15.4-12.82-27.85-28.45-27.41c-15.11,0.48-26.75,13.56-26.75,28.56v74.22
	L788.62,763.75z"/>
<path class="st2" d="M699.96,767.82v-76.65c0-15.4-12.82-27.85-28.45-27.41c-15.11,0.48-26.75,13.56-26.75,28.56v77.06
	L699.96,767.82z"/>
<path class="st2" d="M548.72,770.77v-77.06c0-15.74,11.64-29.44,26.75-29.96c15.63-0.48,28.45,12.6,28.45,28.78v77.65L548.72,770.77
	z"/>
<path class="st2" d="M231.2,231.53h23.43c1.69,0,3.06,1.37,3.06,3.06v23.43c0,1.69-1.37,3.06-3.06,3.06H231.2
	c-1.69,0-3.06-1.37-3.06-3.06v-23.43C228.13,232.9,229.51,231.53,231.2,231.53z"/>
<path class="st2" d="M147.71,231.53h23.43c1.69,0,3.06,1.37,3.06,3.06v23.43c0,1.69-1.37,3.06-3.06,3.06h-23.43
	c-1.69,0-3.06-1.37-3.06-3.06v-23.43C144.65,232.9,146.02,231.53,147.71,231.53z"/>
<path class="st2" d="M72.35,231.53h23.43c1.69,0,3.06,1.37,3.06,3.06v23.43c0,1.69-1.37,3.06-3.06,3.06H72.35
	c-1.69,0-3.06-1.37-3.06-3.06v-23.43C69.28,232.9,70.65,231.53,72.35,231.53z"/>
<path class="st2" d="M858.52,434.71h23.43c1.69,0,3.06,1.37,3.06,3.06v23.43c0,1.69-1.37,3.06-3.06,3.06h-23.43
	c-1.69,0-3.06-1.37-3.06-3.06v-23.43C855.45,436.08,856.83,434.71,858.52,434.71z"/>
<path class="st2" d="M934.1,434.71h23.43c1.69,0,3.06,1.37,3.06,3.06v23.43c0,1.69-1.37,3.06-3.06,3.06H934.1
	c-1.69,0-3.06-1.37-3.06-3.06v-23.43C931.03,436.08,932.4,434.71,934.1,434.71z"/>
<path class="st2" d="M782.03,434.71h23.43c1.69,0,3.06,1.37,3.06,3.06v23.43c0,1.69-1.37,3.06-3.06,3.06h-23.43
	c-1.69,0-3.06-1.37-3.06-3.06v-23.43C778.97,436.08,780.34,434.71,782.03,434.71z"/>
<path class="st2" d="M702.67,434.71h23.43c1.69,0,3.06,1.37,3.06,3.06v23.43c0,1.69-1.37,3.06-3.06,3.06h-23.43
	c-1.69,0-3.06-1.37-3.06-3.06v-23.43C699.6,436.08,700.98,434.71,702.67,434.71z"/>
<path class="st2" d="M622.78,434.71h23.43c1.69,0,3.06,1.37,3.06,3.06v23.43c0,1.69-1.37,3.06-3.06,3.06h-23.43
	c-1.69,0-3.06-1.37-3.06-3.06v-23.43C619.72,436.08,621.09,434.71,622.78,434.71z"/>
<path class="st3" d="M1006.29,618.57c-2.26-0.66-4.7-1.1-7-1.39c-5.94-2.39-88.54-4.27-189.57-4.26
	c-94.54,0.01-172.93,1.67-187.49,3.85c-10.59,0.59-18.59,3.32-18.59,6.6l0,2.64c0,1.86,2.56,3.53,6.71,4.75
	c6.56,1.92,14.67,1.97,16.2,1.97c0.69,0,1.39,0,2.08,0c22.71,1.9,95.88,3.29,182.63,3.28c92.89-0.01,170.19-1.62,186.67-3.73
	c8.79-0.94,15.07-3.41,15.07-6.31l0-2.64C1013,621.46,1010.44,619.78,1006.29,618.57z"/>
<path class="st3" d="M454.54,461.91c-2.51-0.74-5.23-1.22-7.78-1.55c-6.6-2.65-98.41-4.75-210.71-4.74
	c-105.08,0.01-192.21,1.86-208.39,4.27C15.9,460.56,7,463.59,7,467.24l0,2.94c0,2.06,2.85,3.93,7.46,5.28
	c7.29,2.14,16.31,2.19,18,2.19c0.77,0,1.54,0,2.31,0c25.25,2.12,106.57,3.66,202.99,3.65c103.24-0.01,189.16-1.8,207.48-4.15
	c9.77-1.05,16.75-3.79,16.75-7.01l0-2.94C462,465.13,459.15,463.26,454.54,461.91z"/>
<path class="st3" d="M352.25,295.28c-1.94-0.74-4.03-1.22-6-1.55c-5.09-2.65-75.91-4.75-162.54-4.74
	c-81.06,0.01-148.27,1.86-160.76,4.27C13.86,293.92,7,296.95,7,300.6l0,2.94c0,2.06,2.2,3.93,5.75,5.28
	c5.62,2.14,12.58,2.19,13.89,2.19c0.6,0,1.19,0,1.79,0c19.48,2.12,82.21,3.66,156.59,3.65c79.64-0.01,145.92-1.79,160.05-4.14
	c7.53-1.05,12.93-3.79,12.92-7.01l0-2.94C358,298.5,355.8,296.63,352.25,295.28z"/>
<path class="st3" d="M503.77,618.56c-2.77-0.66-5.77-1.1-8.58-1.39c-7.29-2.39-108.57-4.27-232.47-4.26
	c-115.93,0.01-212.06,1.68-229.92,3.85c-12.98,0.59-22.8,3.32-22.8,6.6l0,2.64c0,1.86,3.14,3.53,8.23,4.75
	c8.04,1.92,17.99,1.97,19.86,1.97c0.85,0,1.7,0,2.55,0c27.86,1.9,117.58,3.29,223.96,3.28c113.91-0.01,208.7-1.62,228.91-3.74
	c10.78-0.94,18.49-3.41,18.49-6.31l0-2.64C512,621.46,508.85,619.78,503.77,618.56z"/>
</svg>
