<?xml version="1.0" encoding="utf-8"?>
<!-- Generator: Adobe Illustrator 23.0.1, SVG Export Plug-In . SVG Version: 6.00 Build 0)  -->
<svg version="1.1" id="Слой_1" xmlns="http://www.w3.org/2000/svg" xmlns:xlink="http://www.w3.org/1999/xlink" x="0px" y="0px"
	 viewBox="0 0 1024 1024" style="enable-background:new 0 0 1024 1024;" xml:space="preserve">
<style type="text/css">
	.st0{fill:none;stroke:#231F20;stroke-width:8;stroke-linecap:round;stroke-miterlimit:10;}
	.st1{fill:#F59E0B;}
	.st2{fill:#FFD64B;}
	.st3{fill:#0D9488;}
	.st4{fill:#231F20;}
	.st5{fill:none;stroke:#231F20;stroke-width:2;stroke-linecap:round;stroke-miterlimit:10;}
	.st6{fill:none;stroke:#231F20;stroke-width:3;stroke-miterlimit:10;}
	.st7{fill:#FFFFFF;}
	.st8{fill:#212121;}
</style>
<g>
	<path class="st0" d="M422.68,390.59c-18.97,27.94-33.09,57.35-52.07,85.29v0c-3.88,6.21,0.33,14.19,10.91,19.23
		C417,512,411,510,446,524"/>
	<path class="st0" d="M605.53,390.59c18.97,27.94,33.09,57.35,52.07,85.29v0c3.88,6.21,0.77,20.19-10.91,19.23
		C597,491,570,488,530,483"/>
	<path class="st1" d="M673,733.52c-7.4-62.4-54.49-145.58-63.56-211.29c-7-50.73-4-69.47,5.38-131.23
		c-17.05,0.98-30.33,3.04-48.02,3.04c-18.4,0-35.14,0.94-53.53,0.94h-0.1c-18.39,0-35.13-0.94-53.53-0.94
		c-17.69,0-30.97-2.06-48.02-3.04C421,452.76,424,471.5,417,522.23c-9.07,65.71-56.16,148.89-63.56,211.29
		c26.92,1.86,64.04,6.99,90.97,7.93c21.46,0.74,46.92,3.53,68.03,3.59v0.01h0.73h0.1H514v-0.01c21.11-0.06,46.57-2.85,68.03-3.59
		C608.96,740.51,646.08,735.38,673,733.52z"/>
	<path class="st2" d="M596.85,553h-164.7c-3.4,0-6.15-2.75-6.15-6.15v-10.7c0-3.4,2.75-6.15,6.15-6.15h164.7
		c3.4,0,6.15,2.75,6.15,6.15v10.7C603,550.25,600.25,553,596.85,553z"/>
	<path class="st2" d="M587.85,517h-146.7c-3.4,0-6.15-2.75-6.15-6.15v-19.7c0-3.4,2.75-6.15,6.15-6.15h146.7
		c3.4,0,6.15,2.75,6.15,6.15v19.7C594,514.25,591.25,517,587.85,517z"/>
	<path class="st3" d="M580.85,530h-132.7c-3.4,0-6.15-2.75-6.15-6.15v-0.7c0-3.4,2.75-6.15,6.15-6.15h132.7
		c3.4,0,6.15,2.75,6.15,6.15v0.7C587,527.25,584.25,530,580.85,530z"/>
	<path class="st2" d="M611.65,366.16c-16.74,0.88-33.27,1.33-49.9,1.33c-15.97,0-31.88,0.55-47.86,0.55h-0.18h-0.18
		c-15.98,0-31.89-0.55-47.86-0.55c-16.63,0-33.17-0.45-49.9-1.33c-4.54,1-7.84,15.88-7.84,19.55c0,4.47,4.93,8.1,11.02,8.1
		c0.69,0.04,1.38,0.08,2.08,0.12c5.73,0.33,11.5,0.61,17.27,0.83c12.29,0.48,24.64,0.73,36.93,0.73c1.36,0,2.72,0.01,4.08,0.02
		c0.05,0,0.1,0,0.15,0.01c11.35,0.09,22.71,0.53,34.07,0.53h0.18h0.18c11.36,0,22.72-0.44,34.07-0.53c0.05-0.01,0.1-0.01,0.15-0.01
		c1.36-0.01,2.72-0.02,4.08-0.02c12.29,0,24.64-0.24,36.93-0.73c5.77-0.22,11.53-0.5,17.27-0.83c0.7-0.04,1.39-0.08,2.08-0.12
		c6.09,0,11.02-3.63,11.02-8.1C619.49,382.05,616.18,367.17,611.65,366.16z"/>
	<path class="st0" d="M409,508c28,14,56,26.33,87,39"/>
	<path class="st4" d="M506.49,565.74l-9.85-2.51c-3.89-0.99-6.1-4.49-4.95-7.82l5.46-15.72c1.16-3.33,5.25-5.22,9.13-4.23l9.85,2.51
		c3.89,0.99,6.1,4.49,4.95,7.82l-5.46,15.72C514.47,564.83,510.38,566.73,506.49,565.74z"/>
	<path class="st2" d="M677.29,723.36h-15.46c-27.58,3.26-53.85,4.9-81.43,6.53c-22.34,1.32-46.45,1.63-68.3,1.63
		c-21.85,0-45.96-0.31-68.3-1.63c-27.58-1.63-53.85-3.26-81.43-6.53H346.9c-9.59,0-17.37,9.66-17.37,21.59v4.16
		c0,11.92,7.78,21.59,17.37,21.59c27.29,3.26,54.25,4.94,81.13,6.53c28.18,1.67,55.16,3.26,84.06,3.26
		c28.89,0,55.88-1.59,84.06-3.26c26.88-1.59,53.85-3.26,81.13-6.53c9.59,0,17.37-9.66,17.37-21.59v-4.16
		C694.66,733.03,686.88,723.36,677.29,723.36z"/>
	<path class="st1" d="M707.92,763.18h-18.33c-32.7,5.7-63.83,8.56-96.53,11.41c-26.48,2.31-55.06,2.85-80.96,2.85
		c-25.9,0-54.48-0.54-80.96-2.85c-32.7-2.85-63.83-5.7-96.53-11.41h-18.33c-11.37,0-20.59,16.89-20.59,37.72v7.27
		c0,20.83,9.22,37.72,20.59,37.72c32.34,5.7,64.31,8.62,96.18,11.41c33.41,2.92,65.39,5.7,99.64,5.7c34.25,0,66.24-2.78,99.64-5.7
		c31.87-2.78,63.83-5.7,96.18-11.41c11.37,0,20.59-16.89,20.59-37.72v-7.27C728.51,780.06,719.29,763.18,707.92,763.18z"/>
	<path class="st3" d="M623.18,333.42c0.01,0.02,0.01,0.03,0.01,0.04c-0.04-0.43-0.45-3.39-0.47-3.44
		c-0.88-8.55-6.73-16.91-15.13-19.54c-2.26-0.71-4.7-0.59-6.89,0.3c-7.31,2.96-42.51,5.2-84.82,5.2c-1.07,0-2.13,0-3.18-0.01v0
		c-0.08,0-0.17,0-0.25,0c-0.08,0-0.17,0-0.25,0v0c-1.06,0.01-2.12,0.01-3.18,0.01c-42.33,0-77.54-2.25-84.83-5.21
		c-2.18-0.89-4.62-1-6.87-0.29c-8.41,2.63-14.27,10.98-15.14,19.54c-0.01,0.05-0.42,3-0.47,3.44c0-0.01,0-0.02,0.01-0.04
		l-3.78,26.47c0,7.91,3.87,11.33,11.69,13.01c0.72,0.15,1.42,0.4,2.06,0.75c3.17,1.06,40.67,5.82,91.51,5.82
		c3.13,0,6.21-0.01,9.26-0.03c3.05,0.02,6.13,0.03,9.26,0.03c48.71,0,81.78-2.43,86.32-4.49c0.77-0.35,1.59-0.59,2.41-0.82
		l3.75-1.04c5.9-0.53,12.78-4.95,12.78-13.22L623.18,333.42z"/>
	<g>
		<path class="st5" d="M409.93,372.97c1.03-9.81,2.85-21.01,5.98-33.19c2.77-10.74,6.07-20.3,9.44-28.6"/>
		<path class="st5" d="M402.59,370.2c1.04-9.65,2.85-20.63,5.91-32.53c2.61-10.14,5.7-19.23,8.88-27.21"/>
		<path class="st5" d="M421.18,375.12c1.43-9.26,3.17-18.94,5.31-28.99c2.51-11.76,5.3-22.86,8.25-33.27"/>
		<path class="st5" d="M478.54,379.08c0.99-20.56,3.03-41.71,6.3-63.36"/>
		<path class="st5" d="M453.67,377.95c1.23-9.89,2.73-20.15,4.55-30.76c1.93-11.18,4.06-21.89,6.36-32.11"/>
		<path class="st5" d="M433.62,376.42c1.25-10.04,3.04-20.9,5.56-32.4c2.37-10.79,5.09-20.8,7.94-29.96"/>
		<path class="st5" d="M599.08,311.18c3.36,8.3,6.66,17.87,9.44,28.6c3.13,12.18,4.95,23.38,5.98,33.19"/>
		<path class="st5" d="M607.04,310.46c3.17,7.98,6.26,17.06,8.88,27.21c3.07,11.9,4.88,22.88,5.91,32.53"/>
		<path class="st5" d="M589.68,312.86c2.95,10.41,5.74,21.51,8.25,33.27c2.14,10.05,3.88,19.73,5.31,28.99"/>
		<path class="st5" d="M513.07,379.45c-0.86-21.16-1.71-42.31-2.58-63.47"/>
		<path class="st5" d="M539.57,315.73c3.28,21.64,5.31,42.79,6.3,63.36"/>
		<path class="st5" d="M559.84,315.08c2.3,10.22,4.43,20.92,6.36,32.11c1.82,10.61,3.32,20.87,4.55,30.76"/>
		<path class="st5" d="M577.3,314.06c2.86,9.16,5.57,19.17,7.94,29.96c2.53,11.5,4.32,22.36,5.56,32.4"/>
	</g>
	<path class="st1" d="M625.49,161h-34.96c-2.36,0-4.27,3.6-4.27,8.04v17.4c0,4.44-1.91,8.04-4.27,8.04h-28.56
		c-2.36,0-4.27-3.6-4.27-8.04v-17.4c0-4.44-1.91-8.04-4.27-8.04h-32.46h-32.46c-2.36,0-4.27,3.6-4.27,8.04v17.4
		c0,4.44-1.91,8.04-4.27,8.04h-28.56c-2.36,0-4.27-3.6-4.27-8.04v-17.4c0-4.44-1.91-8.04-4.27-8.04h-34.96
		c-3.04,0-5.51,4.64-5.51,10.37v100.31c0,9.9,2.13,18.86,5.58,25.35C404.88,307.28,411.73,309,413,309c1.98,0.3,3.85,1.1,5.82,1.37
		c16.02,2.17,31.86,5.26,47.78,5.26c15.3,0,30.53,1.37,45.83,1.37c15.3,0,30.53-1.37,45.83-1.37c15.92,0,32.72-2,47.75-4.63
		c1.96-0.34,4-1,6-2c1,0,7.97-1.72,13.42-11.98c3.45-6.49,5.58-15.45,5.58-25.35V171.37C631,165.64,628.53,161,625.49,161z"/>
	<circle class="st6" cx="469.5" cy="246.5" r="41"/>
	<circle class="st6" cx="557.5" cy="246.5" r="41"/>
	<path class="st6" d="M509.99,240.05c0.84-0.7,2.45-1.11,4.05-1.05c1.82,0.08,2.81,0.73,2.96,0.83"/>
	<path class="st4" d="M425.02,250h-4.04c-2.2,0-3.98-1.78-3.98-3.98v-12.04c0-2.2,1.78-3.98,3.98-3.98h4.04
		c2.2,0,3.98,1.78,3.98,3.98v12.04C429,248.22,427.22,250,425.02,250z"/>
	<path class="st4" d="M605.02,250h-4.04c-2.2,0-3.98-1.78-3.98-3.98v-12.04c0-2.2,1.78-3.98,3.98-3.98h4.04
		c2.2,0,3.98,1.78,3.98,3.98v12.04C609,248.22,607.22,250,605.02,250z"/>
	<path class="st4" d="M634,240L634,240c0,1.32-1.07,2.39-2.39,2.39h-23.23c-1.32,0-2.39-1.07-2.39-2.39l0,0
		c0-1.32,1.07-2.39,2.39-2.39h23.23C632.93,237.61,634,238.68,634,240z"/>
	<path class="st4" d="M419,240L419,240c0,1.32-1.07,2.39-2.39,2.39h-24.23c-1.32,0-2.39-1.07-2.39-2.39l0,0
		c0-1.32,1.07-2.39,2.39-2.39h24.23C417.93,237.61,419,238.68,419,240z"/>
	
		<ellipse transform="matrix(0.9999 -0.0155 0.0155 0.9999 -3.8103 7.5245)" class="st7" cx="483.75" cy="249.69" rx="20.28" ry="25.3"/>
	
		<ellipse transform="matrix(0.9999 -0.0155 0.0155 0.9999 -3.9612 7.525)" class="st8" cx="483.71" cy="259.43" rx="17.09" ry="16.04"/>
	
		<ellipse transform="matrix(0.9999 -0.0155 0.0155 0.9999 -3.8031 8.4541)" class="st7" cx="543.75" cy="249.69" rx="20.28" ry="25.3"/>
	
		<ellipse transform="matrix(0.9999 -0.0155 0.0155 0.9999 -3.954 8.4546)" class="st8" cx="543.71" cy="259.43" rx="17.09" ry="16.04"/>
	<path class="st6" d="M530.66,202.09c3.85-3.07,11.35-5.14,18.96-5.26c8.61-0.13,13.46,2.3,14.16,2.66"/>
	<path class="st6" d="M494.76,202.09c-3.85-2.97-11.36-4.99-18.97-5.12c-8.61-0.14-13.45,2.2-14.16,2.55"/>
	<g>
		<path class="st3" d="M568.63,485h-113.4c-8.49,0-15.37-6.88-15.37-15.37v-55.27c0-8.49,6.88-15.37,15.37-15.37h113.4
			c8.49,0,15.37,6.88,15.37,15.37v55.27C584,478.12,577.12,485,568.63,485z"/>
		<path class="st2" d="M516.24,482.65h-7.68c-1.71,0-3.09-1.38-3.09-3.09v-77.47c0-1.71,1.38-3.09,3.09-3.09h7.68
			c1.71,0,3.09,1.38,3.09,3.09v77.47C519.33,481.27,517.94,482.65,516.24,482.65z"/>
	</g>
	<path class="st4" d="M520.29,496.55l-10.59-1.31c-3.99-0.63-6.92-3.96-6.53-7.42l1.84-16.36c0.39-3.46,3.72-5.62,7.71-4.99
		l10.35,1.47c3.99,0.63,6.92,3.96,6.53,7.42l-1.84,16.36C527.37,495.19,524.28,497.19,520.29,496.55z"/>
	<path class="st0" d="M615.64,492.39c-29.85-3.19-59.12-6.33-91.27-9.77"/>
	<line class="st6" x1="494.5" y1="299.5" x2="535.5" y2="299.5"/>
</g>
</svg>
