<?xml version="1.0" encoding="utf-8"?>
<!-- Generator: Adobe Illustrator 23.0.1, SVG Export Plug-In . SVG Version: 6.00 Build 0)  -->
<svg version="1.1" id="Слой_1" xmlns="http://www.w3.org/2000/svg" xmlns:xlink="http://www.w3.org/1999/xlink" x="0px" y="0px"
	 viewBox="0 0 1024 1024" style="enable-background:new 0 0 1024 1024;" xml:space="preserve">
<style type="text/css">
	.st0{fill:#B1DFDB;}
	.st1{fill:#0D9488;}
	.st2{fill:#FFFFFF;}
	.st3{fill:#212121;}
	.st4{fill:#08BDA5;}
	.st5{fill:#F59E0B;}
</style>
<path class="st0" d="M0.13,662.72c-3.51,98.45,67.84,165.43,71.6,168.85c52.68,47.92,117.41,52.19,244.73,58.78
	c159.61,8.26,163.62-18.55,298.16-6.41c115.3,10.41,143.48,32.9,216.94,13.89c30.83-7.98,106.91-28.92,154.96-102.59
	c8.53-13.07,49.18-78.43,34.2-160.3c-16.58-90.6-90.15-140.5-130.38-167.78c-99.4-67.42-198.36-30.23-339.84-36.34
	c-180.78-7.8-289.94-20.83-396.48,45.95C117.02,499.96,4.51,539.65,0.13,662.72z"/>
<path class="st1" d="M1006.82,256.62c-4.33,7.37-9.62,11.62-15.8,14.14c-4.64,1.9-9.79,2.81-15.42,3.36
	c-3.33,0.32-6.81,0.5-10.46,0.67c-2.25,0.11-11.38-0.06-13.89,0c-1.75,0.05-3.51-0.08-5.27-0.35c-16.44-2.47-32.54-16.6-40.68-10.33
	c-2.21,1.7-3.9,3.55-5.3,5.47c-1.76,2.38-3.05,4.88-4.32,7.35c-8.99,17.55-7.71,35.15-7.48,38.47c3.08,45.14-3.71,90.56-1.07,135.72
	c8.72,149.06-3.21,198.78,0,241.53c0.09,1.08,1.4,26.05,0,29.92c-4.41,12.17-30.35,17.56-60.45,15.19
	c-19.95-1.56-41.74-6.53-60.31-15.19c-10.87-5.07-5.87-2.07-11.76-8.55c-19.49-21.46,5.35-64.12,16.03-109.01
	c21.1-88.58,34.2-170.27,34.2-247.93c0,0-1.69-56.18,19.24-138.93c0.63-2.51,0.53-0.53,6.41-16.03
	c8.77-23.12,30.58-34.85,35.8-36.87c18.83-7.3,50.23-6.41,67.86,12.29c20.37,21.61,49.38,20.88,61.99,41.68
	C997.46,221.41,1012.66,246.72,1006.82,256.62z"/>
<path class="st1" d="M646.68,699.06c-2.7,7.55-15.79,7.3-26.72,9.62c-3.39,0.72-13.59,2.71-29.92,2.13
	c-6.13-0.22-11.86-0.32-17.07-0.48c-16.89-0.54-28.28-1.81-29.95-10.2c-2.14-10.69,2.28-20.43-2.14-41.68
	c-0.36-1.72-2.75-26.57-25.65-37.4c-24.4-11.55-48.57,2.22-50.23,3.2c-24.85,14.7-29.92,43.82-29.92,59.85
	c0,1.39,0.24,10.82-1.07,13.89c-1.43,3.34-6,7.7-32.06,8.55c-0.94,0.03-1.88,0.06-2.8,0.09c-24.79,0.78-43.03,0.64-60.25-11.85
	c-3.73-2.7-7.28-3.39-7.48-6.41c-2.14-32.06,7.13-59.8,14.96-80.15c5.34-13.89,18.13-35.57,32.06-49.16
	c31.78-31,69.12-38.72,84.42-41.68c19.45-3.75,76.21-14.72,125.04,20.31c29.25,20.98,41.27,48.15,50.23,68.39
	C645.17,622.01,657.36,669.14,646.68,699.06z"/>
<path class="st1" d="M241.65,679.82c-0.62,6.05-5.45,10.38-11.76,16.03c-10.71,9.6-22.55,12.17-30.99,13.9
	c-6.63,1.36-13.32,2.71-20.16,2.84c-5.62,0.13-11.35-0.6-17.24-2.84c-22.83-8.71-31.78-34.09-36.34-47.03
	c-4.2-11.92-5.05-20.88-6.41-36.33c-5.36-61.1,9.64-83.99,13.89-118.63c0.13-1.04,0.43-3.63,1.35-4.78c0.22-0.3,0.48-0.5,0.79-0.56
	c0.78-0.16,3.55,0.22,10.69,19.24c11.14,29.68,10,43.65,16.03,61.98c7.84,23.87,22.62,39.31,32.06,49.16
	C218.8,659.16,243.11,665.42,241.65,679.82z"/>
<ellipse transform="matrix(0.2401 -0.9708 0.9708 0.2401 494.8672 1037.5146)" class="st2" cx="910.12" cy="202.67" rx="17.67" ry="22.05"/>
<ellipse transform="matrix(0.2401 -0.9708 0.9708 0.2401 499.1718 1048.7413)" class="st3" cx="919.44" cy="205.54" rx="12.82" ry="12.78"/>
<g>
	<path class="st3" d="M904.23,701.2c3.89,4.78,6.42,10.83,7,17.23c0.3,3.2,0.03,6.49-0.81,9.64c-0.84,3.15-2.22,6.15-4.01,8.86
		c-0.47,0.66-0.91,1.35-1.43,1.97l-1.57,1.86c-1.14,1.15-2.27,2.3-3.55,3.29c-2.52,2-5.27,3.71-8.22,4.92
		c-2.94,1.23-6.02,2.04-9.11,2.51c-3.12,0.36-6.25,0.39-9.3-0.05c3.06-0.46,6.02-1,8.89-1.87c2.86-0.89,5.59-2.04,8.18-3.4
		c2.57-1.42,4.96-3.09,7.12-5c2.17-1.9,4.1-4.05,5.66-6.45c3.17-4.75,4.99-10.34,5.03-16.15
		C908.15,712.73,906.69,706.82,904.23,701.2z"/>
</g>
<g>
	<path class="st3" d="M727.36,699.59c-1.65,4.82-2.51,9.75-1.81,14.42c0.14,1.17,0.49,2.29,0.76,3.42c0.41,1.09,0.74,2.21,1.29,3.24
		c0.99,2.1,2.25,4.09,3.79,5.88c0.7,0.94,1.59,1.75,2.39,2.61c0.89,0.79,1.73,1.64,2.69,2.35c1.84,1.54,3.89,2.81,5.98,4.06
		c4.25,2.39,8.88,4.19,13.76,5.7c-5.11,0.15-10.29-0.89-15.14-2.88c-2.4-1.05-4.75-2.28-6.89-3.86c-1.11-0.73-2.08-1.65-3.11-2.5
		c-0.93-0.96-1.93-1.86-2.75-2.93c-0.88-1.02-1.62-2.15-2.37-3.28c-0.35-0.58-0.65-1.19-0.97-1.79c-0.34-0.59-0.6-1.22-0.84-1.85
		c-0.55-1.24-0.89-2.57-1.23-3.88c-0.23-1.34-0.47-2.68-0.48-4.04C722.3,708.82,724.25,703.63,727.36,699.59z"/>
</g>
<g>
	<g>
		
			<ellipse transform="matrix(0.4093 -0.9124 0.9124 0.4093 -350.9619 702.658)" class="st4" cx="367.17" cy="622.37" rx="18.76" ry="13.63"/>
		
			<ellipse transform="matrix(0.6238 -0.7816 0.7816 0.6238 -291.7877 532.7686)" class="st4" cx="407.56" cy="569.5" rx="14.84" ry="10.78"/>
		
			<ellipse transform="matrix(0.7618 -0.6478 0.6478 0.7618 -389.109 296.6006)" class="st4" cx="208.78" cy="677.44" rx="10.78" ry="14.84"/>
		
			<ellipse transform="matrix(0.7618 -0.6478 0.6478 0.7618 -376.7569 274.3228)" class="st4" cx="184.66" cy="649.5" rx="7.87" ry="10.83"/>
		
			<ellipse transform="matrix(0.7618 -0.6478 0.6478 0.7618 -350.131 244.9695)" class="st4" cx="158.06" cy="598.62" rx="7" ry="9.63"/>
		
			<ellipse transform="matrix(0.7618 -0.6478 0.6478 0.7618 -368.8227 251.8421)" class="st4" cx="158.06" cy="627.47" rx="7" ry="9.63"/>
		
			<ellipse transform="matrix(0.9507 -0.31 0.31 0.9507 -175.3396 226.727)" class="st4" cx="625.79" cy="665.12" rx="13.63" ry="18.76"/>
		
			<ellipse transform="matrix(0.8129 -0.5824 0.5824 0.8129 -233.747 454.826)" class="st4" cx="590.99" cy="591.2" rx="17" ry="18.76"/>
		
			<ellipse transform="matrix(0.8129 -0.5824 0.5824 0.8129 -216.906 428.515)" class="st4" cx="558.46" cy="551.84" rx="13.63" ry="18.76"/>
		
			<ellipse transform="matrix(0.0625 -0.998 0.998 0.0625 48.1251 1413.5266)" class="st4" cx="776.47" cy="681.15" rx="18.76" ry="13.63"/>
		
			<ellipse transform="matrix(0.0625 -0.998 0.998 0.0625 121.4998 1380.6306)" class="st4" cx="795.65" cy="625.64" rx="15.63" ry="11.35"/>
		
			<ellipse transform="matrix(0.0625 -0.998 0.998 0.0625 325.4036 1232.533)" class="st4" cx="818.77" cy="443.06" rx="11.38" ry="8.27"/>
		
			<ellipse transform="matrix(0.0625 -0.998 0.998 0.0625 165.9827 1342.9363)" class="st4" cx="797.83" cy="583.12" rx="12.34" ry="8.97"/>
		
			<ellipse transform="matrix(0.0625 -0.998 0.998 0.0625 376.8109 1189.0675)" class="st4" cx="821.34" cy="393.96" rx="12.34" ry="8.97"/>
		
			<ellipse transform="matrix(0.0625 -0.998 0.998 0.0625 239.0469 1299.1591)" class="st4" cx="811.06" cy="522.34" rx="10.76" ry="7.82"/>
		
			<ellipse transform="matrix(0.0625 -0.998 0.998 0.0625 216.1719 1337.4575)" class="st4" cx="820" cy="553.66" rx="16.2" ry="11.77"/>
		
			<ellipse transform="matrix(0.2219 -0.9751 0.9751 0.2219 -136.7612 913.8016)" class="st4" cx="504.16" cy="542.59" rx="8.29" ry="11.41"/>
		
			<ellipse transform="matrix(0.5 -0.866 0.866 0.5 -386.3762 659.6118)" class="st4" cx="378.05" cy="664.42" rx="11.41" ry="8.29"/>
	</g>
</g>
<g>
	<path class="st3" d="M525.38,700.66c1.65,3.55,3.53,6.78,5.87,9.56c2.32,2.78,5.05,5.13,8.12,6.9c3.08,1.75,6.46,3.01,10.04,3.77
		c3.59,0.77,7.33,1.1,11.24,1.15c-3.6,1.6-7.63,2.16-11.64,1.97c-4.02-0.21-8.07-1.37-11.64-3.43c-3.58-2.06-6.59-5.07-8.68-8.55
		C526.62,708.53,525.4,704.59,525.38,700.66z"/>
</g>
<g>
	<path class="st3" d="M664.31,702.8c0.32,3.06-0.42,6.23-1.91,9.05c-1.5,2.82-3.84,5.26-6.66,6.91c-2.81,1.67-6.08,2.51-9.25,2.48
		c-3.16-0.02-6.29-0.77-8.91-2.41c3.05,0.03,5.91-0.18,8.62-0.73c2.71-0.52,5.23-1.46,7.5-2.8c2.28-1.33,4.32-3.08,6.07-5.19
		C661.54,708.01,662.99,705.56,664.31,702.8z"/>
</g>
<g>
	<path class="st3" d="M314.85,682.49c-0.13,4.43,0.27,8.7,1.46,12.66c1.15,3.97,3.17,7.56,5.79,10.65c1.29,1.56,2.79,2.95,4.4,4.22
		c1.61,1.26,3.32,2.42,5.17,3.39c1.84,0.97,3.76,1.86,5.78,2.55c2.01,0.72,4.11,1.26,6.27,1.8c-2.2,0.35-4.45,0.33-6.71,0.12
		c-2.24-0.28-4.48-0.8-6.63-1.6c-4.29-1.61-8.28-4.3-11.31-7.88c-1.51-1.79-2.8-3.77-3.79-5.89c-0.99-2.12-1.67-4.38-2.01-6.67
		C312.57,691.26,313.09,686.59,314.85,682.49z"/>
</g>
<g>
	<path class="st3" d="M391.26,719.36c6.05,0.16,12.02,0.12,17.94-0.23c5.91-0.39,11.78-1.04,17.44-2.39
		c5.65-1.34,11.07-3.44,15.64-6.78c1.14-0.82,2.2-1.73,3.12-2.77c0.92-1.03,1.76-2.14,2.38-3.39c0.61-1.25,1.1-2.59,1.33-4.02
		c0.29-1.43,0.26-2.93,0.39-4.46c0.16,0.74,0.38,1.46,0.54,2.22c0.15,0.75,0.26,1.52,0.31,2.31c0.07,1.57-0.09,3.19-0.58,4.74
		c-0.94,3.13-3,5.83-5.35,7.98c-2.39,2.13-5.11,3.81-7.99,5.1c-2.86,1.32-5.86,2.24-8.88,2.94c-6.06,1.36-12.22,1.78-18.31,1.51
		C403.15,721.87,397.09,721.06,391.26,719.36z"/>
</g>
<g>
	<path class="st3" d="M118.21,700.66c3.11,2.99,6.1,5.91,9.25,8.63c3.12,2.74,6.37,5.29,9.72,7.68c3.37,2.38,6.85,4.58,10.46,6.64
		c3.61,2.07,7.35,3.94,11.19,5.91c-4.3-0.36-8.51-1.5-12.54-3.07c-4.03-1.6-7.87-3.7-11.42-6.21c-3.54-2.53-6.8-5.44-9.63-8.73
		C122.42,708.21,119.96,704.61,118.21,700.66z"/>
</g>
<g>
	<path class="st3" d="M222.95,733.79c5.52-1.7,10.73-3.91,15.5-6.77c4.74-2.9,9.08-6.35,12.73-10.47c0.9-1.03,1.83-2.05,2.64-3.16
		c0.88-1.06,1.63-2.21,2.41-3.35c1.49-2.31,2.9-4.7,4.09-7.22c2.38-5.04,4.14-10.41,5.38-16.06c0.43,5.78-0.52,11.69-2.49,17.25
		c-1.94,5.58-5.06,10.79-9.05,15.22c-0.98,1.12-2.09,2.12-3.14,3.18c-1.13,0.97-2.25,1.95-3.46,2.82c-2.39,1.76-4.95,3.31-7.64,4.54
		C234.56,732.28,228.74,733.72,222.95,733.79z"/>
</g>
<g>
	<path class="st3" d="M229.36,715.62c-2.27,2.91-5.19,5.28-8.41,7.17c-3.22,1.87-6.77,3.23-10.44,4.01
		c-3.67,0.77-7.47,0.98-11.18,0.56c-3.7-0.42-7.33-1.43-10.58-3.19c3.68,0.15,7.2,0.24,10.68,0.04c3.48-0.17,6.89-0.63,10.25-1.33
		c3.36-0.72,6.66-1.69,9.91-2.93C222.86,718.74,226.05,717.24,229.36,715.62z"/>
</g>
<path class="st5" d="M995.29,268.7c-5.65,3.05-11.92,4.54-18.77,5.42c-7.06-4.04-11.53-10.13-14.78-14.53
	c-5.89-8.04-9.16-16.67-8.18-17.15c0.95-0.45,4.58,7.16,12.74,14.7C977.07,267.13,988.81,267.15,995.29,268.7z"/>
<path class="st5" d="M895.68,276.93c-8.99,17.55-7.71,35.15-7.48,38.47c3.08,45.14-3.71,90.56-1.07,135.72
	c8.72,149.06-3.21,198.78,0,241.53c0.09,1.08,1.4,26.05,0,29.92c-4.41,12.17-30.35,17.56-60.45,15.19
	c2.04-21.13,10.78-49.69,18.82-98.4c14.1-85.47,14.07-160.48,14-174.75c-0.27-55.02,3.53-72.28,8-127.11c0.12-1.51,9.72-44.22,14-52
	c1.27-2.31,10.14-14.58,18.5-15.92C898.24,271.96,896.95,274.46,895.68,276.93z"/>
<path class="st5" d="M572.97,710.33c-16.89-0.54-28.28-1.81-29.95-10.2c-2.14-10.69,2.28-20.43-2.14-41.68
	c-0.36-1.72-2.75-26.57-25.65-37.4c-24.4-11.55-48.57,2.22-50.23,3.2c-24.85,14.7-29.92,43.82-29.92,59.85
	c0,1.39,0.24,10.82-1.07,13.89c-1.43,3.34-6,7.7-32.06,8.55c-0.94,0.03-1.88,0.06-2.8,0.09c0.42-11.83,3.69-24.71,7.35-39.13
	c4.78-18.83,9.41-37.04,26-52c18.31-16.51,39.93-18.89,50-20c12.91-1.42,32.79-3.61,50,8c14.02,9.46,18.88,23.08,26,44
	C566.98,672.43,573.89,692.71,572.97,710.33z"/>
<path class="st5" d="M178.74,712.59c-5.62,0.13-11.35-0.6-17.24-2.84c-22.83-8.71-31.78-34.09-36.34-47.03
	c-4.2-11.92-5.05-20.88-6.41-36.33c-5.36-61.1,9.64-83.99,13.89-118.63c0.13-1.04,0.43-3.63,1.35-4.78
	c1.94,13.75,2.65,28.57,1.51,42.52c-2.2,26.99-10.01,34.74-7,61c2.94,25.66,13.6,46.23,23,64
	C163.31,692.83,173.71,705.35,178.74,712.59z"/>
</svg>
