<?xml version="1.0" encoding="utf-8"?>
<!-- Generator: Adobe Illustrator 23.0.1, SVG Export Plug-In . SVG Version: 6.00 Build 0)  -->
<svg version="1.1" id="Слой_1" xmlns="http://www.w3.org/2000/svg" xmlns:xlink="http://www.w3.org/1999/xlink" x="0px" y="0px"
	 viewBox="0 0 1024 1024" style="enable-background:new 0 0 1024 1024;" xml:space="preserve">
<style type="text/css">
	.st0{fill:#FA5423;}
	.st1{fill:#231F20;}
	.st2{fill:#FFD64B;}
	.st3{fill:#F59E0B;}
	.st4{fill:#F9E1BD;stroke:#231F20;stroke-width:3;stroke-miterlimit:10;}
	.st5{fill:#F59E0B;stroke:#231F20;stroke-width:3;stroke-miterlimit:10;}
	.st6{fill:#8B7064;}
</style>
<path class="st0" d="M969.62,708.29l-245.23,22.46c5.99-7.05,7.84-17.62,3.89-27.42c-2.28-5.66-6.13-10.17-10.75-13.13l-1.52,0.45
	c0.19-0.34,0.37-0.69,0.54-1.05c-0.13-0.08-0.27-0.16-0.41-0.24l0.61-0.18c3.67-7.89,3.09-17.87-2.38-26.17
	c-2.95-4.47-6.9-7.83-11.29-9.93l-2.47,1.29c0.22-0.69,0.41-1.4,0.56-2.11c-0.49-0.2-0.98-0.37-1.48-0.53l1.75-0.92
	c1.26-7.96-1.39-16.71-7.83-23.24c-4.55-4.61-10.25-7.34-16.02-8.12l-0.26,0.21c0.01-0.08,0.02-0.17,0.02-0.25
	c-0.11-0.01-0.22-0.03-0.33-0.04l0.36-0.29c0.8-9.02-3.55-18.54-12.11-24.36c-5.54-3.76-11.89-5.32-17.87-4.82l0.7-0.84
	c-0.82-9.16-7.01-17.85-16.67-21.95c-5.9-2.49-12.12-2.87-17.7-1.46L613,567c-2.58-8.88-11.2-16.68-21.55-18.79
	c-6.08-1.24-12.08-0.46-17.17,1.86L574,551c-0.11-0.21-0.22-0.43-0.34-0.64c-0.19,0.09-0.38,0.18-0.56,0.28l0.25-0.81
	c-4.53-7.69-13.71-14-23.77-14.05c-6.7-0.04-12.83,2.21-17.52,5.96l0.4-3.81c-5.85-6.76-15.56-10.26-25.59-8.33
	c-6.12,1.19-11.26,4.34-15.06,8.48L492,540c-7.08-5.96-18.79-7.87-28.57-3.87c-5.64,2.3-10.13,6.17-13.07,10.81l0.46,1.53
	c-0.35-0.19-0.7-0.37-1.06-0.54c-0.09,0.14-0.16,0.27-0.24,0.41l-0.18-0.61c-7.91-3.63-17.89-3-26.16,2.51
	c-5.58,3.71-9.41,9.01-11.21,14.73l-0.51-0.95c-8.79-2.7-19.17-0.25-26.61,7.17c-4.71,4.7-7.43,10.58-8.1,16.5L377,588
	c-9.19-1-18.96,3.92-24.86,12.69c-3.74,5.56-5.26,11.92-4.74,17.89l-5.7-4.71c-7.26,2.24-13.68,7.85-17,15.8
	c-2.51,6.03-2.82,12.38-1.29,18.02L324,648c-0.15,0.05-0.31,0.09-0.46,0.15c-8.65,2.81-15.52,12.41-17.54,22.59
	c-1.31,6.57,0.22,11.95,3,17.26l-2.43-0.72c-7.62,4.5-12.8,13.28-12.8,23.39c0,6.7,2.28,12.83,6.05,17.5L52.86,703.76
	c-2.63-10.26-3.59-21.56-2.56-33.29c0.24-2.73,0.59-5.49,1.06-8.27c2.95-17.72,10.05-33.34,19.64-45.31
	c-0.57-10.55,0.75-21.81,4.05-33.07c0.77-2.64,1.65-5.28,2.65-7.91c6.4-16.95,16.54-30.99,28.4-40.86L106,535
	c1.53-10.48,4.05-25.82,9.52-36.24c1.28-2.43,2.67-4.84,4.17-7.23c9.8-15.59,22.77-27.48,36.61-34.79l0.93,0.76
	c3.53-8.95,8.64-17.79,15.29-26.01c1.73-2.14,3.56-4.23,5.5-6.28c12.63-13.36,26.94-24.7,41.9-29.18l-0.27-0.33
	c5.41-9.1,7.32-16.15,16.35-23.7c2.11-1.76,8.71-7.37,11-9c15-10.68,32.43-16.52,48-18c7.08-7.88,14.67-15.36,25-21
	c2.41-1.32,5.43-2.85,8-4c16.79-7.54,35.41-10.57,50.96-9l-0.16-0.53c8.51-6.32,18.6-11.48,29.85-14.95
	c2.62-0.81,5.31-1.53,8.06-2.15c17.92-4.05,36.28-6.01,51.2-1.4l-0.02-0.2c9.57-4.53,20.48-7.63,32.19-8.84
	c2.73-0.28,5.51-0.46,8.32-0.53c18.32-0.48,35.68,5.07,49.38,12.48c10.25-2.56,21.52-3.46,33.21-2.37c2.74,0.26,5.5,0.62,8.27,1.1
	c18.02,3.1,33.86,10.48,45.85,20.39c10.56-0.52,23.17,0.35,34.41,3.7c2.63,0.78,5.27,1.68,7.9,2.69
	c17.19,6.6,34.74,15.45,44.58,27.61l-0.01,0.01c10.39,1.6,21.08,5.11,31.39,10.58c2.42,1.29,4.83,2.69,7.2,4.2
	c15.36,9.76,28.84,23,36.14,36.69c9.85,3.59,19.63,9.1,28.64,16.47c2.13,1.74,4.22,3.58,6.25,5.52
	c13.14,12.54,23.68,27.09,28.19,41.88l0.12-0.1c9.08,5.46,17.7,12.82,25.2,21.89c1.75,2.12,3.44,4.33,5.06,6.63
	c9.76,13.86,17.16,29.86,19.36,44.47L920,536c7.84,7.12,14.2,16.25,19.79,26.62c1.3,2.42,2.53,4.91,3.67,7.49
	c7.45,16.8,12.18,34.27,10.55,49.81l0.35-0.1c6.27,8.54,11.38,18.66,14.8,29.92c0.79,2.63,1.5,5.32,2.11,8.07
	C975.24,675.8,974.34,693.38,969.62,708.29z"/>
<g>
	<path class="st1" d="M50.3,670.47c0.24-2.74,0.59-5.5,1.05-8.28c3.03-18.17,10.42-34.14,20.37-46.22l-28.25-8.47
		c0,0-31.99,2.49-39.63,39.63c-7.6,36.92,20.09,53.75,20.09,53.75l28.93,2.86c0,0,0,0,0,0l0,0C50.22,693.5,49.26,682.2,50.3,670.47z
		"/>
	<path class="st1" d="M76,583c0.77-2.64,2-6.37,3-9c6.52-17.23,15.89-29.09,28-39l-26.37-16.26c0,0-31.86-3.8-46.6,31.14
		C19.37,584.61,43,608,43,608l25,7c-1.06,1.04,3,2,3,2l0,0C70.42,606.43,72.69,594.3,76,583z"/>
	<path class="st1" d="M116.53,498.76c1.28-2.43,2.66-4.85,4.16-7.23c9.8-15.6,22.48-24.22,36.31-31.53l-22.51-21.97
		c0,0-30.48-10.03-51.85,21.3C61.4,490.47,80,519,80,519l26,16c0,0,1-5,1-5v-1C108.52,518.52,111.05,509.18,116.53,498.76z"/>
	<path class="st1" d="M175,429c1.73-2.14,1.07-1.95,3-4c12.66-13.39,29.01-24.52,44-29l-20.01-23.57c0,0-27.93-15.79-55.01,10.78
		C120.07,409.61,135,442,135,442l21,17c0,0,0,0,0,0l1,1C160.54,450.02,167.6,438.15,175,429z"/>
	<path class="st1" d="M242.41,370.39c2.11-1.76,4.31-3.46,6.6-5.1c15.01-10.68,31.53-16.72,47.11-18.21l-13.95-25.99
		c0,0-24.35-20.9-56.05-0.08c-31.51,20.68-23.88,52.18-23.88,52.18l18.4,22.51c0,0,0,0,0,0L222,396
		C227.4,386.89,233.38,377.94,242.41,370.39z"/>
	<path class="st1" d="M321.67,323.32c2.41-1.32,4.9-2.56,7.47-3.71c16.81-7.55,34.19-10.25,49.76-8.67l-8.61-28.21
		c0,0-19.8-25.25-54.96-11.02C280.38,285.86,282,321,282,321l12,23c0,0,0,0,0,0l2,3C303.08,339.12,311.33,328.96,321.67,323.32z"/>
	<path class="st1" d="M409.65,295.52c2.63-0.81,5.31-1.53,8.06-2.15c17.97-4.06,36.35-4.01,51.29,0.63l-3-31
		c0,0-15.03-26.27-52.31-19.31c-37.05,6.91-44.17,38.91-44.17,38.91l8.29,27.87c0,0,2,0,2,0l0,0
		C388.3,304.15,398.4,298.99,409.65,295.52z"/>
	<path class="st1" d="M500.08,282.93c2.73-0.28,5.51-0.46,8.32-0.54c18.42-0.47,35.84,5.14,49.6,12.6l3-29
		c0,0-8.92-32.67-46.85-33.11C476.46,232.44,465,263,465,263l4,31c0,0-1.11-2.23-1.11-2.23L469,294
		C478.57,289.47,488.37,284.14,500.08,282.93z"/>
	<path class="st1" d="M590.99,292.51c2.74,0.26,5.5,0.62,8.27,1.1c18.16,3.12,34.08,10.59,46.11,20.6L654,287
		c0,0-2.34-33-39.45-40.83c-36.88-7.78-53.85,19.82-53.85,19.82l-3,28.92c0,0,0,0,0,0l0,0
		C567.97,292.32,579.27,291.41,590.99,292.51z"/>
	<path class="st1" d="M679.52,317.7c2.63,0.78,5.27,1.68,7.9,2.69c17.2,6.61,34.36,16.04,44.21,28.2l13.95-25.99
		c0,0,0.96-30.84-33.91-45.76C677.01,262.01,654,286,654,286l-9,28C655.58,313.47,668.24,314.34,679.52,317.7z"/>
	<path class="st1" d="M763.38,358.59c2.43,1.29,4.83,2.69,7.21,4.2c15.55,9.88,28.37,23.91,35.62,37.78l18.81-22.71
		c0,0,9.18-31.43-22.04-52.95c-31.03-21.4-57.33-2.46-57.33-2.46l-13.91,25.53c0,0,0,0,0,0l0,0
		C742.2,349.54,752.98,353.06,763.38,358.59z"/>
	<path class="st1" d="M835.36,415.95c2.13,1.74,4.22,3.58,6.25,5.52C854.94,434.2,865.6,448.98,870,464l21.27-18.31
		c0,0,15.92-27.86-10.5-55.06c-26.26-27.04-55.75-13.6-55.75-13.6l-18.63,22.32c0,0,0,0,0,0l0,0
		C816.36,402.94,826.25,408.5,835.36,415.95z"/>
	<path class="st1" d="M895.12,485.14c1.75,2.12,3.44,4.33,5.06,6.63c10.61,15.06,17.56,32.62,18.97,48.2l26.05-13.82
		c0,0,20.02-25.24-0.64-57.05C924.04,437.48,890,446,890,446l-20.09,17.25c0,0,0,0,0,0l0,0C879,468.7,887.62,476.06,895.12,485.14z"
		/>
	<path class="st1" d="M939.79,562.62c1.3,2.42,2.53,4.92,3.67,7.49c7.46,16.84,12.08,35.24,10.42,50.8l28.25-8.47
		c0,0,23.34-20.68,9.29-55.9c-13.97-35.01-46.35-33.83-46.35-33.83L919,540c0,0,0.66-0.23,0,0l0,0
		C926.84,547.12,934.2,552.25,939.79,562.62z"/>
	<path class="st1" d="M969.16,649.74c0.8,2.63,1.5,5.32,2.11,8.07c3.97,17.99,3.07,35.56-1.65,50.48l29.37-2.69
		c0,0,28.75-14.25,21.98-51.56c-6.73-37.09-38.7-42.37-38.7-42.37l-27.91,8.15c0,0,0,0,0,0l0,0
		C960.63,628.35,965.74,638.48,969.16,649.74z"/>
</g>
<g>
	<path class="st2" d="M320.63,730.18c-2.84-5.36-5.78-12.61-4.06-20.59c1.38-6.45,5.66-12.75,11.42-16.79l-0.23-0.07l-0.16-0.05
		l-19.99-5.99c-8.19,4.3-13.84,13.42-13.84,23.99c0,6.7,2.28,12.82,6.05,17.49l20.27,2.01l13.3,1.31c0.02,0,0.04-0.02,0.07-0.04
		L320.63,730.18z"/>
	<path class="st2" d="M328.54,693.11c-1.74-5.82-3.21-13.49,0.03-20.98c2.61-6.06,8.04-11.4,14.48-14.24l-0.21-0.11l-0.15-0.08
		l-18.44-9.78c-8.87,2.62-16.2,10.46-18.26,20.83c-1.31,6.57-0.27,13.02,2.52,18.34l19.49,5.93l12.79,3.88
		c0.02,0,0.05-0.01,0.07-0.03L328.54,693.11z"/>
	<path class="st2" d="M341.98,658.02c-0.56-6.05-0.47-13.86,4.19-20.56c3.76-5.42,10.13-10.58,17.01-12.09l-0.19-0.15l-0.13-0.11
		L347,612c-9.21,0.81-18.23,7.92-22.3,17.67c-2.58,6.18-2.84,12.71-1.16,18.47l17.93,9.67l11.77,6.34c0.02,0.01,0.05,0,0.08-0.02
		L341.98,658.02z"/>
	<path class="st2" d="M363.55,628.87c0.63-6.04,2.24-13.69,8.12-19.35c4.74-4.58,11.81-7.42,18.85-7.56l-0.15-0.19l-0.11-0.13
		l-13.25-16.13c-9.19-1-18.98,3.41-24.87,12.18c-3.74,5.56-5.26,11.91-4.74,17.89l15.7,12.98l10.31,8.51c0.02,0.01,0.05,0.01,0.08,0
		L363.55,628.87z"/>
	<path class="st2" d="M390.01,601.98c1.79-5.8,4.85-12.99,11.71-17.41c5.54-3.58,13.35-4.8,20.28-3.57l-0.44-0.41l-0.08-0.15
		l-9.87-18.39c-8.83-2.76-19.28-0.33-26.76,7.13c-4.74,4.73-7.47,10.67-8.12,16.63l12.89,15.78l8.46,10.35
		c0.02,0.02,0.05,0.02,0.08,0.02L390.01,601.98z"/>
	<path class="st2" d="M421.84,581.41c2.89-5.34,7.29-11.8,14.88-14.79c6.13-2.43,13.75-2.36,20.3,0.2l-0.07-0.23l-0.05-0.16
		l-6.09-19.96c-8.12-4.43-18.85-4.08-27.64,1.77c-5.58,3.71-10.38,9.03-12.18,14.76l10.54,17.96l6.28,11.8
		c0.01,0.02,0.04,0.02,0.07,0.03L421.84,581.41z"/>
	<path class="st2" d="M455.53,566.37c3.89-4.66,9.49-10.11,17.53-11.54c6.49-1.16,13.94,0.42,19.86,4.23l-0.02-0.24l-0.02-0.17
		l-2-20.77c-7.08-5.96-17.66-7.75-27.44-3.75c-6.2,2.53-11.01,6.96-13.91,12.21l5.8,19.53l3.81,12.81c0.01,0.02,0.04,0.03,0.06,0.04
		L455.53,566.37z"/>
	<path class="st2" d="M492.83,559.68c4.73-3.81,11.28-8.07,19.44-7.9c6.59,0.13,13.59,3.13,18.65,8.03l0.03-0.24l0.02-0.17
		l2.09-20.77c-5.78-7.22-15.81-11.04-26.18-9.03c-6.58,1.27-13.01,3.81-16.87,8.4l2.73,21.15l1.24,13.31c0,0.02,0.03,0.04,0.06,0.06
		L492.83,559.68z"/>
	<path class="st2" d="M529.95,562.54c5.38-2.82,12.64-5.71,20.61-3.96c6.44,1.41,12.72,5.72,16.73,11.51l0.07-0.23l0.05-0.16
		L575,550c-4.26-8.21-14.54-13.51-25-15c-7-1-13.31,0.26-18,4l-2.05,23l-1.38,13.3c0,0.02,0.02,0.04,0.04,0.07L529.95,562.54z"/>
	<path class="st2" d="M566.97,570.63c5.82-1.71,13.51-3.14,20.98,0.14c6.04,2.64,11.36,8.09,14.16,14.55l0.12-0.21L603,585l10-18
		c-2.58-8.88-11.2-16.68-21.55-18.79c-6.56-1.34-13.02-0.33-18.35,2.43l-6.02,19.46l-3.95,12.77c0,0.02,0.01,0.05,0.03,0.07
		L566.97,570.63z"/>
	<path class="st2" d="M602.99,584.25c6.05-0.53,13.86-0.4,20.54,4.29c5.4,3.78,9.53,10.18,11,17.07l0.15-0.18l0.11-0.13l13.31-16.07
		c-0.77-9.22-6.96-17.98-16.69-22.1c-6.17-2.61-12.7-2.9-18.47-1.25l-9.75,17.89l-6.4,11.74c-0.01,0.02,0,0.05,0.01,0.08
		L602.99,584.25z"/>
	<path class="st2" d="M634.04,605.98c6.04,0.66,13.67,2.31,19.31,8.21c4.56,4.77,7.36,11.84,7.46,18.88l0.19-0.15l0.13-0.11
		l16.19-13.17c1.05-9.19-3.32-18.99-12.06-24.93c-5.54-3.77-11.89-5.32-17.87-4.83l-13.06,15.64l-8.56,10.26
		c-0.01,0.02-0.01,0.05,0,0.08L634.04,605.98z"/>
	<path class="st2" d="M660.79,632.57c5.79,1.82,12.97,4.91,17.35,11.8c3.55,5.56,4.93,13.05,3.66,19.97l0.21-0.11l0.15-0.08
		l18.44-9.78c2.81-8.81,0.42-19.28-7-26.8c-4.71-4.77-10.63-7.52-16.59-8.2l-15.84,12.81l-10.39,8.41
		c-0.02,0.02-0.02,0.05-0.02,0.08L660.79,632.57z"/>
	<path class="st2" d="M681.21,661.5c5.33,2.91,11.76,7.35,14.72,14.96c2.4,6.14,2.29,13.76-0.3,20.3l0.23-0.07l0.16-0.05l19.99-5.99
		c4.47-8.1,4.18-18.82-1.64-27.65c-3.69-5.59-8.96-9.45-14.68-11.28l-18.03,9.48l-11.83,6.22c-0.02,0.01-0.02,0.04-0.03,0.07
		L681.21,661.5z"/>
	<path class="st2" d="M696.08,695.26c4.64,3.91,10.07,9.54,11.45,17.58c1.13,6.5-0.49,13.94-4.33,19.84l0.24-0.02l0.17-0.01
		l20.78-1.9c5.99-7.05,7.83-17.62,3.89-27.42c-2.5-6.22-6.9-11.05-12.14-13.97l-19.56,5.7l-12.83,3.75
		c-0.02,0.01-0.03,0.04-0.04,0.06L696.08,695.26z"/>
</g>
<g>
	<path class="st3" d="M349.67,699.29l-11.11-3.33l-10.57-3.16c-5.77,4.04-10.04,10.34-11.42,16.79c-1.72,7.98,1.22,15.22,4.06,20.59
		l12.82,1.27l25.86,2.56l136.97,13.54v-4.29L349.67,699.29z"/>
	<path class="st3" d="M363,668l-10-6l-11-4c-6.44,2.84-10.82,8.07-13.43,14.12c-3.24,7.49-1.78,15.17-0.03,20.98l12.33,3.75
		l24.86,7.55l131.7,40l0.84-4.21L363,668z"/>
	<path class="st3" d="M380.67,639.71l-8.97-7.36L363,625c-6.88,1.51-13.08,6.04-16.84,11.46c-4.66,6.7-4.72,15.49-4.16,21.54
		l11.32,5.14l22.87,12.32l121.18,65.27l1.65-3.96L380.67,639.71z"/>
	<path class="st3" d="M404.88,619.44l-7.36-8.96l-7.01-8.52c-7.04,0.14-14.1,2.97-18.85,7.56c-5.88,5.67-8.04,10.45-8.67,16.49
		l10.49,11.08l20.03,16.55l106.12,87.66l2.39-3.56L404.88,619.44z"/>
	<path class="st3" d="M432.38,600.74l-5.48-10.22L422,581c-6.93-1.23-14.74-0.01-20.28,3.57c-6.86,4.42-9.92,11.61-11.71,17.41
		l8.15,9.98l16.45,20.11l87.12,106.56l3.04-3.03L432.38,600.74z"/>
	<path class="st3" d="M463.64,588.46l-3.38-11.09l-3.23-10.55c-6.56-2.56-14.17-2.63-20.3-0.2c-7.59,3-12,9.45-14.88,14.79
		l6.05,11.38l12.21,22.94l64.66,121.5l3.57-2.38L463.64,588.46z"/>
	<path class="st3" d="M495.09,581.58l-1.11-11.54l-1.07-10.98c-5.92-3.81-13.37-5.39-19.86-4.23c-8.04,1.43-13.64,6.88-17.53,11.54
		l3.67,12.35l7.4,24.9l39.22,131.93l3.97-1.62L495.09,581.58z"/>
	<path class="st3" d="M528.67,582.32l1.16-11.54l1.09-10.97c-5.06-4.89-12.06-7.9-18.65-8.03c-8.16-0.17-15.55,3.4-20.27,7.22
		l2.02,13.52l2.4,25.87l12.73,137.05l4.21-0.82L528.67,582.32z"/>
	<path class="st3" d="M560.68,591.73l3.39-11.09l3.21-10.55c-4.01-5.79-10.29-10.1-16.73-11.51c-7.97-1.76-15.18-1.4-20.55,1.42
		l-1.39,15.36l-2.68,25.84l-14.22,136.9l4.29,0.02L560.68,591.73z"/>
	<path class="st3" d="M591.43,605.26L598,595l5-11c-2.8-6.46-9-10.59-15.04-13.23c-7.48-3.28-15.13-2.49-20.96-0.77l-3.84,12.94
		l-7.67,24.82l-40.65,131.5l4.2,0.86L591.43,605.26z"/>
	<path class="st3" d="M620.11,623.03l7.4-8.93l7.03-8.5c-1.47-6.88-5.6-13.28-11-17.07c-6.68-4.69-14.49-5.06-20.53-4.54
		l-6.18,11.56L583,618l-64.49,121.23l3.95,1.67L620.11,623.03z"/>
	<path class="st3" d="M643.26,647.36l9-7.31l8.55-6.96c-0.1-7.04-2.9-14.12-7.46-18.88c-5.64-5.91-13.28-7.55-19.31-8.21l-8.26,9.89
		l-16.65,19.95L520.95,741.5l3.55,2.41L643.26,647.36z"/>
	<path class="st3" d="M661.82,674.94l10.25-5.43l9.74-5.17c1.27-6.93-0.11-14.41-3.66-19.97c-4.39-6.89-11.56-9.98-17.35-11.8
		l-10.02,8.11l-20.2,16.35l-106.99,86.59l3.01,3.05L661.82,674.94z"/>
	<path class="st3" d="M673.95,703.26l11.11-3.33l10.56-3.17c2.59-6.55,2.7-14.16,0.3-20.3c-2.96-7.61-9.39-12.04-14.72-14.96
		l-11.41,6l-23,12.09l-121.82,64.06l2.36,3.58L673.95,703.26z"/>
	<path class="st3" d="M680.67,734.75l11.55-1.05l10.98-1.01c3.84-5.9,5.46-13.34,4.33-19.84c-1.39-8.04-6.81-13.67-11.45-17.58
		l-12.37,3.61l-24.94,7.28l-132.12,38.57l1.6,3.98L680.67,734.75z"/>
</g>
<path class="st4" d="M580.83,744.02l-66.33,3.48l-70.99-5.21c5.6-32.77,34.15-57.71,68.52-57.71
	C547,684.58,575.95,710.4,580.83,744.02z"/>
<g>
	<line class="st5" x1="445.97" y1="728.17" x2="472.5" y2="738.5"/>
	<line class="st5" x1="452.71" y1="716.04" x2="476.5" y2="730.5"/>
	<path class="st5" d="M461.28,706.59c0.22-0.09,21.16,17.48,21.16,17.48"/>
	<line class="st5" x1="470.96" y1="698" x2="487.6" y2="719.86"/>
	<line class="st5" x1="481.57" y1="690.65" x2="494.33" y2="716.04"/>
	<line class="st5" x1="492.91" y1="687.25" x2="500.27" y2="713.86"/>
	<line class="st5" x1="577.24" y1="729.95" x2="551.03" y2="737.9"/>
	<path class="st5" d="M572.01,718.92c-1.51,0.58-24.11,12.68-24.11,12.68"/>
	<line class="st5" x1="564.14" y1="707.79" x2="542.81" y2="725.26"/>
	<line class="st5" x1="554.92" y1="697.8" x2="536.46" y2="721"/>
	<line class="st5" x1="542.77" y1="691.73" x2="530.23" y2="716.27"/>
	<line class="st5" x1="530.23" y1="686.47" x2="522.27" y2="712.22"/>
	<line class="st5" x1="517.12" y1="683.05" x2="514.84" y2="712.22"/>
	<line class="st5" x1="504.71" y1="684.58" x2="507.87" y2="711.02"/>
</g>
<circle class="st6" cx="512.03" cy="752.11" r="42.89"/>
<circle class="st0" cx="512.03" cy="752.19" r="24.43"/>
</svg>
