<?xml version="1.0" encoding="utf-8"?>
<!-- Generator: Adobe Illustrator 23.0.1, SVG Export Plug-In . SVG Version: 6.00 Build 0)  -->
<svg version="1.1" id="Слой_1" xmlns="http://www.w3.org/2000/svg" xmlns:xlink="http://www.w3.org/1999/xlink" x="0px" y="0px"
	 viewBox="0 0 1024 1024" style="enable-background:new 0 0 1024 1024;" xml:space="preserve">
<style type="text/css">
	.st0{fill:#FA5423;}
	.st1{fill:#8B7064;}
	.st2{fill:#F59E0B;}
	.st3{fill:#FFD64B;}
	.st4{fill:#B1DFDB;}
	.st5{fill:none;stroke:#000000;stroke-width:2;stroke-linecap:round;stroke-miterlimit:10;}
	.st6{fill:#0D9488;}
	.st7{fill:none;}
	.st8{fill:none;stroke:#000000;stroke-width:2;stroke-miterlimit:10;}
</style>
<g>
	<path class="st0" d="M525.4,775.39L525.4,775.39l-1.18,0c-0.55,0-1.09,0-1.64,0c-0.55,0-1.09,0-1.64,0h-1.18v0
		C420.08,775.56,340,781.23,340,788.2c0,0.18,0.06,0.37,0.16,0.55c2.81,4.58,40.3,8.55,94.71,10.64h0.05
		c25.23,0.98,54.1,1.55,84.83,1.6V801h1.18c0.55,0,1.09,0,1.64,0c0.55,0,1.09,0,1.64,0h1.18v-0.01c30.74-0.05,59.6-0.63,84.83-1.6
		h0.05c54.41-2.09,91.9-6.06,94.71-10.64c0.11-0.18,0.16-0.37,0.16-0.55C705.16,781.23,625.07,775.56,525.4,775.39z"/>
	<path class="st1" d="M613.45,409.72l-44.99-72.16c-4.82-7.73-13.28-12.42-22.39-12.42h-52.04c-9.69,0-18.59,5.31-23.2,13.83
		l-38.46,71.06c25.2-1.71,57.59-2.74,92.92-2.74C558.44,407.28,588.99,408.19,613.45,409.72z"/>
	<path class="st2" d="M434.92,796.55c26.47,1.23,55.94,1.91,86.97,1.91h1.38c31.03,0,60.49-0.68,86.97-1.91h0.05
		c20.47-0.95,39.16-2.22,55.42-3.75l-30.55-329.22c-26.64,2.45-65.46,3.99-108.68,3.99c-47.1,0-88.96-1.83-115.54-4.67L371.35,792
		c18.05,1.89,39.57,3.44,63.53,4.55H434.92z"/>
	<path class="st0" d="M730.02,989.24c-0.01-0.05-0.01-0.1-0.02-0.15l-24.74-201.34c0,0,0,0,0,0c-10.57,1.88-23.95,3.59-39.56,5.05
		c-16.27,1.53-34.95,2.8-55.42,3.75h-0.05c-26.47,1.23-55.94,1.91-86.97,1.91h-1.38c-31.03,0-60.49-0.68-86.97-1.91h-0.05
		c-23.96-1.11-45.48-2.66-63.53-4.55c-12.17-1.27-22.76-2.7-31.45-4.25c0,0,0,0,0,0l-24.74,201.34c-0.01,0.05-0.01,0.1-0.02,0.15
		c-1.2,9.83,4.96,19.13,14.5,21.77c10.91,3.02,27.87,5.33,49.81,7.03c25.28,1.97,57.19,3.13,94.12,3.64v0.27
		c10.41,0.05,21.14,0.05,32.16,0.05h16.16h1.38h16.16c11.02,0,21.75,0,32.16-0.05v-0.27c36.93-0.51,68.84-1.66,94.12-3.64
		c21.95-1.7,38.9-4.01,49.81-7.03C725.06,1008.37,731.23,999.07,730.02,989.24z"/>
	<path class="st3" d="M675.86,422.09c-1.73-1.73-3.6-2.87-5.36-3.63c-2.6-3.57-24.4-6.71-57.05-8.75
		c-24.46-1.53-55.01-2.43-88.15-2.43c-35.33,0-67.72,1.03-92.92,2.74c-26.45,1.8-44.98,4.35-50.69,7.25
		c-8.11,1.55-14.24,8.67-14.24,17.23v6.9c0,4.85,1.96,9.23,5.14,12.41c5.02,5.02,11.24,5.14,12.41,5.14c0.53,0,1.06,0,1.6,0
		c5.07,1.45,13.43,2.78,24.35,3.95c26.59,2.84,68.44,4.67,115.54,4.67c43.23,0,82.04-1.54,108.68-3.99
		c17.21-1.58,29.34-3.54,34.3-5.71c6.73-2.45,11.55-8.89,11.55-16.47v-6.9C681,429.66,679.04,425.27,675.86,422.09z"/>
	<path class="st0" d="M852.39,735.49L181.8,64.9c-3.12-3.12-3.12-8.19,0-11.31l2.7-2.7c3.12-3.12,8.19-3.12,11.31,0l670.59,670.59
		c3.12,3.12,3.12,8.19,0,11.31l-2.7,2.7C860.58,738.61,855.51,738.61,852.39,735.49z"/>
	<path class="st0" d="M866.41,64.9L195.82,735.49c-3.12,3.12-8.19,3.12-11.31,0l-2.7-2.7c-3.12-3.12-3.12-8.19,0-11.31L852.39,50.88
		c3.12-3.12,8.19-3.12,11.31,0l2.7,2.7C869.53,56.71,869.53,61.77,866.41,64.9z"/>
	<path class="st4" d="M378.94,396.87L139.23,636.58c-6.94,6.94-6.94,18.2,0,25.15l51.05,51.05l264.85-264.85l-51.05-51.05
		C397.14,389.93,385.88,389.93,378.94,396.87z"/>
	<g>
		<polyline class="st5" points="224.64,677.69 224.42,677.47 161.66,614.71 		"/>
		<polyline class="st5" points="261.13,641.2 260.91,640.97 198.15,578.22 		"/>
		<polyline class="st5" points="294.09,608.24 293.87,608.01 231.11,545.26 		"/>
		<polyline class="st5" points="325.87,576.46 325.65,576.23 262.9,513.48 		"/>
		<polyline class="st5" points="357.66,544.67 357.43,544.45 294.68,481.7 		"/>
		<polyline class="st5" points="389.44,514.07 389.22,513.84 325.59,450.22 		"/>
		<polyline class="st5" points="422.4,479.93 422.17,479.71 359.42,416.95 		"/>
	</g>
	<path class="st4" d="M519.48,246.99L279.83,7.22c-6.94-6.95-18.2-6.95-25.15-0.01l-51.06,51.03l264.79,264.92l51.06-51.03
		C526.42,265.2,526.42,253.94,519.48,246.99z"/>
	<g>
		<polyline class="st5" points="238.7,92.62 238.93,92.4 301.7,29.66 		"/>
		<polyline class="st5" points="275.18,129.12 275.41,128.9 338.18,66.16 		"/>
		<polyline class="st5" points="308.14,162.09 308.36,161.87 371.13,99.13 		"/>
		<polyline class="st5" points="339.91,193.88 340.13,193.66 402.9,130.92 		"/>
		<polyline class="st5" points="371.68,225.67 371.91,225.45 434.68,162.71 		"/>
		<polyline class="st5" points="402.28,257.46 402.51,257.24 466.15,193.63 		"/>
		<polyline class="st5" points="436.41,290.43 436.63,290.21 499.4,227.47 		"/>
	</g>
	<path class="st4" d="M672.13,387.63L911.32,147.4c6.93-6.96,6.91-18.22-0.05-25.15l-51.16-50.93L595.83,336.75l51.16,50.93
		C653.94,394.62,665.2,394.59,672.13,387.63z"/>
	<g>
		<polyline class="st5" points="825.82,106.48 826.04,106.7 888.93,169.32 		"/>
		<polyline class="st5" points="789.41,143.05 789.63,143.27 852.52,205.89 		"/>
		<polyline class="st5" points="756.52,176.08 756.74,176.31 819.63,238.92 		"/>
		<polyline class="st5" points="724.8,207.93 725.03,208.16 787.92,270.77 		"/>
		<polyline class="st5" points="693.09,239.79 693.32,240.01 756.2,302.63 		"/>
		<polyline class="st5" points="661.38,270.46 661.6,270.68 725.36,334.17 		"/>
		<polyline class="st5" points="628.49,304.67 628.71,304.89 691.6,367.51 		"/>
	</g>
	<path class="st4" d="M531.22,542.08l239.74,239.67c6.95,6.94,18.21,6.94,25.15,0l51.04-51.05L582.25,465.88l-51.04,51.05
		C524.27,523.88,524.27,535.14,531.22,542.08z"/>
	<g>
		<polyline class="st5" points="812.06,696.34 811.83,696.56 749.09,759.32 		"/>
		<polyline class="st5" points="775.56,659.85 775.34,660.08 712.59,722.84 		"/>
		<polyline class="st5" points="742.6,626.9 742.37,627.12 679.63,689.88 		"/>
		<polyline class="st5" points="710.81,595.12 710.58,595.34 647.84,658.11 		"/>
		<polyline class="st5" points="679.02,563.34 678.8,563.57 616.05,626.33 		"/>
		<polyline class="st5" points="648.41,531.56 648.19,531.79 584.57,595.42 		"/>
		<polyline class="st5" points="614.27,498.61 614.05,498.83 551.3,561.59 		"/>
	</g>
	<path class="st6" d="M571.59,954.99v65.83h-97.7v-65.83c0-26.7,21.87-48.35,48.85-48.35c0.89,0,1.78,0.02,2.66,0.07
		C551.14,908.07,571.59,929.17,571.59,954.99z"/>
	<path class="st6" d="M546.59,711.22v32.64c0,4.09-3.31,7.4-7.4,7.4h-33.46c-4.09,0-7.4-3.31-7.4-7.4v-32.64
		c0-16.24,10.8-29.41,24.13-29.41c0.44,0,0.88,0.01,1.31,0.04C536.49,682.68,546.59,695.51,546.59,711.22z"/>
	<circle class="st6" cx="522.45" cy="391.65" r="18.25"/>
	<line class="st8" x1="523.04" y1="751.26" x2="523.04" y2="681.81"/>
</g>
</svg>
